<svg xmlns="http://www.w3.org/2000/svg" width="356" height="262.667"><path style="fill:none;stroke-width:1;stroke-linecap:round;stroke-linejoin:round;stroke:#000;stroke-opacity:1;stroke-miterlimit:10" d="M110.188 150.466 78.325 173.71M138.61 151.075l38.46 26.171M119.481 152.61l-9.641 21.1M131.64 152.61l9.77 21.636" transform="matrix(1.33333 0 0 1.33333 48 0)"/><path style="stroke:none;fill-rule:nonzero;fill:#000;fill-opacity:1" d="M233.375 66.059h-35.824a3.508 3.508 0 0 0-3.504 3.504v68.062a3.508 3.508 0 0 0 3.504 3.504h.086c-.008.027-.008.055-.008.074 0 .621.5 1.121 1.117 1.121h2.39c.614 0 1.118-.5 1.118-1.12 0-.02-.004-.048-.004-.075h26.426v.074c0 .621.5 1.121 1.117 1.121h2.39c.614 0 1.114-.5 1.114-1.12 0-.02 0-.048-.004-.075h.082a3.506 3.506 0 0 0 3.504-3.504V69.562a3.506 3.506 0 0 0-3.504-3.503m-32.316 45.218h28.812v19.18c0 .703-.57 1.273-1.273 1.273h-26.27c-.7 0-1.27-.57-1.27-1.273v-19.18m28.813-2.234H201.06v-40.75h28.812v40.75m4.774 28.582c0 .7-.567 1.27-1.27 1.27h-35.824c-.696 0-1.27-.57-1.27-1.27V69.562c0-.703.574-1.269 1.27-1.269h1.273v62.164a3.51 3.51 0 0 0 3.504 3.508h26.27a3.513 3.513 0 0 0 3.507-3.508V68.293h1.27c.7 0 1.27.566 1.27 1.27v68.062"/><path style="stroke:none;fill-rule:nonzero;fill:#000;fill-opacity:1" d="M204.719 101.879c-.621 0-1.121.5-1.121 1.117v1.195a2.314 2.314 0 0 0 2.312 2.309h19.106a2.311 2.311 0 0 0 2.312-2.309v-20.3a1.117 1.117 0 0 0-2.234 0v1.27h-19.262v-7.24c0-.042.04-.077.078-.077h19.106c.043 0 .078.035.078.078v1.191a1.117 1.117 0 1 0 2.234 0v-1.191a2.312 2.312 0 0 0-2.312-2.313H205.91a2.315 2.315 0 0 0-2.312 2.313v20.297a1.117 1.117 0 1 0 2.234 0v-1.27h19.262v7.242c0 .043-.035.075-.078.075H205.91c-.039 0-.078-.032-.078-.075v-1.195c0-.617-.5-1.117-1.113-1.117m1.113-7.164v-7.32h19.262v7.32h-19.262M207.105 73.066h2.391a1.117 1.117 0 0 0 0-2.234h-2.39a1.118 1.118 0 0 0 0 2.234M214.27 73.066h2.386a1.117 1.117 0 1 0 0-2.234h-2.386a1.118 1.118 0 0 0 0 2.234M221.434 73.066h2.39a1.117 1.117 0 0 0 0-2.234h-2.39a1.118 1.118 0 0 0 0 2.234M215.465 120.828a3.51 3.51 0 0 0 3.504-3.504 3.512 3.512 0 0 0-3.504-3.508 3.513 3.513 0 0 0-3.508 3.508 3.512 3.512 0 0 0 3.508 3.504m0-4.777c.703 0 1.27.574 1.27 1.273a1.273 1.273 0 0 1-2.543 0c0-.699.574-1.273 1.273-1.273M208.418 234.293v-1.34c0-.738-.606-1.34-1.34-1.34h-29.45c-.737 0-1.335.602-1.335 1.34v1.34a.663.663 0 0 0-.402.133l-2.278 1.71v-4.523a.656.656 0 0 0-.113-.367l-1.34-2.012a.673.673 0 0 0-.555-.297h-4.683v1.34h2.676v2.676h-1.336v1.34h1.336v1.336h-1.336a1.34 1.34 0 0 0-1.34 1.34v4.015c0 .739.598 1.34 1.34 1.34h1.336v1.336h-1.336V245h1.336v1.34h-1.336v1.336h1.336v1.34h-1.336c-.742 0-1.34.597-1.34 1.34v4.015c0 .738.598 1.336 1.34 1.336h1.336v1.34h-1.336v1.34h1.336v2.008c0 .367.297.668.668.668h1.34c.222 0 .43-.11.554-.297l1.34-2.012a.656.656 0 0 0 .113-.367v-4.633l2.258 1.809c.117.093.27.144.422.144h1.336v1.34h-1.336v1.34h2.004a.674.674 0 0 0 .672-.668v-2.012h2.676v1.34c0 .738.601 1.34 1.34 1.34h1.34c.734 0 1.335-.602 1.335-1.34v-1.34H187v1.34c0 .738.598 1.34 1.34 1.34h10.707c.734 0 1.34-.602 1.34-1.34v-1.34h2.675v1.34c0 .176.067.348.192.473l.672.668c.125.128.293.199.476.199h2.676v-1.34h-2.402l-.274-.277v-1.063h4.016c.734 0 1.336-.598 1.336-1.336V235.63c0-.738-.602-1.336-1.336-1.336m-30.79-1.34h29.45v1.34h-29.45v-1.34m-9.366 8.031v-4.015h1.336v4.015h-1.336m0 13.387v-4.016h1.336v4.016h-1.336m4.015 3.813-1.027 1.539h-.313v-29.446h.313l1.027 1.54v26.367m12.047-1.137h-1.34v-1.34h1.34v1.34m13.383-2.676v1.336h1.34v1.34H188.34v-1.34h8.031v-1.336h-19.844l-2.914-2.328v-14.234l2.903-2.18h31.902v4.687h-9.82l-2.5-1.875a.66.66 0 0 0-.399-.132h-4.683v1.336h4.457l2.5 1.875c.117.09.257.136.402.136h10.043v1.34h-6.695v1.336h6.695v1.34h-6.695v1.34h6.695v1.336h-10.711c-.18 0-.348.07-.473.195l-1.812 1.812h-4.406v1.336h4.683a.655.655 0 0 0 .473-.195l1.812-1.809h10.434v4.684h-10.711"/><path style="stroke:none;fill-rule:nonzero;fill:#000;fill-opacity:1" d="M190.848 246.613c.047-.222.078-.453.109-.68 0-.042.012-.078.016-.12a7.907 7.907 0 0 0 0-1.625c-.004-.043-.016-.079-.02-.114a7.652 7.652 0 0 0-.105-.687c0-.008 0-.012-.004-.016a7.948 7.948 0 0 0-2.184-4.047 7.97 7.97 0 0 0-4.047-2.187h-.015a6.469 6.469 0 0 0-.688-.11c-.035-.007-.078-.011-.113-.015a7.907 7.907 0 0 0-1.625 0c-.043.004-.078.015-.121.015-.227.032-.457.063-.68.11h-.023a7.986 7.986 0 0 0-4.047 2.187 7.958 7.958 0 0 0-2.18 4.047c0 .004-.008.008-.008.016a6.47 6.47 0 0 0-.101.687 7.077 7.077 0 0 0-.059.926c0 .277.012.547.043.813 0 .042.008.078.016.12.023.227.054.458.101.68.008.008.008.012.008.024a8.032 8.032 0 0 0 2.18 4.047 8.032 8.032 0 0 0 4.047 2.18c.007 0 .015 0 .023.007.223.047.453.078.68.102.043.007.078.015.12.015a7.907 7.907 0 0 0 1.626 0 .882.882 0 0 0 .113-.015 6.47 6.47 0 0 0 .688-.102c.007-.008.011-.008.015-.008a7.97 7.97 0 0 0 4.047-2.187 7.955 7.955 0 0 0 2.188-4.047v-.016m-1.352-.097c-.023.09-.043.175-.07.265a6.064 6.064 0 0 1-.203.621c-.032.07-.051.145-.082.22a6.519 6.519 0 0 1-.344.679c-.05.094-.11.183-.168.277a6.914 6.914 0 0 1-.367.52c-.04.047-.063.093-.102.136l-2.383-2.386c.102-.164.192-.336.27-.516.004-.008.016-.02.02-.031.085-.203.152-.414.195-.63h3.379v.013a6.74 6.74 0 0 1-.145.832m-2.937 4.136-.274.164a6.831 6.831 0 0 1-.676.34 2.711 2.711 0 0 1-.23.082 6.297 6.297 0 0 1-.613.211c-.09.02-.176.047-.27.067a7.176 7.176 0 0 1-.836.144h-.008v-3.379a3.465 3.465 0 0 0 .664-.215c.18-.078.352-.164.512-.273l2.387 2.383c-.043.039-.09.07-.133.101a8.015 8.015 0 0 1-.523.375m-4.258 1.008a7.563 7.563 0 0 1-.832-.144c-.09-.02-.176-.047-.266-.067a6.446 6.446 0 0 1-.621-.21 3.138 3.138 0 0 1-.223-.083 6.07 6.07 0 0 1-.675-.34c-.094-.054-.184-.113-.278-.164a11.717 11.717 0 0 1-.527-.37c-.04-.036-.086-.067-.129-.098l2.387-2.391c.16.11.336.195.515.273a2.946 2.946 0 0 0 .66.215v3.38h-.011m-5.473-4.036c-.031-.074-.058-.152-.09-.223-.07-.203-.144-.414-.203-.62-.02-.09-.047-.177-.066-.266a7.563 7.563 0 0 1-.145-.832v-.012h3.38a3.268 3.268 0 0 0 .214.66c.078.18.164.352.273.516l-2.39 2.386c-.031-.043-.063-.09-.098-.136a8.315 8.315 0 0 1-.371-.52c-.055-.094-.11-.183-.164-.277a6.07 6.07 0 0 1-.34-.676m-.36-4.137c.02-.093.048-.18.067-.27.059-.206.133-.417.211-.613.024-.078.05-.152.082-.23.098-.23.215-.453.34-.676.055-.09.113-.183.164-.273.117-.18.242-.352.371-.524.035-.043.067-.09.098-.132l2.39 2.386c-.109.16-.195.332-.273.512a2.946 2.946 0 0 0-.215.664h-3.379v-.008c.031-.289.082-.562.145-.836m2.937-4.133c.094-.058.184-.117.278-.167.218-.125.441-.247.675-.344.075-.031.153-.059.223-.082.203-.078.406-.149.621-.203.09-.028.176-.055.266-.075.277-.062.55-.113.832-.14h.012v3.379c-.215.043-.426.109-.63.195-.011.004-.023.016-.03.02-.18.074-.352.16-.516.269l-2.387-2.383c.043-.039.09-.07.137-.101.164-.133.343-.254.52-.368m4.253-1.011c.29.027.563.078.836.14.094.02.18.047.27.075.207.054.418.125.613.203.078.023.152.05.23.082a6.87 6.87 0 0 1 .95.511c.18.114.351.235.523.368.043.03.09.062.133.101l-2.387 2.383a3.059 3.059 0 0 0-.512-.273 3.174 3.174 0 0 0-.664-.21v-3.38h.008m5.48 4.035c.032.074.051.148.083.219.078.203.148.414.203.62.027.09.047.177.07.266.063.278.117.551.145.84v.008h-3.38a3.174 3.174 0 0 0-.195-.629c-.004-.016-.015-.027-.02-.035a3.742 3.742 0 0 0-.269-.512l2.383-2.386c.04.042.063.09.102.132a7.89 7.89 0 0 1 .535.797c.125.223.246.446.344.68m-5.38 4.469a1.904 1.904 0 0 1-.308.101c-.02.004-.047.016-.066.02a1.953 1.953 0 0 1-.805 0c-.023-.004-.047-.016-.07-.02a2.039 2.039 0 0 1-.309-.101c-.012 0-.016-.008-.027-.008a2.042 2.042 0 0 1-1.031-1.031c0-.012-.008-.016-.008-.028a2.039 2.039 0 0 1-.102-.308c-.004-.024-.015-.047-.02-.07a1.982 1.982 0 0 1-.042-.403c0-.137.015-.27.043-.402.004-.024.015-.047.02-.067a1.95 1.95 0 0 1 .1-.312c0-.012.009-.02.016-.028a1.976 1.976 0 0 1 1.051-1.039c.098-.043.203-.074.309-.093a.262.262 0 0 1 .07-.028c.133-.027.262-.035.402-.035.137 0 .27.008.403.035a.24.24 0 0 1 .066.028c.11.02.215.05.309.093.015.004.023.016.035.02.453.2.816.562 1.016 1.016.003.011.015.019.019.035.043.093.07.199.094.308a.24.24 0 0 1 .027.067c.027.132.035.265.035.402s-.008.27-.039.402l-.023.07c-.024.106-.051.212-.094.31-.004.011-.016.019-.016.03a1.976 1.976 0 0 1-1.023 1.02c-.012.008-.016.016-.031.016M196.637 244.2a.66.66 0 0 0 .398.132h3.352v-1.336h-3.125l-2.5-1.875a.659.659 0 0 0-.403-.137h-3.343v1.34h3.12l2.5 1.875M196.637 245.8l-2.5 1.876h-3.121v1.34h3.343a.659.659 0 0 0 .403-.137l2.5-1.867h3.125v-1.34h-3.352a.683.683 0 0 0-.398.129M192.355 244.332h2.676v1.34h-2.676v-1.34M205.738 236.969h1.34v1.34h-1.34v-1.34M205.738 251.691h1.34v1.34h-1.34v-1.34M154.16 234.293v-1.34c0-.738-.597-1.34-1.336-1.34h-29.449c-.738 0-1.34.602-1.34 1.34v1.34a.66.66 0 0 0-.398.133l-2.278 1.71v-4.523a.688.688 0 0 0-.113-.367l-1.34-2.012a.675.675 0 0 0-.558-.297h-4.68v1.34h2.676v2.676h-1.34v1.34h1.34v1.336h-1.34c-.738 0-1.336.601-1.336 1.34v4.015c0 .739.598 1.34 1.336 1.34h1.34v1.336h-1.34V245h1.34v1.34h-1.34v1.336h1.34v1.34h-1.34c-.738 0-1.336.597-1.336 1.34v4.015c0 .738.598 1.336 1.336 1.336h1.34v1.34h-1.34v1.34h1.34v2.008c0 .367.3.668.668.668h1.336c.226 0 .433-.11.558-.297l1.34-2.012a.688.688 0 0 0 .113-.367v-4.633l2.262 1.809a.667.667 0 0 0 .414.144h1.34v1.34h-1.34v1.34h2.008a.676.676 0 0 0 .672-.668v-2.012h2.676v1.34c0 .738.597 1.34 1.34 1.34h1.335a1.34 1.34 0 0 0 1.34-1.34v-1.34h1.34v1.34c0 .738.598 1.34 1.336 1.34h10.711c.738 0 1.336-.602 1.336-1.34v-1.34h2.68v1.34c0 .176.066.348.191.473l.672.668a.66.66 0 0 0 .473.199h2.68v-1.34h-2.403l-.277-.277v-1.063h4.015c.742 0 1.34-.598 1.34-1.336V235.63c0-.738-.598-1.336-1.34-1.336m-30.785-1.34h29.45v1.34h-29.45v-1.34m-9.371 8.031v-4.015h1.34v4.015h-1.34m0 13.387v-4.016h1.34v4.016h-1.34m4.016 3.813-1.024 1.539h-.312v-29.446h.312l1.024 1.54v26.367m12.046-1.137h-1.336v-1.34h1.336v1.34m13.387-2.676v1.336h1.34v1.34h-10.711v-1.34h8.031v-1.336H122.27l-2.91-2.328v-14.234l2.902-2.18h31.898v4.687h-9.816l-2.5-1.875a.663.663 0 0 0-.403-.132h-4.68v1.336h4.462l2.496 1.875c.12.09.254.136.402.136h10.04v1.34h-6.692v1.336h6.691v1.34h-6.691v1.34h6.691v1.336h-10.707a.671.671 0 0 0-.473.195l-1.812 1.812h-4.406v1.336h4.68a.651.651 0 0 0 .476-.195l1.812-1.809h10.43v4.684h-10.707"/><path style="stroke:none;fill-rule:nonzero;fill:#000;fill-opacity:1" d="M136.598 246.613c.043-.222.078-.453.105-.68.004-.042.012-.078.016-.12a7.907 7.907 0 0 0 0-1.625c-.004-.043-.016-.079-.016-.114a9.355 9.355 0 0 0-.11-.687v-.016a7.955 7.955 0 0 0-2.187-4.047 7.955 7.955 0 0 0-4.047-2.187h-.015a6.469 6.469 0 0 0-.688-.11c-.035-.007-.074-.011-.113-.015a7.907 7.907 0 0 0-1.625 0c-.043.004-.078.015-.121.015a9.96 9.96 0 0 0-.684.11h-.015a7.955 7.955 0 0 0-4.047 2.187 7.97 7.97 0 0 0-2.188 4.047c0 .004 0 .008-.004.016a7.652 7.652 0 0 0-.105.687c-.004.035-.008.07-.016.113-.023.27-.039.543-.039.813 0 .277.016.547.04.813a9.835 9.835 0 0 0 .125.824 7.986 7.986 0 0 0 2.187 4.047 8.016 8.016 0 0 0 4.047 2.18c.007 0 .011 0 .015.007.227.047.453.078.684.102.043.007.078.015.121.015a7.907 7.907 0 0 0 1.625 0c.039-.004.078-.008.117-.015.23-.024.461-.055.684-.102.004-.008.011-.008.015-.008a7.955 7.955 0 0 0 4.047-2.187 7.955 7.955 0 0 0 2.188-4.047c0-.004 0-.008.004-.016m-1.36-.097a7.2 7.2 0 0 1-.27.887c-.027.07-.05.144-.081.218a6.52 6.52 0 0 1-.512.957 5.254 5.254 0 0 1-.371.52c-.031.047-.063.093-.098.136l-2.386-2.386c.109-.164.199-.336.273-.516.004-.008.016-.02.02-.031.082-.203.152-.414.199-.63h3.375v.013a5.547 5.547 0 0 1-.149.832m-2.937 4.136a6.832 6.832 0 0 1-.945.504 2.636 2.636 0 0 1-.227.082c-.203.078-.41.153-.617.211-.09.02-.18.047-.266.067a7.542 7.542 0 0 1-.84.144h-.011v-3.379a3.41 3.41 0 0 0 .667-.215c.176-.078.348-.164.512-.273l2.39 2.383c-.046.039-.093.07-.136.101a6.41 6.41 0 0 1-.527.375m-4.254 1.008a7.406 7.406 0 0 1-.832-.144c-.09-.02-.18-.047-.266-.067a6.831 6.831 0 0 1-.62-.21 2.163 2.163 0 0 1-.224-.083 6.127 6.127 0 0 1-.68-.34c-.093-.054-.179-.113-.273-.164a8.403 8.403 0 0 1-.523-.37c-.047-.036-.094-.067-.133-.098l2.383-2.391c.168.11.34.195.516.273.011.008.023.012.03.016.204.09.419.156.634.2v3.378h-.012m-5.473-4.035c-.031-.074-.058-.152-.086-.223a7.2 7.2 0 0 1-.203-.62c-.023-.09-.05-.177-.07-.266a7.577 7.577 0 0 1-.149-.832v-.012h3.383c.047.215.114.426.196.629.007.012.011.023.015.031.078.18.168.352.278.516l-2.387 2.386c-.035-.043-.067-.09-.098-.136-.137-.164-.254-.344-.371-.52-.055-.094-.113-.183-.164-.277a6.097 6.097 0 0 1-.344-.676m-.36-4.137c.02-.093.048-.18.071-.27.059-.206.125-.417.203-.613.028-.078.055-.152.086-.23a6.87 6.87 0 0 1 .344-.676c.05-.09.11-.183.164-.273.117-.18.234-.352.371-.524.031-.043.063-.09.098-.132l2.386 2.386c-.109.16-.199.332-.277.512l-.015.035a3.79 3.79 0 0 0-.196.629h-3.383c0-.004 0-.008.008-.008.024-.289.078-.562.14-.836m2.938-4.133c.094-.058.18-.117.274-.167.219-.125.445-.247.68-.344.07-.031.148-.059.222-.082.203-.078.41-.149.621-.203.086-.028.176-.055.266-.075.273-.062.55-.113.832-.14h.012v3.379c-.215.043-.43.109-.633.195-.008.004-.02.016-.031.02-.176.074-.348.16-.508.269l-2.39-2.383c.046-.039.085-.07.132-.101.168-.133.344-.254.523-.368m4.254-1.011c.285.027.563.078.84.14.086.02.176.047.266.075.207.054.414.125.617.203.074.023.152.05.226.082.227.097.458.219.676.344.094.05.184.109.27.167.183.114.36.235.527.368.047.03.09.062.137.101l-2.39 2.383a3.398 3.398 0 0 0-.512-.273 3.247 3.247 0 0 0-.668-.21v-3.38h.011m5.48 4.035c.032.074.055.148.083.219a7.2 7.2 0 0 1 .27.886c.07.278.12.551.148.84v.008h-3.375a3.801 3.801 0 0 0-.2-.629c-.003-.016-.015-.027-.019-.035a2.798 2.798 0 0 0-.273-.512l2.386-2.386c.035.042.067.09.098.132.137.172.258.344.371.524.059.09.113.183.168.273.129.223.242.446.344.68m-5.375 4.469a2.087 2.087 0 0 1-.313.101c-.023.004-.047.016-.07.02a1.944 1.944 0 0 1-.399.043c-.136 0-.273-.016-.402-.043-.027-.004-.047-.016-.074-.02a2.144 2.144 0 0 1-.305-.101c-.011 0-.015-.008-.027-.008a2.02 2.02 0 0 1-1.027-1.031c-.004-.012-.008-.016-.016-.028a2.584 2.584 0 0 1-.098-.308c-.004-.024-.015-.047-.02-.07a1.982 1.982 0 0 1-.042-.403c0-.137.015-.27.043-.402.004-.024.015-.047.02-.067.027-.11.058-.215.097-.312a.224.224 0 0 0 .016-.028c.203-.457.57-.82 1.023-1.023.008-.008.02-.012.031-.016.098-.043.203-.074.305-.093.027-.012.047-.024.074-.028.129-.027.266-.035.402-.035.133 0 .27.008.399.035.027.004.047.016.074.028.106.02.207.05.309.093.008.004.02.016.031.02.453.2.816.562 1.02 1.016.003.011.011.019.015.035.043.093.074.199.098.308.008.02.015.047.023.067a2.3 2.3 0 0 1 0 .804c-.008.024-.023.047-.027.07-.027.106-.05.212-.094.31-.004.011-.012.019-.016.03a1.97 1.97 0 0 1-1.027 1.02c-.008.008-.015.016-.023.016M142.379 244.2a.69.69 0 0 0 .402.132h3.348v-1.336h-3.125l-2.5-1.875a.64.64 0 0 0-.399-.137h-3.343v1.34h3.125l2.492 1.875M142.379 245.8l-2.492 1.876h-3.125v1.34h3.343a.64.64 0 0 0 .399-.137l2.5-1.867h3.125v-1.34h-3.348a.714.714 0 0 0-.402.129M138.098 244.332h2.68v1.34h-2.68v-1.34M151.484 236.969h1.34v1.34h-1.34v-1.34M151.484 251.691h1.34v1.34h-1.34v-1.34M316.922 234.293v-1.34a1.34 1.34 0 0 0-1.34-1.34h-29.445c-.735 0-1.34.602-1.34 1.34v1.34a.698.698 0 0 0-.402.133l-2.274 1.71v-4.523a.684.684 0 0 0-.11-.367l-1.34-2.012a.675.675 0 0 0-.558-.297h-4.687v1.34h2.68v2.676h-1.34v1.34h1.34v1.336h-1.34c-.735 0-1.34.601-1.34 1.34v4.015c0 .739.605 1.34 1.34 1.34h1.34v1.336h-1.34V245h1.34v1.34h-1.34v1.336h1.34v1.34h-1.34c-.735 0-1.34.597-1.34 1.34v4.015c0 .738.605 1.336 1.34 1.336h1.34v1.34h-1.34v1.34h1.34v2.008c0 .367.3.668.671.668h1.336c.227 0 .434-.11.559-.297l1.34-2.012c.07-.11.11-.238.11-.367v-4.633l2.257 1.809a.678.678 0 0 0 .418.144h1.34v1.34h-1.34v1.34h2.012a.67.67 0 0 0 .664-.668v-2.012h2.68v1.34c0 .738.6 1.34 1.335 1.34h1.34c.738 0 1.34-.602 1.34-1.34v-1.34h1.336v1.34c0 .738.605 1.34 1.34 1.34h10.707a1.34 1.34 0 0 0 1.34-1.34v-1.34h2.675v1.34c0 .176.075.348.2.473l.668.668a.66.66 0 0 0 .472.199h2.676v-1.34h-2.398l-.278-.277v-1.063h4.016c.738 0 1.34-.598 1.34-1.336V235.63c0-.738-.602-1.336-1.34-1.336m-30.785-1.34h29.445v1.34h-29.445v-1.34m-9.371 8.031v-4.015h1.34v4.015h-1.34m0 13.387v-4.016h1.34v4.016h-1.34m4.015 3.813-1.027 1.539h-.313v-29.446h.313l1.027 1.54v26.367m12.047-1.137h-1.34v-1.34h1.34v1.34m13.387-2.676v1.336h1.336v1.34h-10.707v-1.34h8.031v-1.336h-19.844l-2.91-2.328v-14.234l2.899-2.18h31.902v4.687h-9.813l-2.5-1.875a.663.663 0 0 0-.402-.132h-4.687v1.336h4.464l2.5 1.875c.114.09.254.136.403.136h10.035v1.34h-6.692v1.336h6.692v1.34h-6.692v1.34h6.692v1.336h-10.707c-.18 0-.352.07-.477.195l-1.804 1.812h-4.414v1.336h4.687c.18 0 .352-.066.477-.195l1.804-1.809h10.434v4.684h-10.707"/><path style="stroke:none;fill-rule:nonzero;fill:#000;fill-opacity:1" d="M299.36 246.613c.046-.222.077-.453.105-.68.004-.042.015-.078.015-.12.032-.266.04-.536.04-.813 0-.27-.008-.543-.04-.813 0-.042-.011-.078-.015-.113a7.652 7.652 0 0 0-.106-.687c0-.008-.004-.012-.004-.016a7.948 7.948 0 0 0-2.183-4.047 7.986 7.986 0 0 0-4.047-2.187h-.02a6.728 6.728 0 0 0-.683-.11 7.907 7.907 0 0 0-1.746-.016c-.035.005-.078.016-.113.016-.231.032-.465.063-.688.11h-.016a7.986 7.986 0 0 0-4.046 2.187 7.97 7.97 0 0 0-2.188 4.047v.016a7.652 7.652 0 0 0-.105.687c-.004.035-.016.07-.02.113a7.907 7.907 0 0 0 0 1.625c.004.043.016.079.02.122a7.929 7.929 0 0 0 2.293 4.75 8.032 8.032 0 0 0 4.046 2.18c.004 0 .012 0 .016.007.23.047.457.078.688.102a.565.565 0 0 0 .113.015c.273.028.543.043.812.043.278 0 .547-.015.82-.043.036-.004.07-.008.114-.015.23-.024.457-.055.687-.102.004-.008.012-.008.016-.008a7.986 7.986 0 0 0 4.047-2.187 7.948 7.948 0 0 0 2.183-4.047c0-.004.004-.008.004-.016m-1.355-.097c-.02.09-.047.175-.067.265a7.233 7.233 0 0 1-.207.621c-.027.07-.046.145-.078.22a7.385 7.385 0 0 1-.511.956 5.988 5.988 0 0 1-.371.52c-.036.047-.067.093-.098.136l-2.39-2.386c.109-.164.198-.336.277-.516.003-.008.007-.02.015-.031.086-.203.156-.414.196-.63h3.382v.013a7.577 7.577 0 0 1-.148.832m-2.938 4.136a8.43 8.43 0 0 1-.273.164 6.127 6.127 0 0 1-.68.34c-.07.031-.148.059-.222.082a6.446 6.446 0 0 1-.621.211c-.086.02-.176.047-.266.067-.274.062-.55.113-.832.144h-.012v-3.379c.215-.047.43-.113.633-.199.008-.004.02-.008.031-.016.176-.078.352-.164.516-.273l2.383 2.383c-.04.039-.086.07-.13.101a8.09 8.09 0 0 1-.527.375m-4.253 1.008a7.255 7.255 0 0 1-.833-.144c-.093-.02-.183-.047-.273-.067a6.677 6.677 0 0 1-.613-.21 1.872 1.872 0 0 1-.223-.083 6.546 6.546 0 0 1-.683-.34c-.09-.054-.184-.113-.27-.164a8.492 8.492 0 0 1-.527-.37c-.043-.036-.09-.067-.13-.098l2.384-2.391c.164.11.335.195.511.273.016.008.02.012.035.016.204.09.414.156.633.2v3.378h-.012m-5.48-4.035c-.031-.074-.05-.152-.082-.223a7.2 7.2 0 0 1-.418-1.718v-.012h3.383c.039.215.11.426.191.629.004.012.016.023.02.031.078.18.168.352.273.516l-2.387 2.386c-.035-.043-.062-.09-.097-.136a5.988 5.988 0 0 1-.54-.797 7.828 7.828 0 0 1-.343-.676m-.352-4.137a6.264 6.264 0 0 1 .27-.883c.031-.078.05-.152.09-.23.098-.23.21-.453.336-.676a6.714 6.714 0 0 1 .54-.797c.034-.043.061-.09.096-.132l2.387 2.386c-.105.16-.195.332-.273.512-.004.008-.016.02-.02.035-.082.203-.152.41-.191.629h-3.383v-.008a6.44 6.44 0 0 1 .148-.836m2.938-4.133a6.578 6.578 0 0 1 .953-.512c.07-.03.145-.058.223-.081.199-.078.406-.149.613-.203.09-.028.18-.055.273-.075.27-.062.551-.113.832-.14h.012v3.379a3.21 3.21 0 0 0-.633.195c-.015.004-.02.016-.035.02-.176.074-.347.16-.511.269l-2.383-2.383c.039-.039.086-.07.129-.101.171-.133.343-.254.527-.368m4.254-1.011c.281.027.558.078.832.14.09.02.18.047.266.075.214.054.418.125.62.203.075.023.153.05.223.082.235.097.461.219.68.344.094.05.187.109.273.167.18.114.356.235.528.368.043.03.09.062.129.101l-2.383 2.383a3.437 3.437 0 0 0-.516-.273c-.012-.008-.023-.012-.031-.016a3.293 3.293 0 0 0-.633-.195v-3.38h.012m5.48 4.036c.032.074.051.148.078.219.079.203.149.414.207.62.02.09.047.177.067.266.062.278.117.551.148.84v.008h-3.382a3.455 3.455 0 0 0-.196-.629c-.008-.016-.012-.027-.015-.035a3.077 3.077 0 0 0-.278-.512l2.39-2.386c.032.042.063.09.099.132.132.172.257.344.37.524.06.09.11.183.169.273.125.223.242.446.343.68m-5.382 4.469a2.144 2.144 0 0 1-.305.101c-.027.004-.047.016-.074.02a1.924 1.924 0 0 1-.801 0c-.027-.004-.047-.016-.07-.02a1.742 1.742 0 0 1-.305-.101c-.012 0-.024-.008-.031-.008a2.02 2.02 0 0 1-1.028-1.031c-.004-.012-.011-.016-.015-.028-.043-.097-.067-.203-.094-.308-.004-.024-.016-.047-.02-.07a1.982 1.982 0 0 1-.043-.403c0-.137.016-.27.043-.402.004-.024.016-.047.02-.067.027-.11.05-.215.094-.312.004-.012.011-.02.015-.028a2.02 2.02 0 0 1 1.059-1.039c.094-.043.195-.074.3-.093.028-.012.051-.024.075-.028.129-.027.265-.035.398-.035.14 0 .274.008.403.035.027.004.046.016.074.028.101.02.207.05.305.093.011.004.023.016.039.02.445.2.812.562 1.015 1.016.004.011.016.019.02.035.043.093.066.199.094.308.003.02.015.047.019.067.027.132.043.265.043.402s-.016.27-.043.402c-.004.024-.016.047-.02.07a3.56 3.56 0 0 1-.093.31c-.004.011-.016.019-.02.03a1.99 1.99 0 0 1-1.023 1.02c-.008.008-.02.016-.031.016M305.145 244.2a.68.68 0 0 0 .402.132h3.344v-1.336h-3.121l-2.5-1.875a.64.64 0 0 0-.399-.137h-3.351v1.34h3.125l2.5 1.875M305.145 245.8l-2.5 1.876h-3.125v1.34h3.351a.64.64 0 0 0 .399-.137l2.5-1.867h3.12v-1.34h-3.343a.704.704 0 0 0-.402.129M300.86 244.332h2.675v1.34h-2.676v-1.34M314.246 236.969h1.336v1.34h-1.336v-1.34M314.246 251.691h1.336v1.34h-1.336v-1.34M262.668 235.004v-1.336c0-.734-.602-1.34-1.34-1.34h-29.441c-.742 0-1.34.606-1.34 1.34v1.336a.678.678 0 0 0-.406.137l-2.27 1.707v-4.52a.673.673 0 0 0-.117-.371l-1.336-2.008a.68.68 0 0 0-.559-.297h-4.683v1.336h2.68v2.68h-1.34v1.336h1.34v1.34h-1.34c-.739 0-1.34.605-1.34 1.34v4.015c0 .738.601 1.336 1.34 1.336h1.34v1.34h-1.34v1.34h1.34v1.336h-1.34v1.34h1.34v1.34h-1.34c-.739 0-1.34.597-1.34 1.335v4.016c0 .742.601 1.34 1.34 1.34h1.34v1.34h-1.34v1.336h1.34v2.011c0 .371.296.668.664.668h1.34a.67.67 0 0 0 .558-.297l1.336-2.011a.663.663 0 0 0 .117-.371v-4.63l2.254 1.81a.681.681 0 0 0 .422.144h1.34v1.34h-1.34v1.336h2.004a.668.668 0 0 0 .672-.664v-2.012h2.68v1.34c0 .738.597 1.336 1.335 1.336h1.34c.734 0 1.34-.598 1.34-1.336v-1.34h1.336v1.34c0 .738.601 1.336 1.34 1.336h10.703c.738 0 1.34-.598 1.34-1.336v-1.34h2.675v1.34c0 .175.075.347.2.472l.672.668a.64.64 0 0 0 .468.196h2.676v-1.336h-2.394l-.282-.278v-1.062h4.016c.738 0 1.336-.598 1.336-1.34v-18.738c0-.735-.598-1.34-1.336-1.34m-30.781-1.336h29.441v1.336h-29.441v-1.336m-9.371 8.031v-4.015h1.34v4.015h-1.34m0 13.383v-4.016h1.34v4.016h-1.34m4.015 3.813-1.031 1.543h-.309v-29.45h.309l1.031 1.543v26.364m12.047-1.133h-1.34v-1.34h1.34v1.34m13.379-2.68v1.34h1.34v1.34h-10.703v-1.34h8.027v-1.34h-19.84l-2.91-2.328V238.52l2.895-2.176h31.902v4.687h-9.813l-2.5-1.875a.659.659 0 0 0-.402-.136h-4.683v1.34h4.46l2.5 1.874a.64.64 0 0 0 .399.137h10.039v1.336h-6.695v1.34h6.695v1.34h-6.695v1.336h6.695v1.34h-10.711a.659.659 0 0 0-.469.19l-1.812 1.813h-4.406v1.34h4.683a.668.668 0 0 0 .473-.191l1.812-1.813h10.43v4.68h-10.711"/><path style="stroke:none;fill-rule:nonzero;fill:#000;fill-opacity:1" d="M245.105 247.328c.047-.223.079-.453.102-.683l.023-.118c.024-.265.04-.539.04-.812 0-.274-.016-.543-.04-.813-.007-.043-.015-.078-.023-.117a6.622 6.622 0 0 0-.102-.687c0-.004 0-.008-.007-.016a7.958 7.958 0 0 0-2.18-4.047 7.986 7.986 0 0 0-4.047-2.187h-.016c-.23-.047-.46-.078-.687-.11a.603.603 0 0 1-.117-.015c-.27-.024-.54-.04-.813-.04-.273 0-.547.016-.816.04l-.113.023a6.78 6.78 0 0 0-.688.102h-.016a7.97 7.97 0 0 0-4.046 2.187 7.98 7.98 0 0 0-2.184 4.047c-.004.008-.004.012-.004.016a7.874 7.874 0 0 0-.105.687c-.004.04-.016.078-.02.117a8.025 8.025 0 0 0 .004 1.625c0 .04.012.078.016.118.027.23.058.46.105.683 0 .004.004.012.004.02a7.964 7.964 0 0 0 2.184 4.047 7.964 7.964 0 0 0 4.046 2.183c.004 0 .008.004.016.004.227.047.457.078.688.106.039.003.078.015.113.015.27.027.543.043.816.043.274 0 .543-.016.813-.043.039-.004.078-.012.117-.016a8.62 8.62 0 0 0 .687-.105c.004-.004.008-.004.016-.004a7.986 7.986 0 0 0 4.047-2.187 7.927 7.927 0 0 0 2.18-4.047c.007-.004.007-.012.007-.016m-1.355-.098c-.02.086-.043.176-.066.266a7.12 7.12 0 0 1-.204.617c-.03.075-.054.149-.085.219-.098.234-.22.461-.344.684-.051.093-.11.183-.164.277a9.656 9.656 0 0 1-.371.52c-.036.046-.063.093-.098.136l-2.387-2.387c.106-.167.192-.34.27-.515l.023-.031c.082-.203.149-.418.192-.63h3.379v.009a7.632 7.632 0 0 1-.145.835m-2.938 4.133c-.09.059-.183.11-.277.168a6.827 6.827 0 0 1-.676.34c-.074.031-.144.055-.222.082a5.722 5.722 0 0 1-.617.207l-.27.07c-.27.063-.55.114-.832.145h-.012v-3.379c.219-.047.426-.117.63-.2l.038-.015c.176-.078.348-.168.508-.277l2.387 2.387c-.043.035-.09.066-.13.105a7.055 7.055 0 0 1-.526.367m-4.254 1.012a7.632 7.632 0 0 1-.836-.145l-.27-.07a5.958 5.958 0 0 1-.613-.207c-.074-.027-.153-.05-.227-.082a6.827 6.827 0 0 1-.675-.34c-.094-.058-.188-.11-.278-.168a7.89 7.89 0 0 1-.523-.367c-.043-.039-.09-.07-.133-.101l2.387-2.391c.16.11.332.2.511.277.016.004.024.012.036.016.203.09.41.156.628.2v3.378h-.007m-5.477-4.035c-.031-.074-.055-.153-.086-.227a5.997 5.997 0 0 1-.203-.617c-.027-.09-.047-.18-.07-.266a6.801 6.801 0 0 1-.145-.835v-.008h3.379c.043.21.11.425.2.629 0 .011.011.02.015.03.078.177.168.349.27.517l-2.383 2.386c-.032-.043-.063-.09-.102-.137a7.816 7.816 0 0 1-.367-.519c-.059-.094-.117-.184-.168-.277a6.827 6.827 0 0 1-.34-.676m-.36-4.137c.024-.094.044-.183.071-.27.055-.21.129-.417.203-.617.031-.078.055-.148.086-.222.102-.235.215-.457.34-.684.05-.086.11-.18.168-.27.113-.183.238-.355.367-.527.04-.039.07-.086.102-.129l2.382 2.387c-.101.16-.191.332-.27.508-.003.016-.01.023-.015.039-.09.203-.156.41-.199.629h-3.379v-.012a7.11 7.11 0 0 1 .145-.832m2.937-4.137c.09-.054.184-.113.278-.164.218-.125.44-.246.675-.343.075-.032.153-.059.227-.086.203-.078.406-.145.613-.203.094-.024.184-.047.27-.067.277-.066.554-.121.836-.144h.007v3.379c-.218.042-.425.109-.629.19-.011.009-.019.017-.03.024-.177.07-.356.16-.516.27l-2.387-2.387c.043-.035.09-.066.133-.097.172-.137.347-.254.523-.372m4.258-1.007c.281.023.562.078.832.144a6.707 6.707 0 0 1 .887.27c.078.027.148.054.222.086.235.097.457.218.676.343.094.051.188.11.278.164.183.118.355.235.527.371.039.032.086.063.129.098l-2.387 2.387c-.16-.11-.332-.2-.508-.27a.344.344 0 0 1-.039-.023 3.444 3.444 0 0 0-.629-.191v-3.38h.012m5.477 4.04c.03.07.054.14.085.214a6.49 6.49 0 0 1 .27.887c.063.274.113.551.145.836v.012h-3.38a3.444 3.444 0 0 0-.19-.629c-.009-.016-.016-.023-.024-.04a3.506 3.506 0 0 0-.27-.507l2.387-2.387c.035.043.062.09.098.13.129.171.254.343.37.527.055.09.114.183.165.27.125.226.246.448.344.687m-5.38 4.464a1.669 1.669 0 0 1-.308.098c-.023.008-.047.016-.066.024-.13.023-.266.039-.403.039a2.31 2.31 0 0 1-.406-.04c-.02-.007-.047-.015-.066-.023a1.767 1.767 0 0 1-.309-.097c-.008 0-.02-.012-.031-.012a2.027 2.027 0 0 1-1.024-1.031c-.007-.008-.011-.016-.015-.024a1.753 1.753 0 0 1-.094-.309c-.008-.027-.016-.046-.023-.074a2.187 2.187 0 0 1-.04-.398c0-.137.016-.274.04-.403a.632.632 0 0 1 .023-.066c.023-.11.05-.215.094-.312.004-.012.015-.016.015-.028a2.02 2.02 0 0 1 1.024-1.027c.012-.004.023-.008.031-.016a2.81 2.81 0 0 1 .309-.093c.02-.004.047-.02.074-.024.125-.027.258-.039.398-.039.137 0 .274.012.403.043.02 0 .047.016.066.02.106.027.211.054.309.093a.136.136 0 0 1 .035.024c.453.195.812.562 1.015 1.015.008.008.016.02.024.036.039.093.066.199.094.308.004.02.015.047.02.066a1.887 1.887 0 0 1 0 .8c-.005.029-.017.048-.02.076a2.81 2.81 0 0 1-.094.308c-.008.008-.016.02-.024.031-.195.457-.566.82-1.02 1.02-.01.004-.019.016-.03.016M250.89 244.91c.114.09.255.137.403.137h3.344v-1.34h-3.121l-2.5-1.875a.663.663 0 0 0-.403-.133h-3.343v1.336h3.12l2.5 1.875M250.89 246.516l-2.5 1.875h-3.12v1.34h3.343c.149 0 .29-.047.403-.137l2.5-1.871h3.12v-1.336h-3.343a.686.686 0 0 0-.402.129M246.605 245.047h2.676v1.34h-2.676v-1.34M259.988 237.684h1.34v1.336h-1.34v-1.336M259.988 252.406h1.34v1.34h-1.34v-1.34M234.738 28.457h-38.55c-1.184 0-2.141.965-2.141 2.148v8.563c0 1.18.957 2.145 2.14 2.145v.714c0 1.18.958 2.141 2.145 2.141h34.266c1.183 0 2.14-.961 2.14-2.14v-.715c1.184 0 2.14-.965 2.14-2.145v-8.563a2.146 2.146 0 0 0-2.14-2.148m-1.425 13.57c0 .391-.325.711-.715.711h-34.266a.711.711 0 0 1-.71-.71v-.715h35.69v.714m2.141-2.859a.71.71 0 0 1-.715.71h-38.55a.714.714 0 0 1-.715-.71v-8.563c0-.398.324-.714.714-.714h38.551a.71.71 0 0 1 .715.714v8.563"/><path style="stroke:none;fill-rule:nonzero;fill:#000;fill-opacity:1" d="M202.613 32.746c0-.793-.64-1.43-1.425-1.43h-1.426c-.793 0-1.43.637-1.43 1.43-.789 0-1.43.64-1.43 1.426v2.855c0 .79.641 1.426 1.43 1.426h4.281c.79 0 1.43-.637 1.43-1.426v-2.855a1.43 1.43 0 0 0-1.43-1.426m0 4.281h-4.281v-2.855h.715c.39 0 .715-.317.715-.715v-.71h1.425v.71a.71.71 0 0 0 .715.715h.711v2.855M212.61 32.746c0-.793-.641-1.43-1.426-1.43h-1.43c-.79 0-1.43.637-1.43 1.43-.789 0-1.43.64-1.43 1.426v2.855c0 .79.641 1.426 1.43 1.426h4.285c.786 0 1.426-.637 1.426-1.426v-2.855c0-.785-.64-1.426-1.426-1.426m0 4.281h-4.285v-2.855h.719c.39 0 .71-.317.71-.715v-.71h1.43v.71a.71.71 0 0 0 .712.715h.714v2.855M222.605 32.746c0-.793-.64-1.43-1.43-1.43h-1.429c-.789 0-1.43.637-1.43 1.43-.785 0-1.425.64-1.425 1.426v2.855c0 .79.64 1.426 1.425 1.426h4.29c.785 0 1.425-.637 1.425-1.426v-2.855c0-.785-.64-1.426-1.426-1.426m0 4.281h-4.289v-2.855h.715a.713.713 0 0 0 .715-.715v-.71h1.43v.71c0 .398.32.715.715.715h.714v2.855M232.598 32.746c0-.793-.641-1.43-1.43-1.43h-1.43c-.785 0-1.425.637-1.425 1.43-.786 0-1.426.64-1.426 1.426v2.855c0 .79.64 1.426 1.425 1.426h4.286c.789 0 1.43-.637 1.43-1.426v-2.855a1.43 1.43 0 0 0-1.43-1.426m0 4.281h-4.286v-2.855h.715a.71.71 0 0 0 .711-.715v-.71h1.43v.71c0 .398.32.715.719.715h.71v2.855M215.465 12.043a2.141 2.141 0 1 0 .002 4.28 2.141 2.141 0 0 0-.002-4.28m0 2.852a.71.71 0 0 1-.715-.711.71.71 0 0 1 .715-.715.71.71 0 0 1 .71.715c0 .394-.316.71-.71.71M199.047 19.895h30.691l-1.14.855a.715.715 0 0 0-.141 1 .711.711 0 0 0 1 .14l2.856-2.14a.722.722 0 0 0 .285-.566c0-.23-.11-.438-.286-.575l-2.855-2.14a.715.715 0 0 0-.86 1.14l1.141.86h-30.691a.713.713 0 1 0 0 1.426M201.473 26.89a.717.717 0 0 0 1-.144.711.711 0 0 0-.145-.996l-1.14-.86h30.699a.712.712 0 0 0 0-1.425h-30.7l1.141-.86a.711.711 0 0 0 .145-.996.717.717 0 0 0-1-.144l-2.86 2.14a.72.72 0 0 0 0 1.145l2.86 2.14M218.316 11.328a.717.717 0 0 0 .555-1.168 4.289 4.289 0 0 0-3.406-1.687c-1.34 0-2.602.625-3.406 1.687a.712.712 0 0 0-.137.715.718.718 0 0 0 1.238.191 2.85 2.85 0 0 1 4.605 0 .71.71 0 0 0 .551.262"/><path style="stroke:none;fill-rule:nonzero;fill:#000;fill-opacity:1" d="M220.465 8.473a.71.71 0 0 0 .656-.438.702.702 0 0 0-.148-.773 7.59 7.59 0 0 0-5.508-2.36 7.593 7.593 0 0 0-5.512 2.36.707.707 0 0 0 .016 1.008.716.716 0 0 0 1.011-.008 6.179 6.179 0 0 1 8.97 0c.132.133.316.21.515.21"/><path style="stroke:none;fill-rule:nonzero;fill:#000;fill-opacity:1" d="M208.816 5.418a9.641 9.641 0 0 1 13.293 0c.184.176.45.242.692.172a.715.715 0 0 0 .297-1.203c-4.274-4.074-10.993-4.074-15.27 0a.71.71 0 0 0-.016 1.008c.27.289.723.296 1.004.023M230.453 168.27v-4.055h-1.426v3.625a5.452 5.452 0 0 0-.714-.055h-1.426v-3.57h-1.43v3.57h-2.14v-3.57h-1.426v3.57h-2.145v-3.57h-1.43v3.57h-2.14v-3.57h-1.426v3.57h-2.14v-3.57h-1.426v3.57h-2.141v-3.57h-1.434v3.57h-2.14v-3.57h-1.426v3.57h-1.43c-.238 0-.476.024-.71.055v-3.625h-1.43v4.055a5.034 5.034 0 0 0-2.368 2.37h-4.058v1.426h3.625a5.45 5.45 0 0 0-.05.715v1.426h-3.575v1.43h3.574v2.14h-3.574v1.43h3.574v2.14h-3.574v1.43h3.574v2.141h-3.574v1.426h3.574v2.14h-3.574v1.426h3.574v2.149h-3.574v1.425h3.574v2.141h-3.574v1.426h3.574v1.43c0 .238.02.476.05.71h-3.624v1.43h4.058a5.009 5.009 0 0 0 2.368 2.367v4.059h1.43v-3.625c.234.035.472.05.71.058h1.43v3.567h1.426v-3.567h2.14v3.567h1.434v-3.567h2.14v3.567h1.426v-3.567h2.141v3.567h1.426v-3.567h2.14v3.567h1.43v-3.567h2.145v3.567h1.425v-3.567h2.141v3.567h1.43v-3.567h1.425c.239-.007.481-.023.715-.058v3.625h1.426v-4.059a5.034 5.034 0 0 0 2.371-2.367h4.055v-1.43h-3.625c.039-.234.055-.472.059-.71v-1.43h3.566v-1.426h-3.566v-2.14h3.566v-1.426h-3.566v-2.149h3.566v-1.426h-3.566v-2.14h3.566v-1.426h-3.566v-2.14h3.566v-1.43h-3.566v-2.141h3.566v-1.43h-3.566v-2.14h3.566v-1.43h-3.566v-1.426a4.856 4.856 0 0 0-.06-.715h3.626v-1.425h-4.055a5.06 5.06 0 0 0-2.37-2.371m1.433 30.21a3.58 3.58 0 0 1-3.575 3.57h-25.699a3.57 3.57 0 0 1-3.566-3.57v-25.699a3.568 3.568 0 0 1 3.566-3.566h25.7a3.577 3.577 0 0 1 3.574 3.566v25.7"/><path style="stroke:none;fill-rule:nonzero;fill:#000;fill-opacity:1" d="M227.598 171.355h-24.27c-1.183 0-2.14.958-2.14 2.141v24.27c0 1.183.957 2.14 2.14 2.14h24.27c1.183 0 2.14-.957 2.14-2.14v-24.27c0-1.184-.957-2.14-2.14-2.14m.714 26.41a.713.713 0 0 1-.714.714h-24.27a.715.715 0 0 1-.715-.714v-24.27c0-.398.32-.715.715-.715h24.27a.71.71 0 0 1 .714.715v24.27"/><path style="stroke:none;fill-rule:nonzero;fill:#000;fill-opacity:1" d="M225.457 174.207h1.43v1.43h-1.43v-1.43M204.043 195.625h1.426v1.426h-1.426v-1.426M204.043 175.637v2.14h1.426v-2.14h2.14v-1.43h-2.14a1.43 1.43 0 0 0-1.426 1.43M225.457 195.625h-2.14v1.426h3.57v-3.567h-1.43v2.141"/><path style="fill:none;stroke-width:1;stroke-linecap:round;stroke-linejoin:round;stroke:#000;stroke-opacity:1;stroke-miterlimit:10" d="M125.599 33.126v9.999-1.793 8.212M125.599 105.847v8.657-1.345 10.002" transform="matrix(1.33333 0 0 1.33333 48 0)"/><path style="stroke:none;fill-rule:nonzero;fill:#000;fill-opacity:1" d="m13.379 29.68.582-.582a37.325 37.325 0 0 0-1.414-2.043c.312-1.02.562-2.145.75-3.395l-.793-.148c-.145.96-.332 1.875-.563 2.73-.5-.687-.98-1.25-1.418-1.707l-.539.52c.54.625 1.102 1.312 1.688 2.082-.418 1.21-.918 2.273-1.543 3.168l.543.668c.601-.836 1.144-1.856 1.582-3.024.355.543.75 1.106 1.125 1.73Zm3.52.543.585-.563c-.5-.875-1-1.648-1.46-2.355.355-1.063.648-2.27.855-3.606l-.813-.144c-.168 1.043-.375 2-.625 2.894-.5-.707-.98-1.312-1.418-1.789l-.539.5c.54.688 1.082 1.414 1.645 2.227a12.603 12.603 0 0 1-1.688 3.21l.563.665c.644-.832 1.207-1.852 1.687-3.02.395.625.793 1.27 1.207 1.98Zm.562 2.101c.71 0 1.062-.375 1.062-1.101v-9.336H8.941v10.48h.856v-9.644h7.875v8.312c0 .313-.168.5-.5.5l-1.168-.043.23.832ZM24.566 30.012c-1.168.437-2.562.812-4.125 1.062l.106.856c1.52-.293 2.851-.645 4.02-1.106Zm-2.144-8.645a21.778 21.778 0 0 1-1.668 3.77.975.975 0 0 1-.356.312l.211.793c.664-.082 1.313-.207 1.957-.312-.644 1.144-1.187 1.937-1.605 2.418a1.424 1.424 0 0 1-.395.27l.23.769c1.126-.145 2.313-.457 3.54-.895v-.77a20 20 0 0 1-2.52.727c.668-.851 1.52-2.289 2.543-4.332l-.73-.27c-.23.438-.438.876-.645 1.29-.523.086-1.043.168-1.562.25.601-.914 1.207-2.145 1.812-3.707Zm7.789 6.543h-4.914v4.414h.812v-.52h3.29v.52h.812Zm-4.102 3.102v-2.313h3.29v2.313Zm.375-9.645a6.592 6.592 0 0 1-2.187 3.23l.52.665c.394-.313.75-.664 1.062-1.063a7.826 7.826 0 0 0 1.168 1.5c-.813.586-1.813 1.106-2.961 1.524l.523.707c1.164-.457 2.207-1.02 3.063-1.668.875.687 1.914 1.21 3.187 1.605l.5-.707c-1.187-.336-2.21-.812-3.043-1.437a7.58 7.58 0 0 0 1.895-2.625v-.625h-3.25c.125-.293.25-.606.336-.938Zm-.125 2.23c.063-.105.145-.23.207-.355h2.707a6.703 6.703 0 0 1-1.601 1.957c-.524-.457-.961-1-1.313-1.601ZM32.422 22.824v.836h10.625v-.836h-4.73a14.293 14.293 0 0 0-.688-1.52l-.957.169c.25.414.5.851.707 1.351Zm7.207 1.188-.582.562c1.394 1.149 2.5 2.23 3.289 3.23l.648-.644c-.898-1.043-2.023-2.086-3.355-3.148Zm.125 2.25a9.983 9.983 0 0 1-2 2.648 8.815 8.815 0 0 1-2.082-2.562l-.75.414c.562 1 1.289 1.918 2.164 2.71-1.27.958-2.832 1.688-4.727 2.165l.52.793c1.918-.5 3.562-1.293 4.894-2.375 1.313 1 2.918 1.77 4.875 2.312l.543-.793c-1.875-.476-3.457-1.187-4.75-2.125.832-.789 1.52-1.75 2.106-2.851Zm-3.98-2.227c-.915 1.125-2.02 2.082-3.313 2.938l.543.726c1.355-.894 2.48-1.937 3.375-3.125ZM54.504 24.7h-2.125c.355-.477.707-1.083 1.062-1.77v-.625h-2.543c.149-.293.274-.563.375-.875l-.851-.106c-.418 1.149-1.23 2.106-2.438 2.899l.5.687c.79-.543 1.457-1.168 1.957-1.875h2.082a14.44 14.44 0 0 1-1.02 1.664h-2.75v3.274h-.855v.789h2.813c-.477 1.21-1.54 2.187-3.164 2.96l.562.708c1.77-.938 2.914-2.082 3.414-3.48.668 1.437 1.813 2.605 3.399 3.5l.394-.813c-1.418-.707-2.457-1.645-3.082-2.875h3.02v-.79h-.75Zm-4.98 3.273v-2.5h1.667c-.02.957-.105 1.812-.25 2.5Zm2.25 0c.124-.668.187-1.524.21-2.5h1.75v2.5Zm-6.165 4.289c.707 0 1.063-.352 1.063-1.063v-3.457c.414-.207.832-.418 1.27-.625v-.875c-.438.23-.856.438-1.27.645V24.43h1.207v-.832h-1.207V21.41h-.875v2.188h-1.418v.832h1.418v2.793a15.22 15.22 0 0 1-1.649.52l.211.874c.477-.168.957-.332 1.438-.52v2.895c0 .332-.168.5-.48.5-.294 0-.583-.02-.895-.043l.164.813ZM56.422 23.742v.832h1.77c-.419 1.5-1.063 2.836-2 4l.374.938a12.897 12.897 0 0 0 1.645-3.27v6.106h.875v-6.336c.336.48.73 1.086 1.187 1.836l.5-.73a41.761 41.761 0 0 0-1.687-1.938v-.606h1.48v-.832h-1.48V21.41h-.875v2.332Zm3.582 8.063.707.644c.562-.875.96-1.75 1.148-2.687.227-.895.332-2 .332-3.313v-3.726h2.125v8.351c0 .688.395 1.043 1.168 1.043h.477c.398 0 .687-.082.875-.207.187-.168.312-.46.355-.898a20.97 20.97 0 0 0 .082-1.957l-.789-.25c0 1.144-.043 1.832-.086 2.062-.02.188-.082.293-.187.356a.738.738 0 0 1-.332.082h-.395c-.21 0-.293-.125-.293-.313V21.91h-3.875v4.54c0 1.23-.082 2.21-.23 2.96a7.283 7.283 0 0 1-1.082 2.395ZM13.297 92.277v2.168H8.984v5.645h.875v-.77h3.438v4.106h.875V99.32h3.457v.77h.855v-5.645h-4.312v-2.168Zm-3.438 6.211v-3.21h3.438v3.21Zm4.313 0v-3.21h3.457v3.21ZM29.566 94.027h-3.418V92.32h-.832v1.707h-3.418v4.063h-1.332v.836h4.438c-.625 1.375-2.168 2.601-4.625 3.664l.562.75c2.625-1.188 4.25-2.602 4.813-4.227.73 1.727 2.355 3.145 4.855 4.227l.54-.75c-2.352-1-3.895-2.227-4.602-3.664h4.375v-.836h-1.356Zm-6.812 4.063v-3.227h2.562v2.977l-.043.25Zm3.457 0-.063-.25v-2.977h2.586v3.227ZM34.629 92.32c-.418 2.418-1.188 4.332-2.332 5.75l.582.73a9.006 9.006 0 0 0 1.02-1.5c.312 1.083.648 2.02 1.042 2.77a8.34 8.34 0 0 1-2.562 2.332l.457.813a9.853 9.853 0 0 0 2.625-2.313c.273.399.562.711.898.961 1.102.813 2.895 1.25 5.375 1.25h1.313l.164-.918a28.32 28.32 0 0 1-1.895.063c-2.02-.02-3.52-.356-4.437-1.02-.356-.23-.645-.562-.938-1.023.918-1.414 1.52-3.164 1.856-5.27v-.77h-2.688c.145-.542.27-1.105.375-1.71Zm-.23 3.938c.167-.395.312-.813.46-1.25h2.082c-.293 1.644-.793 3.082-1.5 4.312-.375-.812-.73-1.832-1.043-3.062Zm5-3.875v8.937h.874v-4.98c.688.543 1.524 1.336 2.48 2.312l.52-.77a35.801 35.801 0 0 0-3-2.437v-3.062ZM48.734 92.8v5.563h2.5v1.414h-2.71v.813h2.71v1.562h-3.21v.813h7.21v-.813h-3.148v-1.562h2.71v-.813h-2.71v-1.414h2.5v-5.562Zm5.04 4.79h-1.688v-1.625h1.687Zm-2.54 0h-1.687v-1.625h1.687Zm-1.687-2.375V93.57h1.687v1.645Zm2.539-1.645h1.687v1.645h-1.687Zm-7.602 3.207v.836h1.313v3c-.524.145-1.043.27-1.563.375l.207.813a24.396 24.396 0 0 0 3.563-1.149v-.832c-.438.188-.856.356-1.313.52v-2.727h1.313v-.836H46.69v-2.832h1.457v-.832h-3.832v.832h1.48v2.832ZM57.422 92.777v2.918h3.644v-2.918Zm2.851 2.188h-2.082v-1.438h2.082Zm2.125-2.188v2.918h3.73v-2.918Zm2.961 2.188h-2.168v-1.438h2.168Zm-8.918 1.937v.774h3.313c-.832.707-2.02 1.312-3.563 1.75l.395.707a14.28 14.28 0 0 0 1-.332v3.539h.75v-.52h2.043v.52h.77v-3.77h-3c1.124-.5 2.023-1.125 2.687-1.894h2.043c.605.726 1.48 1.351 2.625 1.894h-3.188v3.77h.77v-.52h2.23v.52h.77v-3.52c.273.082.543.207.836.293l.351-.73c-1.539-.418-2.707-1-3.5-1.707h3.25v-.774H65.38a9.194 9.194 0 0 0-.668-1.062l-.727.25c.188.23.375.5.54.812h-3.102c.164-.289.332-.582.437-.894l-.812-.082a5.48 5.48 0 0 1-.563.976Zm1.895 5.188v-1.813h2.043v1.813Zm4.75 0v-1.813h2.23v1.813ZM13.617 173.836v8.562h1v-3.5h2.5c1.977 0 2.957-.851 2.957-2.539 0-1.687-.98-2.523-2.937-2.523Zm1 .855h2.457c.688 0 1.188.125 1.52.418.336.25.5.664.5 1.25 0 .563-.164 1-.477 1.27-.355.27-.855.418-1.543.418h-2.457ZM25.027 173.672c-1.312 0-2.355.437-3.082 1.351-.648.813-.98 1.856-.98 3.125 0 1.274.312 2.313.957 3.106.71.875 1.73 1.312 3.062 1.312.918 0 1.711-.27 2.375-.77.711-.562 1.149-1.335 1.336-2.335h-.937c-.168.75-.524 1.312-1.024 1.687-.476.356-1.062.543-1.75.543-1 0-1.77-.332-2.289-1-.5-.625-.75-1.48-.75-2.543 0-1.062.27-1.914.77-2.562.543-.707 1.293-1.04 2.293-1.04.687 0 1.25.145 1.707.477.48.336.793.813.918 1.438h.937c-.105-.852-.5-1.54-1.148-2.04-.645-.5-1.457-.75-2.395-.75ZM30.14 173.836v8.562h.977v-8.562ZM35.336 176.023c-.895 0-1.602.336-2.125.98-.52.606-.79 1.376-.79 2.294 0 1 .27 1.789.833 2.394.52.582 1.25.875 2.125.875.812 0 1.457-.23 1.98-.687.414-.395.707-.875.832-1.48h-.957c-.148.437-.355.773-.625.98-.312.25-.73.375-1.23.375-.582 0-1.063-.188-1.395-.563-.336-.394-.5-.937-.562-1.625h4.894c-.02-1.082-.25-1.937-.707-2.52-.523-.687-1.273-1.023-2.273-1.023Zm.043.813c1.168 0 1.832.648 1.937 1.98h-3.875c.063-.605.25-1.082.606-1.437.332-.375.77-.543 1.332-.543ZM40.934 174.71v3.919h7.543v-3.918h-2c.394-.54.793-1.188 1.168-1.957l-.836-.293c-.332.812-.75 1.543-1.27 2.25Zm6.687 3.087H41.79v-2.274h5.832Zm-5.226-5.293-.73.375c.456.52.894 1.105 1.292 1.77l.75-.352a17.553 17.553 0 0 0-1.312-1.793Zm-1.98 7.105a10.084 10.084 0 0 1-1.188 2.977l.73.48c.54-.918.977-2.02 1.29-3.27Zm4.542-.5-.773.25c.418.602.793 1.29 1.125 2.082l.793-.332a12.323 12.323 0 0 0-1.145-2Zm3.77.27-.832.27c.539.874 1.02 1.898 1.437 3.042l.79-.355a18.22 18.22 0 0 0-1.395-2.957Zm-2.313 4.062c.457 0 .793-.082 1.02-.293.23-.25.398-.914.48-2l-.812-.27c-.063.856-.145 1.356-.293 1.544-.102.125-.27.207-.54.207h-2.648c-.351 0-.52-.188-.52-.563v-2.332h-.874v2.52c0 .793.375 1.187 1.125 1.187ZM55.477 181.21c-1.168.462-2.543.837-4.125 1.087l.105.851c1.5-.289 2.852-.644 4.02-1.101Zm-2.125-8.663c-.48 1.414-1.043 2.687-1.688 3.789-.125.168-.23.273-.375.312l.207.793a60.37 60.37 0 0 0 2-.27c-.625 1.126-1.164 1.915-1.601 2.376-.106.101-.23.187-.399.25l.25.789c1.149-.145 2.336-.438 3.606-.852v-.773c-.875.293-1.73.5-2.606.687.711-.851 1.606-2.289 2.649-4.332l-.774-.293c-.226.48-.476.938-.687 1.375-.54.086-1.082.149-1.625.211.625-.937 1.25-2.187 1.855-3.75Zm7.957 2.164-3 .437v-2.562h-.852v2.668l-1.836.27.125.792 1.73-.25c0 .582.044 1.125.106 1.645l-2.168.336.125.832 2.145-.356c.062.313.105.606.168.918a9.39 9.39 0 0 0 .562 1.75c-.894.668-1.894 1.168-3 1.543l.52.688a9.421 9.421 0 0 0 2.855-1.461c.082.148.168.293.27.437.523.73 1.062 1.086 1.648 1.106.625 0 1.102-.813 1.438-2.395l-.73-.48c-.231 1.293-.5 1.937-.813 1.937-.313 0-.645-.293-1.043-.894-.063-.063-.102-.149-.145-.23.75-.645 1.438-1.438 2.063-2.356l-.688-.457c-.5.75-1.062 1.437-1.73 2.02-.164-.477-.313-1-.414-1.626a5.64 5.64 0 0 1-.106-.625l3.207-.52-.125-.812-3.164.5c-.062-.5-.105-1.043-.125-1.625l3.082-.437Zm-1.645-2.145-.687.418c.605.54 1.082 1.063 1.418 1.54l.687-.477c-.336-.418-.812-.918-1.418-1.48ZM29.629 239.27c-1.25 0-2.25.437-2.977 1.335-.71.833-1.043 1.875-1.043 3.145s.356 2.313 1.043 3.125c.75.855 1.813 1.293 3.164 1.293a6.78 6.78 0 0 0 1.98-.293c.606-.188 1.106-.438 1.5-.77v-3.5h-3.644v.852h2.688v2.168a3.489 3.489 0 0 1-1.086.48 4.837 4.837 0 0 1-1.352.208c-1.105 0-1.937-.356-2.523-1-.52-.625-.79-1.481-.79-2.563 0-1.105.27-1.98.833-2.625.543-.668 1.27-.98 2.207-.98.75 0 1.375.167 1.836.542.457.356.726.856.875 1.5h.976c-.164-.937-.52-1.644-1.125-2.144-.644-.523-1.5-.773-2.562-.773ZM34.941 239.438V248h1v-3.5h2.5c1.977 0 2.957-.855 2.957-2.543 0-1.687-.98-2.52-2.937-2.52Zm1 .855h2.457c.688 0 1.188.125 1.52.414.336.25.5.668.5 1.25 0 .563-.164 1-.477 1.273-.355.27-.855.415-1.543.415h-2.457ZM42.645 239.438v5.269c0 1.125.289 1.98.875 2.563.582.605 1.414.898 2.562.898 1.125 0 1.977-.293 2.563-.898.562-.583.851-1.438.851-2.563v-5.27h-.976v5.293c0 .833-.211 1.477-.586 1.895-.395.457-1.02.688-1.852.688-.855 0-1.48-.231-1.875-.688-.398-.418-.562-1.063-.562-1.895v-5.292ZM276.305 47.172c-.27.312-.602.601-1.02.875a6.858 6.858 0 0 1-1.207.52v.98c.813-.25 1.477-.625 2.02-1.188v7.375h.98v-8.562ZM281.973 47.004c-1.043 0-1.813.437-2.313 1.355-.457.77-.687 1.79-.687 3.082 0 1.313.23 2.332.687 3.106.5.894 1.27 1.351 2.313 1.351 1.02 0 1.793-.457 2.312-1.351.457-.774.688-1.793.688-3.106 0-1.293-.23-2.312-.688-3.082-.52-.918-1.293-1.355-2.312-1.355Zm0 .832c.77 0 1.312.418 1.644 1.23.25.582.375 1.375.375 2.375s-.125 1.793-.375 2.375c-.332.832-.875 1.25-1.644 1.25-.77 0-1.332-.418-1.668-1.25-.227-.582-.352-1.375-.352-2.375s.125-1.793.352-2.375c.336-.812.898-1.23 1.668-1.23ZM286.172 52.21v.813h6.062v-.812ZM295.578 47.172c-.27.312-.605.601-1.02.875a6.767 6.767 0 0 1-1.21.52v.98c.812-.25 1.48-.625 2.023-1.188v7.375h.977v-8.562ZM301.246 47.004c-1.043 0-1.812.437-2.312 1.355-.461.77-.688 1.79-.688 3.082 0 1.313.227 2.332.688 3.106.5.894 1.27 1.351 2.312 1.351 1.02 0 1.79-.457 2.313-1.351.457-.774.687-1.793.687-3.106 0-1.293-.23-2.312-.687-3.082-.524-.918-1.293-1.355-2.313-1.355Zm0 .832c.77 0 1.313.418 1.645 1.23.25.582.375 1.375.375 2.375s-.125 1.793-.375 2.375c-.332.832-.875 1.25-1.645 1.25-.773 0-1.336-.418-1.668-1.25-.23-.582-.355-1.375-.355-2.375s.125-1.793.355-2.375c.332-.812.895-1.23 1.668-1.23ZM308.445 47.004c-1.043 0-1.812.437-2.312 1.355-.461.77-.688 1.79-.688 3.082 0 1.313.227 2.332.688 3.106.5.894 1.27 1.351 2.312 1.351 1.02 0 1.79-.457 2.313-1.351.457-.774.687-1.793.687-3.106 0-1.293-.23-2.312-.687-3.082-.524-.918-1.293-1.355-2.313-1.355Zm0 .832c.77 0 1.313.418 1.645 1.23.25.582.375 1.375.375 2.375s-.125 1.793-.375 2.375c-.332.832-.875 1.25-1.645 1.25-.773 0-1.336-.418-1.668-1.25-.23-.582-.355-1.375-.355-2.375s.125-1.793.355-2.375c.332-.812.895-1.23 1.668-1.23ZM320.559 47.004c-1.25 0-2.25.437-2.98 1.332-.708.836-1.044 1.875-1.044 3.148 0 1.27.356 2.313 1.043 3.125.75.852 1.813 1.29 3.168 1.29.707 0 1.352-.102 1.977-.29.605-.187 1.105-.437 1.5-.773v-3.5h-3.645v.855h2.688v2.168a3.412 3.412 0 0 1-1.082.477c-.438.125-.875.21-1.356.21-1.105 0-1.937-.355-2.52-1-.523-.624-.792-1.48-.792-2.562 0-1.105.27-1.98.832-2.625.543-.668 1.273-.98 2.21-.98.75 0 1.376.168 1.833.543.457.351.73.851.875 1.5h.98c-.168-.938-.523-1.649-1.125-2.149-.648-.52-1.5-.77-2.562-.77ZM325.762 47.004v8.73h.894v-1.023c.418.793 1.106 1.187 2.063 1.187.898 0 1.605-.332 2.125-.976.46-.606.687-1.375.687-2.313 0-.918-.226-1.648-.687-2.25-.5-.668-1.207-1-2.082-1-.875 0-1.563.438-2.043 1.313v-3.668Zm2.793 3.144c.687 0 1.187.25 1.539.73.312.419.46 1 .46 1.731 0 .75-.148 1.332-.437 1.77-.336.48-.855.73-1.523.73-.625 0-1.102-.23-1.438-.73-.312-.418-.476-.98-.476-1.688v-.105c0-.727.164-1.313.52-1.77.355-.437.792-.668 1.355-.668ZM332.898 47.172v8.562h6.293v-.855h-5.293v-3.145h4.793v-.855h-4.793v-2.856h5.082v-.851ZM278.207 63.148c-.539.774-.937 1.586-1.25 2.461a9.72 9.72 0 0 0 0 6.27c.313.855.711 1.687 1.25 2.48h.836a12.377 12.377 0 0 1-1.148-2.5 9.699 9.699 0 0 1-.52-3.105c0-1.043.168-2.063.52-3.125.273-.875.668-1.688 1.148-2.48ZM282.75 64.504c-.27.312-.605.605-1.02.875-.418.23-.812.394-1.21.52v.98c.812-.25 1.48-.625 2.023-1.188v7.375h.977v-8.562ZM285.418 69.547v.812h6.062v-.812ZM294.82 64.504c-.27.312-.601.605-1.02.875-.417.23-.812.394-1.206.52v.98c.812-.25 1.476-.625 2.02-1.188v7.375h.98v-8.562ZM300.488 64.336c-1.043 0-1.812.437-2.312 1.355-.457.77-.688 1.793-.688 3.082 0 1.313.23 2.336.688 3.106.5.894 1.27 1.355 2.312 1.355 1.02 0 1.793-.46 2.313-1.355.457-.77.687-1.793.687-3.106 0-1.289-.23-2.312-.687-3.082-.52-.918-1.293-1.355-2.313-1.355Zm0 .836c.77 0 1.313.414 1.645 1.226.25.586.375 1.375.375 2.375s-.125 1.793-.375 2.375c-.332.836-.875 1.25-1.645 1.25s-1.332-.414-1.668-1.25c-.226-.582-.351-1.375-.351-2.375s.125-1.789.351-2.375c.336-.812.899-1.226 1.668-1.226ZM308.605 64.336c-1.25 0-2.25.437-2.98 1.336-.707.832-1.04 1.875-1.04 3.144 0 1.27.353 2.313 1.04 3.125.75.856 1.813 1.293 3.168 1.293a6.8 6.8 0 0 0 1.98-.293c.602-.187 1.102-.437 1.5-.77v-3.5h-3.648v.852h2.688v2.168a3.466 3.466 0 0 1-1.083.48 4.842 4.842 0 0 1-1.355.208c-1.102 0-1.938-.356-2.52-1-.52-.625-.793-1.48-.793-2.563 0-1.105.274-1.98.836-2.625.54-.668 1.27-.98 2.207-.98.75 0 1.375.168 1.832.543.461.355.731.855.875 1.5h.981c-.168-.938-.52-1.645-1.125-2.145-.645-.523-1.5-.773-2.563-.773ZM313.914 64.504v8.562h3.813c.875 0 1.582-.187 2.082-.52.586-.398.875-1.023.875-1.874 0-.563-.164-1.024-.477-1.375-.312-.375-.73-.606-1.293-.711.418-.145.77-.375 1.043-.688.25-.332.375-.77.375-1.25 0-.664-.23-1.187-.687-1.582-.461-.375-1.106-.562-1.899-.562Zm1 .812h2.606c.601 0 1.062.125 1.375.356.312.25.457.601.457 1.082 0 .5-.168.855-.48 1.125-.313.23-.77.355-1.352.355h-2.606Zm0 3.75h2.73c.665 0 1.165.106 1.52.375.356.27.543.668.543 1.23 0 .54-.21.958-.625 1.227-.375.211-.836.336-1.437.336h-2.73ZM325.89 63.234l-4.269 11.04h.875l4.25-11.04ZM330.121 66.691c-.687 0-1.27.168-1.707.48-.46.313-.687.708-.687 1.25 0 .52.226.915.707 1.208.293.187.793.375 1.543.543.664.164 1.101.312 1.312.394.375.188.582.457.582.813 0 .687-.562 1.043-1.668 1.043-.52 0-.914-.086-1.187-.274-.27-.226-.438-.562-.52-1.062h-.937c.144 1.437 1.043 2.148 2.668 2.148 1.75 0 2.625-.648 2.625-1.918 0-.543-.25-.957-.73-1.27-.333-.21-.856-.398-1.606-.585-.625-.164-1.063-.29-1.29-.395-.355-.187-.523-.418-.523-.687 0-.27.125-.48.399-.645.25-.168.582-.23 1.02-.23.48 0 .874.082 1.124.293.25.164.395.437.48.832h.938c-.168-1.293-1-1.938-2.543-1.938ZM334.203 63.148a12.41 12.41 0 0 1 1.145 2.48 9.592 9.592 0 0 1 0 6.23 13.789 13.789 0 0 1-1.145 2.501h.832c.52-.793.938-1.625 1.25-2.48.332-1.043.52-2.082.52-3.125 0-1.063-.188-2.106-.52-3.145a11.057 11.057 0 0 0-1.25-2.46ZM272.664 133.57v8.563h1v-3.5h2.5c1.98 0 2.957-.856 2.957-2.543 0-1.688-.976-2.52-2.937-2.52Zm1 .856h2.457c.688 0 1.188.125 1.524.414.332.25.5.668.5 1.25 0 .562-.168 1-.48 1.273-.356.27-.856.414-1.544.414h-2.457ZM284.078 133.402c-1.312 0-2.355.438-3.086 1.356-.644.812-.976 1.855-.976 3.125s.312 2.312.957 3.105c.707.875 1.73 1.313 3.062 1.313.918 0 1.707-.274 2.375-.774.707-.562 1.145-1.332 1.332-2.332h-.937c-.164.75-.52 1.313-1.02 1.688-.48.355-1.062.543-1.75.543-1 0-1.77-.336-2.293-1-.5-.625-.75-1.48-.75-2.543 0-1.063.274-1.918.774-2.563.539-.707 1.289-1.043 2.289-1.043.687 0 1.25.149 1.71.48.477.333.79.813.915 1.438h.937a2.944 2.944 0 0 0-1.144-2.043c-.645-.5-1.457-.75-2.395-.75ZM289.188 133.57v8.563h.98v-8.563ZM294.387 135.758c-.899 0-1.606.332-2.125.98-.524.602-.793 1.375-.793 2.29 0 1 .27 1.792.832 2.398.523.582 1.25.875 2.125.875.812 0 1.46-.23 1.98-.688a2.76 2.76 0 0 0 .832-1.48h-.957c-.144.437-.355.77-.625.98-.312.25-.73.375-1.23.375-.582 0-1.063-.187-1.395-.562-.332-.399-.5-.938-.562-1.625h4.894c-.02-1.086-.25-1.938-.707-2.524-.52-.687-1.27-1.02-2.27-1.02Zm.039.812c1.168 0 1.836.645 1.937 1.98h-3.875c.063-.605.25-1.085.606-1.437.332-.375.77-.543 1.332-.543ZM305.438 133.402c-.813 0-1.481.23-1.981.688-.539.48-.852 1.125-.914 1.937h.977c.062-.562.25-1.02.585-1.332.313-.312.77-.437 1.332-.437.563 0 1 .125 1.313.418.293.25.457.625.457 1.101 0 .48-.164.856-.457 1.125-.313.25-.75.375-1.313.375h-.667v.774h.71c.582 0 1.04.125 1.375.414.352.293.52.687.52 1.21 0 .5-.188.915-.52 1.25-.375.352-.875.54-1.48.54-.543 0-.98-.164-1.355-.457-.415-.332-.645-.856-.665-1.52h-1c.082.957.415 1.688 1.02 2.188.52.414 1.188.625 2 .625.895 0 1.605-.25 2.168-.75.539-.5.812-1.125.812-1.918 0-.5-.148-.918-.437-1.25-.273-.332-.648-.582-1.148-.73.937-.313 1.398-.977 1.398-1.938 0-.707-.25-1.27-.75-1.688-.5-.437-1.168-.625-1.98-.625ZM310.535 140.695a.707.707 0 0 0-.523.23.692.692 0 0 0-.207.52c0 .207.062.375.207.52a.69.69 0 0 0 .523.21.71.71 0 0 0 .52-.21.692.692 0 0 0 .207-.52.692.692 0 0 0-.207-.52.731.731 0 0 0-.52-.23ZM315.723 133.402c-1.043 0-1.813.438-2.313 1.356-.457.77-.687 1.793-.687 3.082 0 1.312.23 2.336.687 3.105.5.895 1.27 1.356 2.313 1.356 1.02 0 1.793-.461 2.312-1.356.457-.77.688-1.793.688-3.105 0-1.29-.23-2.313-.688-3.082-.52-.918-1.293-1.356-2.312-1.356Zm0 .836c.77 0 1.312.414 1.644 1.227.25.586.375 1.375.375 2.375s-.125 1.793-.375 2.375c-.332.836-.875 1.25-1.644 1.25-.77 0-1.332-.414-1.668-1.25-.227-.582-.352-1.375-.352-2.375s.125-1.79.352-2.375c.336-.813.898-1.227 1.668-1.227ZM326.063 133.57c-.27.313-.602.606-1.02.875-.418.23-.813.395-1.207.52v.98c.812-.25 1.476-.625 2.02-1.187v7.375h.98v-8.563ZM331.855 133.402c-.98 0-1.75.438-2.312 1.336-.543.852-.813 1.977-.813 3.332 0 1.313.25 2.332.75 3.063.52.77 1.313 1.168 2.356 1.168a2.89 2.89 0 0 0 2.082-.836c.543-.563.812-1.27.812-2.102 0-.836-.25-1.523-.75-2.043-.5-.52-1.168-.793-1.98-.793-.5 0-.938.125-1.332.375-.395.23-.707.586-.918 1.024h-.063v-.313c0-.96.188-1.773.563-2.398.375-.664.918-1 1.586-1 1 0 1.582.48 1.77 1.48h.98c-.25-1.543-1.149-2.293-2.73-2.293Zm-.043 3.938c.586 0 1.063.187 1.418.562.356.375.52.856.52 1.461 0 .602-.164 1.125-.54 1.52-.355.394-.835.582-1.397.582-.602 0-1.063-.188-1.438-.602-.352-.375-.52-.875-.52-1.48 0-.606.188-1.082.543-1.457.375-.399.852-.586 1.414-.586ZM335.66 135.926l2.188 2.914-2.461 3.293h1.148l1.852-2.582 1.855 2.582h1.125l-2.457-3.293 2.207-2.914h-1.144l-1.586 2.207-1.602-2.207ZM282.246 149.55a10.05 10.05 0 0 0-1.25 2.458 9.633 9.633 0 0 0-.52 3.144c0 1.043.165 2.086.52 3.125.313.856.707 1.688 1.25 2.48h.832c-.476-.812-.875-1.644-1.144-2.5a9.575 9.575 0 0 1-.52-3.105c0-1.039.164-2.062.52-3.125.27-.875.668-1.687 1.144-2.476ZM286.79 150.902a4.788 4.788 0 0 1-1.024.875c-.414.23-.813.399-1.207.524v.976c.812-.25 1.48-.625 2.02-1.187v7.375h.98v-8.563ZM292.578 150.738c-.976 0-1.75.438-2.312 1.332-.54.856-.813 1.98-.813 3.332 0 1.313.25 2.336.75 3.063.524.773 1.313 1.168 2.356 1.168.832 0 1.52-.293 2.082-.832.543-.563.812-1.274.812-2.106 0-.832-.25-1.52-.75-2.043-.5-.52-1.164-.789-1.976-.789-.5 0-.938.125-1.336.375a2.28 2.28 0 0 0-.914 1.02h-.063v-.313c0-.957.188-1.77.563-2.394.375-.668.914-1 1.582-1 1 0 1.582.476 1.77 1.476h.98c-.25-1.539-1.145-2.289-2.73-2.289Zm-.039 3.938c.582 0 1.063.187 1.414.562.356.375.524.852.524 1.457 0 .606-.168 1.125-.543 1.52-.356.398-.832.586-1.395.586-.605 0-1.062-.188-1.437-.606-.356-.375-.524-.875-.524-1.48 0-.602.188-1.082.543-1.457.375-.395.856-.582 1.418-.582ZM304.566 150.738c-1.25 0-2.25.438-2.98 1.332-.707.832-1.04 1.875-1.04 3.145 0 1.273.352 2.312 1.04 3.125.75.855 1.812 1.293 3.168 1.293a6.8 6.8 0 0 0 1.98-.293c.602-.188 1.102-.438 1.5-.77v-3.5h-3.648v.856h2.687v2.164c-.312.21-.664.375-1.082.48a4.842 4.842 0 0 1-1.355.207c-1.102 0-1.938-.351-2.52-1-.52-.625-.793-1.476-.793-2.562 0-1.102.274-1.977.836-2.625.54-.664 1.27-.977 2.207-.977.75 0 1.375.164 1.832.54.461.355.73.855.875 1.5h.98c-.167-.938-.519-1.645-1.124-2.145-.645-.52-1.5-.77-2.563-.77ZM309.875 150.902v8.563h3.813c.875 0 1.585-.188 2.085-.52.582-.394.875-1.02.875-1.875 0-.562-.168-1.02-.48-1.375-.313-.375-.73-.605-1.293-.707a2.419 2.419 0 0 0 1.043-.687c.25-.336.375-.774.375-1.25 0-.668-.23-1.188-.688-1.586-.457-.375-1.105-.563-1.894-.563Zm1 .813h2.605c.606 0 1.063.125 1.375.355.313.25.457.606.457 1.082 0 .5-.164.856-.476 1.125-.313.23-.774.356-1.356.356h-2.605Zm0 3.75h2.73c.668 0 1.168.105 1.52.375.355.273.543.668.543 1.23 0 .543-.207.957-.625 1.23-.375.208-.832.333-1.438.333h-2.73ZM321.855 149.633l-4.273 11.043h.875l4.25-11.043ZM326.082 153.09c-.687 0-1.27.168-1.707.48-.457.313-.688.707-.688 1.25 0 .52.231.918.708 1.207.293.188.793.375 1.543.543.667.168 1.105.313 1.312.395.375.187.582.46.582.812 0 .688-.562 1.043-1.664 1.043-.523 0-.918-.082-1.188-.27-.273-.23-.437-.562-.523-1.062h-.937c.148 1.438 1.043 2.145 2.668 2.145 1.75 0 2.625-.645 2.625-1.918 0-.54-.25-.957-.731-1.27-.332-.207-.852-.394-1.602-.582-.625-.168-1.062-.293-1.293-.398-.355-.188-.519-.414-.519-.688 0-.27.125-.476.394-.644.25-.168.583-.23 1.02-.23.48 0 .875.085 1.125.292.25.168.398.438.48.832h.938c-.168-1.289-1-1.937-2.543-1.937ZM330.164 149.55c.48.79.856 1.602 1.145 2.477a9.714 9.714 0 0 1 .523 3.125 9.582 9.582 0 0 1-.523 3.106c-.29.855-.664 1.687-1.145 2.5h.832c.524-.793.938-1.625 1.25-2.48.336-1.04.524-2.083.524-3.126 0-1.062-.188-2.101-.524-3.144a10.786 10.786 0 0 0-1.25-2.457ZM269.762 194.637l-4.313 5.687v.938h4.313v1.937h.937v-1.937h1.375v-.813H270.7v-5.812Zm-.043 1.273h.043v4.54h-3.48ZM272.688 196.992l2.187 2.918-2.457 3.29h1.144l1.856-2.583 1.855 2.582h1.125l-2.46-3.289 2.21-2.918H277l-1.582 2.207-1.606-2.207ZM279.316 194.637v8.562h1v-3.5h2.5c1.98 0 2.961-.851 2.961-2.539 0-1.687-.98-2.523-2.937-2.523Zm1 .855h2.461c.688 0 1.188.125 1.52.418.332.25.5.664.5 1.25 0 .563-.168 1-.48 1.27-.352.27-.852.418-1.54.418h-2.46ZM290.73 194.473c-1.312 0-2.355.437-3.082 1.351-.648.813-.98 1.856-.98 3.125 0 1.274.312 2.313.957 3.106.71.875 1.73 1.312 3.063 1.312.917 0 1.71-.27 2.375-.77.71-.562 1.148-1.335 1.335-2.335h-.937c-.168.75-.524 1.312-1.024 1.687-.476.356-1.062.543-1.75.543-1 0-1.769-.332-2.289-1-.5-.625-.75-1.48-.75-2.543 0-1.062.27-1.914.77-2.562.543-.707 1.293-1.04 2.293-1.04.687 0 1.25.145 1.707.477.48.336.793.813.918 1.438h.937c-.105-.852-.5-1.54-1.148-2.04-.645-.5-1.457-.75-2.395-.75ZM295.84 194.637v8.562h.98v-8.562ZM301.04 196.824c-.895 0-1.606.336-2.126.98-.52.606-.793 1.376-.793 2.294 0 1 .274 1.789.836 2.394.52.582 1.25.875 2.125.875.813 0 1.457-.23 1.977-.687.418-.395.71-.875.836-1.48h-.961c-.145.437-.352.773-.625.98-.313.25-.727.375-1.227.375-.586 0-1.062-.188-1.398-.563-.332-.394-.5-.937-.563-1.625h4.899c-.024-1.082-.25-1.937-.711-2.52-.52-.687-1.27-1.023-2.27-1.023Zm.042.813c1.164 0 1.832.648 1.938 1.98h-3.875c.062-.605.25-1.082.601-1.437.336-.375.774-.543 1.336-.543ZM312.09 194.473c-.813 0-1.477.226-1.977.687-.543.477-.855 1.125-.918 1.938h.98c.063-.563.25-1.024.583-1.336.312-.313.77-.438 1.332-.438s1 .125 1.312.418c.293.25.461.625.461 1.106 0 .476-.168.851-.46 1.125-.313.25-.75.375-1.313.375h-.664v.77h.707c.582 0 1.043.124 1.375.417.355.29.52.688.52 1.207 0 .5-.188.918-.52 1.25-.375.356-.875.543-1.48.543-.54 0-.977-.168-1.352-.46-.418-.333-.649-.852-.668-1.52h-1c.082.957.418 1.687 1.02 2.187.523.418 1.187.625 2 .625.898 0 1.605-.25 2.167-.75.543-.5.813-1.125.813-1.918 0-.5-.145-.914-.438-1.25-.27-.332-.644-.582-1.144-.726.937-.313 1.394-.98 1.394-1.938 0-.71-.25-1.273-.75-1.687-.5-.438-1.168-.625-1.98-.625ZM317.188 201.762a.713.713 0 0 0-.52.23.681.681 0 0 0-.211.52c0 .21.063.375.211.523a.692.692 0 0 0 .52.207.722.722 0 0 0 .519-.207.69.69 0 0 0 .211-.523.681.681 0 0 0-.211-.52.748.748 0 0 0-.52-.23ZM322.375 194.473c-1.04 0-1.813.437-2.313 1.351-.457.774-.687 1.793-.687 3.086 0 1.313.23 2.332.688 3.102.5.898 1.273 1.355 2.312 1.355 1.023 0 1.793-.457 2.313-1.355.46-.77.687-1.79.687-3.102 0-1.293-.227-2.312-.688-3.086-.519-.914-1.289-1.351-2.312-1.351Zm0 .832c.773 0 1.313.418 1.648 1.23.25.582.375 1.375.375 2.375s-.125 1.79-.375 2.375c-.336.832-.875 1.25-1.648 1.25-.77 0-1.332-.418-1.664-1.25-.23-.586-.356-1.375-.356-2.375s.125-1.793.356-2.375c.332-.812.894-1.23 1.664-1.23ZM332.719 194.637a4.788 4.788 0 0 1-1.024.875c-.414.23-.812.398-1.207.523v.977c.813-.25 1.48-.625 2.02-1.188v7.375h.98v-8.562ZM338.508 194.473c-.977 0-1.75.437-2.313 1.332-.539.855-.812 1.98-.812 3.332 0 1.312.25 2.336.75 3.062.523.774 1.312 1.168 2.355 1.168.832 0 1.52-.293 2.082-.832.543-.562.813-1.273.813-2.105 0-.832-.25-1.52-.75-2.043-.5-.52-1.164-.79-1.977-.79-.5 0-.937.126-1.336.376a2.28 2.28 0 0 0-.914 1.02h-.062v-.313c0-.957.187-1.77.562-2.395.375-.668.914-1 1.582-1 1 0 1.582.477 1.77 1.477h.98c-.25-1.54-1.144-2.29-2.73-2.29Zm-.04 3.937c.583 0 1.063.188 1.415.563.355.375.523.851.523 1.457 0 .605-.168 1.125-.543 1.52-.355.398-.832.585-1.394.585-.606 0-1.063-.187-1.438-.605-.355-.375-.523-.875-.523-1.48 0-.602.187-1.083.543-1.458.375-.394.855-.582 1.418-.582ZM342.313 196.992l2.187 2.918-2.457 3.29h1.144l1.856-2.583 1.855 2.582h1.125l-2.46-3.289 2.21-2.918h-1.148l-1.582 2.207-1.606-2.207ZM281.05 210.617a10.19 10.19 0 0 0-1.25 2.457 9.727 9.727 0 0 0 0 6.273c.313.852.712 1.688 1.25 2.477h.837a12.28 12.28 0 0 1-1.149-2.5 9.658 9.658 0 0 1-.52-3.101c0-1.043.169-2.063.52-3.125.274-.875.668-1.688 1.149-2.48ZM286.574 211.805c-.98 0-1.75.437-2.312 1.332-.543.855-.813 1.98-.813 3.336 0 1.312.25 2.332.75 3.062.52.77 1.313 1.164 2.352 1.164.836 0 1.523-.289 2.086-.832.539-.562.812-1.27.812-2.105 0-.832-.25-1.52-.75-2.04-.5-.523-1.168-.792-1.98-.792-.5 0-.938.125-1.332.375-.399.23-.711.582-.918 1.02h-.063v-.313c0-.957.188-1.77.563-2.395.375-.668.918-1 1.582-1 1 0 1.586.48 1.773 1.48h.977c-.25-1.542-1.145-2.292-2.727-2.292Zm-.043 3.937c.582 0 1.063.188 1.418.563.352.375.52.855.52 1.457 0 .605-.168 1.125-.543 1.523-.352.395-.832.582-1.395.582-.605 0-1.062-.187-1.437-.605-.356-.375-.52-.875-.52-1.477 0-.605.188-1.086.54-1.46.374-.395.855-.583 1.417-.583ZM294.648 211.973l-4.312 5.687v.938h4.312v1.937h.938v-1.937h1.375v-.813h-1.375v-5.812Zm-.043 1.27h.043v4.542h-3.48ZM305.762 211.805c-1.25 0-2.25.437-2.98 1.332-.708.836-1.044 1.875-1.044 3.148 0 1.27.356 2.313 1.043 3.125.75.852 1.813 1.29 3.168 1.29.707 0 1.352-.102 1.977-.29.605-.187 1.105-.437 1.5-.773v-3.5h-3.645v.855h2.688v2.168a3.412 3.412 0 0 1-1.082.477c-.438.125-.875.21-1.356.21-1.105 0-1.937-.355-2.52-1-.523-.624-.792-1.48-.792-2.562 0-1.105.27-1.98.832-2.625.543-.668 1.273-.98 2.21-.98.75 0 1.376.168 1.833.543.457.351.73.851.875 1.5h.98c-.168-.938-.523-1.649-1.125-2.149-.648-.52-1.5-.77-2.562-.77ZM311.07 211.973v8.562h3.813c.875 0 1.582-.187 2.082-.523.586-.395.875-1.02.875-1.875 0-.563-.164-1.02-.477-1.375-.312-.375-.73-.602-1.293-.707.418-.145.77-.375 1.043-.688.25-.332.375-.77.375-1.25 0-.668-.23-1.187-.687-1.582-.461-.375-1.106-.562-1.899-.562Zm1 .812h2.606c.601 0 1.062.125 1.375.352.312.25.457.605.457 1.086 0 .5-.168.851-.48 1.125-.313.226-.77.351-1.352.351h-2.606Zm0 3.75h2.73c.665 0 1.165.102 1.52.375.356.27.543.664.543 1.227 0 .543-.21.96-.625 1.23-.375.207-.836.332-1.437.332h-2.73ZM323.047 210.7l-4.27 11.042h.875l4.25-11.043ZM327.277 214.16c-.687 0-1.27.164-1.707.477-.46.312-.687.71-.687 1.25 0 .523.226.918.707 1.21.293.188.793.376 1.543.54.664.168 1.101.312 1.312.398.375.188.582.457.582.813 0 .687-.562 1.039-1.668 1.039-.52 0-.914-.082-1.187-.27-.27-.23-.438-.562-.52-1.062h-.937c.144 1.437 1.043 2.144 2.668 2.144 1.75 0 2.625-.644 2.625-1.914 0-.543-.25-.96-.73-1.273-.333-.207-.856-.395-1.606-.582-.625-.168-1.063-.293-1.29-.395-.355-.187-.523-.418-.523-.687 0-.274.125-.48.399-.649.25-.164.582-.226 1.02-.226.48 0 .874.082 1.124.289.25.168.395.437.48.836h.938c-.168-1.293-1-1.938-2.543-1.938ZM331.36 210.617a12.41 12.41 0 0 1 1.144 2.48 9.69 9.69 0 0 1 .52 3.126c0 1.02-.165 2.062-.52 3.101a13.668 13.668 0 0 1-1.145 2.5h.832c.52-.789.938-1.625 1.25-2.476.332-1.043.52-2.086.52-3.125 0-1.063-.188-2.106-.52-3.149a10.946 10.946 0 0 0-1.25-2.457Zm0 0"/></svg>