<svg xmlns="http://www.w3.org/2000/svg" width="512" height="477.333"><path style="fill:none;stroke-width:4.513;stroke-linecap:butt;stroke-linejoin:round;stroke:#8ac640;stroke-opacity:1;stroke-miterlimit:10" d="M174.871 661.86v-22.066" transform="matrix(1.33333 0 0 1.33333 126.667 -516)"/><path style="stroke:none;fill-rule:nonzero;fill:#8ac640;fill-opacity:1" d="m367.031 364.371-7.203 12.473-7.2-12.473ZM367.031 339.168l-7.203-12.469-7.2 12.469Zm0 0"/><path style="fill:none;stroke-width:4.513;stroke-linecap:butt;stroke-linejoin:round;stroke:#8ac640;stroke-opacity:1;stroke-miterlimit:10" d="m234.024 664.737-26.619-26.616" transform="matrix(1.33333 0 0 1.33333 126.667 -516)"/><path style="stroke:none;fill-rule:nonzero;fill:#8ac640;fill-opacity:1" d="m442.297 363.734 3.73 13.91-13.914-3.722ZM409.793 331.23l-13.914-3.73 3.726 13.91Zm0 0"/><path style="fill:none;stroke-width:4.513;stroke-linecap:butt;stroke-linejoin:round;stroke:#8ac640;stroke-opacity:1;stroke-miterlimit:10" d="m207.405 664.737 26.62-26.616" transform="matrix(1.33333 0 0 1.33333 126.667 -516)"/><path style="stroke:none;fill-rule:nonzero;fill:#8ac640;fill-opacity:1" d="m409.793 373.922-13.914 3.723 3.726-13.91ZM442.297 341.41l3.73-13.91-13.914 3.73Zm0 0"/><path style="fill:none;stroke-width:4.513;stroke-linecap:butt;stroke-linejoin:round;stroke:#8ac640;stroke-opacity:1;stroke-miterlimit:10" d="M19.727 662.18v-22.064" transform="matrix(1.33333 0 0 1.33333 126.667 -516)"/><path style="stroke:none;fill-rule:nonzero;fill:#8ac640;fill-opacity:1" d="m160.172 364.8-7.203 12.47-7.2-12.47ZM160.172 339.598l-7.203-12.473-7.2 12.473Zm0 0"/><path style="fill:none;stroke-width:4.513;stroke-linecap:butt;stroke-linejoin:round;stroke:#8ac640;stroke-opacity:1;stroke-miterlimit:10" d="m-12.805 664.737-26.616-26.616" transform="matrix(1.33333 0 0 1.33333 126.667 -516)"/><path style="stroke:none;fill-rule:nonzero;fill:#8ac640;fill-opacity:1" d="m113.2 363.734 3.722 13.91-13.91-3.722ZM80.684 331.23l-13.907-3.73 3.723 13.91Zm0 0"/><path style="fill:none;stroke-width:4.513;stroke-linecap:butt;stroke-linejoin:round;stroke:#8ac640;stroke-opacity:1;stroke-miterlimit:10" d="m-39.42 664.737 26.615-26.616" transform="matrix(1.33333 0 0 1.33333 126.667 -516)"/><path style="stroke:none;fill-rule:nonzero;fill:#8ac640;fill-opacity:1" d="m80.684 373.922-13.907 3.723 3.723-13.91ZM113.2 341.41l3.722-13.91-13.91 3.73Zm0 0"/><path style="fill:none;stroke-width:4.513;stroke-linecap:butt;stroke-linejoin:round;stroke:#8ac640;stroke-opacity:1;stroke-miterlimit:10" d="M-72.333 730.907v11.701h338.584v-11.7" transform="matrix(1.33333 0 0 1.33333 126.667 -516)"/><path style="stroke:none;fill-rule:nonzero;fill:#8ac640;fill-opacity:1" d="m37.426 460.645-7.203-12.47-7.203 12.47ZM474.465 460.645l7.203-12.47 7.195 12.47Zm0 0"/><path style="stroke:none;fill-rule:nonzero;fill:#8ac640;fill-opacity:1" d="m474.965 460.645 7.203-12.473 7.203 12.473ZM37.926 460.645l-7.203-12.473-7.203 12.473Zm0 0"/><path style="fill:none;stroke-width:3.009;stroke-linecap:butt;stroke-linejoin:round;stroke:#76b900;stroke-opacity:1;stroke-miterlimit:10" d="M-1.16 479.871h41.093v41.095H-1.16Zm0 0" transform="matrix(1.33333 0 0 1.33333 126.667 -516)"/><path style="stroke:none;fill-rule:nonzero;fill:#000;fill-opacity:1" d="M157.441 145.613v-1.562h-9.793v1.707h7.938a24.59 24.59 0 0 0-2.23 2.77 21.107 21.107 0 0 0-1.833 3.167 22.193 22.193 0 0 0-1.27 3.5 19.113 19.113 0 0 0-.648 3.73h2.043a19.02 19.02 0 0 1 .582-3.648c.336-1.25.758-2.46 1.274-3.644a25.316 25.316 0 0 1 1.789-3.332c.668-1.043 1.383-1.938 2.148-2.688Zm0 0"/><path style="fill:none;stroke-width:3.009;stroke-linecap:butt;stroke-linejoin:round;stroke:#76b900;stroke-opacity:1;stroke-miterlimit:10" d="M-92.844 389.048h41.09v41.092h-41.09Zm0 0" transform="matrix(1.33333 0 0 1.33333 126.667 -516)"/><path style="stroke:none;fill-rule:nonzero;fill:#000;fill-opacity:1" d="M31.941 37.824V22.7h-1.394c-.098.574-.285 1.043-.563 1.418a3.09 3.09 0 0 1-.98.875c-.39.207-.828.356-1.313.438a9.973 9.973 0 0 1-1.5.105v1.457h3.938v10.832Zm0 0"/><path style="stroke:none;fill-rule:nonzero;fill:#8ac640;fill-opacity:1" d="M460.672 9.176h3.223v3.226h-3.223ZM465.504 9.176h3.226v3.226h-3.226ZM460.672 14.012h3.223v3.222h-3.223ZM465.504 14.012h3.226v3.222h-3.226ZM460.672 18.844h3.223v3.222h-3.223ZM465.504 18.844h3.226v3.222h-3.226ZM460.672 23.676h3.223v3.226h-3.223ZM460.672 28.516h3.223v3.218h-3.223ZM460.672 33.348h3.223v3.226h-3.223ZM460.672 38.184h3.223v3.222h-3.223ZM465.504 38.184h3.226v3.222h-3.226ZM460.672 43.016h3.223v3.222h-3.223ZM465.504 43.016h3.226v3.222h-3.226ZM460.672 47.848h3.223v3.226h-3.223ZM465.504 47.848h3.226v3.226h-3.226ZM470.34 9.176h3.223v3.226h-3.223ZM475.176 9.176h3.219v3.226h-3.22ZM470.34 14.012h3.223v3.222h-3.223ZM475.176 14.012h3.219v3.222h-3.22ZM470.34 43.016h3.223v3.222h-3.223ZM475.176 43.016h3.219v3.222h-3.22ZM470.34 47.848h3.223v3.226h-3.223ZM475.176 47.848h3.219v3.226h-3.22ZM480.012 9.176h3.222v3.226h-3.222ZM484.844 9.176h3.222v3.226h-3.222ZM480.012 14.012h3.222v3.222h-3.222ZM484.844 14.012h3.222v3.222h-3.222ZM480.012 43.016h3.222v3.222h-3.222ZM484.844 43.016h3.222v3.222h-3.222ZM480.012 47.848h3.222v3.226h-3.222ZM484.844 47.848h3.222v3.226h-3.222ZM489.676 9.176h3.226v3.226h-3.226ZM494.512 9.176h3.222v3.226h-3.222ZM489.676 14.012h3.226v3.222h-3.226ZM494.512 14.012h3.222v3.222h-3.222ZM494.512 18.844h3.222v3.222h-3.222ZM465.504 23.676h3.226v3.226h-3.226ZM465.504 28.516h3.226v3.218h-3.226ZM465.504 33.348h3.226v3.226h-3.226ZM494.512 23.676h3.222v3.226h-3.222ZM494.512 28.516h3.222v3.218h-3.222ZM494.512 33.348h3.222v3.226h-3.222ZM494.512 38.184h3.222v3.222h-3.222ZM489.676 43.016h3.226v3.222h-3.226ZM494.512 43.016h3.222v3.222h-3.222ZM489.676 47.848h3.226v3.226h-3.226ZM499.348 9.176h3.218v3.226h-3.218ZM499.348 14.012h3.218v3.222h-3.218ZM499.348 18.844h3.218v3.222h-3.218ZM499.348 23.676h3.218v3.226h-3.218ZM499.348 28.516h3.218v3.218h-3.218ZM499.348 33.348h3.218v3.226h-3.218ZM499.348 38.184h3.218v3.222h-3.218ZM499.348 43.016h3.218v3.222h-3.218ZM499.348 47.848h3.218v3.226h-3.218ZM494.512 47.848h3.222v3.226h-3.222Zm0 0"/><path style="fill:none;stroke-width:3.009;stroke-linecap:butt;stroke-linejoin:round;stroke:#76b900;stroke-opacity:1;stroke-miterlimit:10" d="M245.667 389.048h41.095v41.092h-41.095Zm0 0" transform="matrix(1.33333 0 0 1.33333 126.667 -516)"/><path style="stroke:none;fill-rule:nonzero;fill:#000;fill-opacity:1" d="M482.918 32.68h-5.082l5.039-7.395h.043Zm1.707 0V22.7h-1.457l-6.875 9.835v1.75h6.625v3.54h1.707v-3.54h2.043V32.68Zm0 0"/><path style="stroke:none;fill-rule:nonzero;fill:#76b900;fill-opacity:1" d="M454.223 23.676h3.226v12.898h-3.226ZM505.793 23.676h3.223v12.898h-3.223ZM488.066 2.73v3.223h-12.89V2.73ZM488.066 54.297v3.223h-12.89v-3.223Zm0 0"/><path style="stroke:none;fill-rule:nonzero;fill:#8ac640;fill-opacity:1" d="M338.426 9.176h3.219v3.226h-3.22ZM343.262 9.176h3.222v3.226h-3.222ZM338.426 14.012h3.219v3.222h-3.22ZM343.262 14.012h3.222v3.222h-3.222ZM338.426 18.844h3.219v3.222h-3.22ZM343.262 18.844h3.222v3.222h-3.222ZM338.426 23.676h3.219v3.226h-3.22ZM338.426 28.516h3.219v3.218h-3.22ZM338.426 33.348h3.219v3.226h-3.22ZM338.426 38.184h3.219v3.222h-3.22ZM343.262 38.184h3.222v3.222h-3.222ZM338.426 43.016h3.219v3.222h-3.22ZM343.262 43.016h3.222v3.222h-3.222ZM338.426 47.848h3.219v3.226h-3.22ZM343.262 47.848h3.222v3.226h-3.222ZM348.094 9.176h3.222v3.226h-3.222ZM352.926 9.176h3.226v3.226h-3.226ZM348.094 14.012h3.222v3.222h-3.222ZM352.926 14.012h3.226v3.222h-3.226ZM348.094 43.016h3.222v3.222h-3.222ZM352.926 43.016h3.226v3.222h-3.226ZM348.094 47.848h3.222v3.226h-3.222ZM352.926 47.848h3.226v3.226h-3.226ZM357.762 9.176h3.222v3.226h-3.222ZM362.598 9.176h3.218v3.226h-3.218ZM357.762 14.012h3.222v3.222h-3.222ZM362.598 14.012h3.218v3.222h-3.218ZM357.762 43.016h3.222v3.222h-3.222ZM362.598 43.016h3.218v3.222h-3.218ZM357.762 47.848h3.222v3.226h-3.222ZM362.598 47.848h3.218v3.226h-3.218ZM367.434 9.176h3.222v3.226h-3.222ZM372.266 9.176h3.222v3.226h-3.222ZM367.434 14.012h3.222v3.222h-3.222ZM372.266 14.012h3.222v3.222h-3.222ZM372.266 18.844h3.222v3.222h-3.222ZM343.262 23.676h3.222v3.226h-3.222ZM343.262 28.516h3.222v3.218h-3.222ZM343.262 33.348h3.222v3.226h-3.222ZM372.266 23.676h3.222v3.226h-3.222ZM372.266 28.516h3.222v3.218h-3.222ZM372.266 33.348h3.222v3.226h-3.222ZM372.266 38.184h3.222v3.222h-3.222ZM367.434 43.016h3.222v3.222h-3.222ZM372.266 43.016h3.222v3.222h-3.222ZM367.434 47.848h3.222v3.226h-3.222ZM377.098 9.176h3.226v3.226h-3.226ZM377.098 14.012h3.226v3.222h-3.226ZM377.098 18.844h3.226v3.222h-3.226ZM377.098 23.676h3.226v3.226h-3.226ZM377.098 28.516h3.226v3.218h-3.226ZM377.098 33.348h3.226v3.226h-3.226ZM377.098 38.184h3.226v3.222h-3.226ZM377.098 43.016h3.226v3.222h-3.226ZM377.098 47.848h3.226v3.226h-3.226ZM372.266 47.848h3.222v3.226h-3.222Zm0 0"/><path style="fill:none;stroke-width:3.009;stroke-linecap:butt;stroke-linejoin:round;stroke:#76b900;stroke-opacity:1;stroke-miterlimit:10" d="M153.985 389.048h41.092v41.092h-41.092Zm0 0" transform="matrix(1.33333 0 0 1.33333 126.667 -516)"/><path style="stroke:none;fill-rule:nonzero;fill:#000;fill-opacity:1" d="M358.09 29.18v1.543a8.765 8.765 0 0 1 1.082-.063c.46 0 .883.063 1.273.188.399.113.739.289 1.02.539.293.25.52.558.687.918.168.363.25.78.25 1.25 0 .457-.093.87-.27 1.23-.183.363-.429.664-.73.914-.293.25-.64.45-1.043.586-.39.125-.804.188-1.25.188-1.03 0-1.812-.305-2.351-.918-.543-.625-.828-1.422-.856-2.395h-1.812c-.016.781.09 1.473.312 2.082a4.208 4.208 0 0 0 1.02 1.563c.445.418.98.73 1.605.937a6.582 6.582 0 0 0 2.082.313c.72 0 1.399-.094 2.024-.27.633-.195 1.187-.484 1.644-.875a4.307 4.307 0 0 0 1.125-1.437c.278-.586.418-1.25.418-2 0-.903-.226-1.688-.668-2.356-.449-.676-1.136-1.113-2.062-1.312v-.043a4.041 4.041 0 0 0 1.5-1.188 2.896 2.896 0 0 0 .605-1.812c0-.707-.12-1.313-.355-1.813a3.35 3.35 0 0 0-.98-1.25 4.284 4.284 0 0 0-1.477-.75 6.412 6.412 0 0 0-1.813-.25c-.75 0-1.418.125-2 .375a3.978 3.978 0 0 0-1.437 1c-.375.418-.668.93-.875 1.524a6.682 6.682 0 0 0-.356 1.976h1.813c0-.426.05-.844.168-1.25.125-.398.297-.75.52-1.039a2.36 2.36 0 0 1 .894-.71c.375-.177.797-.27 1.273-.27.774 0 1.414.203 1.914.605.512.406.774 1.016.774 1.832 0 .39-.078.746-.23 1.063a2.273 2.273 0 0 1-.626.77c-.265.21-.574.37-.918.48a4.076 4.076 0 0 1-1.101.144h-.605a.806.806 0 0 1-.188-.02Zm0 0"/><path style="stroke:none;fill-rule:nonzero;fill:#76b900;fill-opacity:1" d="M331.98 23.676h3.223v12.898h-3.223ZM383.547 23.676h3.223v12.898h-3.223ZM365.824 2.73v3.223h-12.898V2.73ZM365.824 54.297v3.223h-12.898v-3.223Zm0 0"/><path style="stroke:none;fill-rule:nonzero;fill:#8ac640;fill-opacity:1" d="M460.672 130.277h3.223v3.22h-3.223ZM465.504 130.277h3.226v3.22h-3.226ZM460.672 135.11h3.223v3.222h-3.223ZM465.504 135.11h3.226v3.222h-3.226ZM460.672 139.941h3.223v3.227h-3.223ZM465.504 139.941h3.226v3.227h-3.226ZM460.672 144.777h3.223V148h-3.223ZM460.672 149.61h3.223v3.222h-3.223ZM460.672 154.45h3.223v3.218h-3.223ZM460.672 159.281h3.223v3.223h-3.223ZM465.504 159.281h3.226v3.223h-3.226ZM460.672 164.113h3.223v3.227h-3.223ZM465.504 164.113h3.226v3.227h-3.226ZM460.672 168.95h3.223v3.222h-3.223ZM465.504 168.95h3.226v3.222h-3.226ZM470.34 130.277h3.223v3.22h-3.223ZM475.176 130.277h3.219v3.22h-3.22ZM470.34 135.11h3.223v3.222h-3.223ZM475.176 135.11h3.219v3.222h-3.22ZM470.34 164.113h3.223v3.227h-3.223ZM475.176 164.113h3.219v3.227h-3.22ZM470.34 168.95h3.223v3.222h-3.223ZM475.176 168.95h3.219v3.222h-3.22ZM480.012 130.277h3.222v3.22h-3.222ZM484.844 130.277h3.222v3.22h-3.222ZM480.012 135.11h3.222v3.222h-3.222ZM484.844 135.11h3.222v3.222h-3.222ZM480.012 164.113h3.222v3.227h-3.222ZM484.844 164.113h3.222v3.227h-3.222ZM480.012 168.95h3.222v3.222h-3.222ZM484.844 168.95h3.222v3.222h-3.222ZM489.676 130.277h3.226v3.22h-3.226ZM494.512 130.277h3.222v3.22h-3.222ZM489.676 135.11h3.226v3.222h-3.226ZM494.512 135.11h3.222v3.222h-3.222ZM494.512 139.941h3.222v3.227h-3.222ZM465.504 144.777h3.226V148h-3.226ZM465.504 149.61h3.226v3.222h-3.226ZM465.504 154.45h3.226v3.218h-3.226ZM494.512 144.777h3.222V148h-3.222ZM494.512 149.61h3.222v3.222h-3.222ZM494.512 154.45h3.222v3.218h-3.222ZM494.512 159.281h3.222v3.223h-3.222ZM489.676 164.113h3.226v3.227h-3.226ZM494.512 164.113h3.222v3.227h-3.222ZM489.676 168.95h3.226v3.222h-3.226ZM499.348 130.277h3.218v3.22h-3.218ZM499.348 135.11h3.218v3.222h-3.218ZM499.348 139.941h3.218v3.227h-3.218ZM499.348 144.777h3.218V148h-3.218ZM499.348 149.61h3.218v3.222h-3.218ZM499.348 154.45h3.218v3.218h-3.218ZM499.348 159.281h3.218v3.223h-3.218ZM499.348 164.113h3.218v3.227h-3.218ZM499.348 168.95h3.218v3.222h-3.218ZM494.512 168.95h3.222v3.222h-3.222Zm0 0"/><path style="fill:none;stroke-width:3.009;stroke-linecap:butt;stroke-linejoin:round;stroke:#76b900;stroke-opacity:1;stroke-miterlimit:10" d="M245.667 479.871h41.095v41.095h-41.095Zm0 0" transform="matrix(1.33333 0 0 1.33333 126.667 -516)"/><path style="stroke:none;fill-rule:nonzero;fill:#000;fill-opacity:1" d="M485.71 145.652v-1.601h-7.46l-1.414 7.851 1.562.086c.36-.43.77-.773 1.227-1.023.46-.258.984-.395 1.586-.395.508 0 .976.082 1.394.25.418.168.778.407 1.082.707.305.309.532.68.688 1.106.168.418.25.87.25 1.355 0 .598-.094 1.125-.27 1.582-.168.45-.394.825-.687 1.125a2.999 2.999 0 0 1-1.02.668c-.39.14-.804.207-1.23.207a4.03 4.03 0 0 1-1.25-.187 2.97 2.97 0 0 1-.98-.582 2.84 2.84 0 0 1-.665-.875 3.047 3.047 0 0 1-.273-1.086h-1.813c.012.7.149 1.312.399 1.855.258.532.61.98 1.039 1.356.445.363.95.64 1.523.832.582.176 1.196.27 1.852.27.887 0 1.656-.141 2.313-.415.667-.277 1.214-.648 1.648-1.105a4.769 4.769 0 0 0 1-1.606c.219-.609.332-1.234.332-1.875 0-.875-.137-1.629-.395-2.27a4.499 4.499 0 0 0-1.043-1.624 4.116 4.116 0 0 0-1.543-.957 5.462 5.462 0 0 0-1.894-.336c-.516 0-1.035.094-1.563.273a2.647 2.647 0 0 0-1.25.813l-.043-.043.793-4.356Zm0 0"/><path style="stroke:none;fill-rule:nonzero;fill:#76b900;fill-opacity:1" d="M454.223 144.777h3.226v12.891h-3.226ZM505.793 144.777h3.223v12.891h-3.223ZM488.066 123.828v3.223h-12.89v-3.223ZM488.066 175.395v3.226h-12.89v-3.226Zm0 0"/><path style="stroke:none;fill-rule:nonzero;fill:#8ac640;fill-opacity:1" d="M338.426 130.277h3.219v3.22h-3.22ZM343.262 130.277h3.222v3.22h-3.222ZM338.426 135.11h3.219v3.222h-3.22ZM343.262 135.11h3.222v3.222h-3.222ZM338.426 139.941h3.219v3.227h-3.22ZM343.262 139.941h3.222v3.227h-3.222ZM338.426 144.777h3.219V148h-3.22ZM338.426 149.61h3.219v3.222h-3.22ZM338.426 154.45h3.219v3.218h-3.22ZM338.426 159.281h3.219v3.223h-3.22ZM343.262 159.281h3.222v3.223h-3.222ZM338.426 164.113h3.219v3.227h-3.22ZM343.262 164.113h3.222v3.227h-3.222ZM338.426 168.95h3.219v3.222h-3.22ZM343.262 168.95h3.222v3.222h-3.222ZM348.094 130.277h3.222v3.22h-3.222ZM352.926 130.277h3.226v3.22h-3.226ZM348.094 135.11h3.222v3.222h-3.222ZM352.926 135.11h3.226v3.222h-3.226ZM348.094 164.113h3.222v3.227h-3.222ZM352.926 164.113h3.226v3.227h-3.226ZM348.094 168.95h3.222v3.222h-3.222ZM352.926 168.95h3.226v3.222h-3.226ZM357.762 130.277h3.222v3.22h-3.222ZM362.598 130.277h3.218v3.22h-3.218ZM357.762 135.11h3.222v3.222h-3.222ZM362.598 135.11h3.218v3.222h-3.218ZM357.762 164.113h3.222v3.227h-3.222ZM362.598 164.113h3.218v3.227h-3.218ZM357.762 168.95h3.222v3.222h-3.222ZM362.598 168.95h3.218v3.222h-3.218ZM367.434 130.277h3.222v3.22h-3.222ZM372.266 130.277h3.222v3.22h-3.222ZM367.434 135.11h3.222v3.222h-3.222ZM372.266 135.11h3.222v3.222h-3.222ZM372.266 139.941h3.222v3.227h-3.222ZM343.262 144.777h3.222V148h-3.222ZM343.262 149.61h3.222v3.222h-3.222ZM343.262 154.45h3.222v3.218h-3.222ZM372.266 144.777h3.222V148h-3.222ZM372.266 149.61h3.222v3.222h-3.222ZM372.266 154.45h3.222v3.218h-3.222ZM372.266 159.281h3.222v3.223h-3.222ZM367.434 164.113h3.222v3.227h-3.222ZM372.266 164.113h3.222v3.227h-3.222ZM367.434 168.95h3.222v3.222h-3.222ZM377.098 130.277h3.226v3.22h-3.226ZM377.098 135.11h3.226v3.222h-3.226ZM377.098 139.941h3.226v3.227h-3.226ZM377.098 144.777h3.226V148h-3.226ZM377.098 149.61h3.226v3.222h-3.226ZM377.098 154.45h3.226v3.218h-3.226ZM377.098 159.281h3.226v3.223h-3.226ZM377.098 164.113h3.226v3.227h-3.226ZM377.098 168.95h3.226v3.222h-3.226ZM372.266 168.95h3.222v3.222h-3.222Zm0 0"/><path style="fill:none;stroke-width:3.009;stroke-linecap:butt;stroke-linejoin:round;stroke:#76b900;stroke-opacity:1;stroke-miterlimit:10" d="M153.985 479.871h41.092v41.095h-41.092Zm0 0" transform="matrix(1.33333 0 0 1.33333 126.667 -516)"/><path style="stroke:none;fill-rule:nonzero;fill:#000;fill-opacity:1" d="M362.277 147.652h1.813c-.113-1.25-.543-2.195-1.293-2.851-.738-.668-1.727-1-2.977-1-1.086 0-1.98.226-2.687.687a5.181 5.181 0 0 0-1.711 1.813 8.433 8.433 0 0 0-.895 2.582c-.183.972-.27 1.98-.27 3.02 0 .792.052 1.62.165 2.48.125.847.375 1.637.75 2.355.375.707.902 1.29 1.586 1.75.676.442 1.582.664 2.707.664.941 0 1.738-.16 2.394-.476.653-.32 1.172-.719 1.563-1.211a4.533 4.533 0 0 0 .836-1.625c.164-.594.25-1.172.25-1.727 0-.71-.106-1.36-.313-1.96a4.354 4.354 0 0 0-.918-1.54 4.01 4.01 0 0 0-1.457-1.043c-.574-.25-1.218-.375-1.937-.375-.824 0-1.555.16-2.188.48-.625.305-1.156.805-1.586 1.5l-.039-.042c.008-.582.067-1.207.164-1.875a6.547 6.547 0 0 1 .543-1.856 3.752 3.752 0 0 1 1.106-1.437c.469-.375 1.086-.563 1.851-.563.72 0 1.305.211 1.75.625.446.407.711.95.793 1.625Zm-2.73 3.149c.512 0 .96.094 1.336.27.383.183.707.433.957.75.262.308.45.667.562 1.081.125.418.188.868.188 1.336 0 .43-.074.852-.207 1.27a3.127 3.127 0 0 1-.586 1.082c-.25.308-.563.555-.938.73-.375.168-.812.25-1.312.25s-.945-.082-1.332-.25a2.941 2.941 0 0 1-.98-.707 3.41 3.41 0 0 1-.626-1.086 4.052 4.052 0 0 1-.207-1.312c0-.469.067-.914.207-1.332.137-.426.34-.797.606-1.106.277-.3.605-.539.98-.707.383-.175.836-.27 1.352-.27Zm0 0"/><path style="stroke:none;fill-rule:nonzero;fill:#76b900;fill-opacity:1" d="M331.98 144.777h3.223v12.891h-3.223ZM383.547 144.777h3.223v12.891h-3.223ZM365.816 123.828v3.223h-12.89v-3.223ZM365.816 175.395v3.226h-12.89v-3.226Zm0 0"/><path style="stroke:none;fill-rule:nonzero;fill:#8ac640;fill-opacity:1" d="M131.566 9.176h3.227v3.226h-3.227ZM136.402 9.176h3.223v3.226h-3.223ZM131.566 14.012h3.227v3.222h-3.227ZM136.402 14.012h3.223v3.222h-3.223ZM131.566 18.844h3.227v3.222h-3.227ZM136.402 18.844h3.223v3.222h-3.223ZM131.566 23.676h3.227v3.226h-3.227ZM131.566 28.516h3.227v3.218h-3.227ZM131.566 33.348h3.227v3.226h-3.227ZM131.566 38.184h3.227v3.222h-3.227ZM136.402 38.184h3.223v3.222h-3.223ZM131.566 43.016h3.227v3.222h-3.227ZM136.402 43.016h3.223v3.222h-3.223ZM131.566 47.848h3.227v3.226h-3.227ZM136.402 47.848h3.223v3.226h-3.223ZM141.234 9.176h3.223v3.226h-3.223ZM146.066 9.176h3.227v3.226h-3.227ZM141.234 14.012h3.223v3.222h-3.223ZM146.066 14.012h3.227v3.222h-3.227ZM141.234 43.016h3.223v3.222h-3.223ZM146.066 43.016h3.227v3.222h-3.227ZM141.234 47.848h3.223v3.226h-3.223ZM146.066 47.848h3.227v3.226h-3.227ZM150.906 9.176h3.219v3.226h-3.219ZM155.738 9.176h3.227v3.226h-3.227ZM150.906 14.012h3.219v3.222h-3.219ZM155.738 14.012h3.227v3.222h-3.227ZM150.906 43.016h3.219v3.222h-3.219ZM155.738 43.016h3.227v3.222h-3.227ZM150.906 47.848h3.219v3.226h-3.219ZM155.738 47.848h3.227v3.226h-3.227ZM160.574 9.176h3.223v3.226h-3.223ZM165.406 9.176h3.223v3.226h-3.223ZM160.574 14.012h3.223v3.222h-3.223ZM165.406 14.012h3.223v3.222h-3.223ZM165.406 18.844h3.223v3.222h-3.223ZM136.402 23.676h3.223v3.226h-3.223ZM136.402 28.516h3.223v3.218h-3.223ZM136.402 33.348h3.223v3.226h-3.223ZM165.406 23.676h3.223v3.226h-3.223ZM165.406 28.516h3.223v3.218h-3.223ZM165.406 33.348h3.223v3.226h-3.223ZM165.406 38.184h3.223v3.222h-3.223ZM160.574 43.016h3.223v3.222h-3.223ZM165.406 43.016h3.223v3.222h-3.223ZM160.574 47.848h3.223v3.226h-3.223ZM170.238 9.176h3.227v3.226h-3.227ZM170.238 14.012h3.227v3.222h-3.227ZM170.238 18.844h3.227v3.222h-3.227ZM170.238 23.676h3.227v3.226h-3.227ZM170.238 28.516h3.227v3.218h-3.227ZM170.238 33.348h3.227v3.226h-3.227ZM170.238 38.184h3.227v3.222h-3.227ZM170.238 43.016h3.227v3.222h-3.227ZM170.238 47.848h3.227v3.226h-3.227ZM165.406 47.848h3.223v3.226h-3.223Zm0 0"/><path style="fill:none;stroke-width:3.009;stroke-linecap:butt;stroke-linejoin:round;stroke:#76b900;stroke-opacity:1;stroke-miterlimit:10" d="M-1.16 389.048h41.093v41.092H-1.16Zm0 0" transform="matrix(1.33333 0 0 1.33333 126.667 -516)"/><path style="stroke:none;fill-rule:nonzero;fill:#000;fill-opacity:1" d="M147.523 28.055h1.813a5.462 5.462 0 0 1 .125-1.356c.11-.441.281-.836.52-1.187.25-.36.562-.649.937-.875.387-.219.84-.332 1.355-.332a3.3 3.3 0 0 1 1.125.187c.36.125.672.313.938.563.262.238.469.52.625.855.168.332.25.707.25 1.125 0 .531-.082.992-.25 1.395-.168.39-.41.761-.73 1.105-.32.332-.723.664-1.208 1-.488.332-1.05.703-1.687 1.102-.531.324-1.035.664-1.52 1.023a7.1 7.1 0 0 0-1.293 1.227 6.159 6.159 0 0 0-.937 1.648c-.25.625-.41 1.39-.48 2.29h9.874v-1.602h-7.77c.083-.47.263-.887.544-1.25.273-.36.61-.696 1-1 .383-.32.816-.618 1.289-.899.469-.273.945-.55 1.418-.832.469-.3.922-.613 1.355-.937.442-.332.832-.7 1.164-1.106.344-.398.625-.86.836-1.375.207-.508.313-1.101.313-1.77 0-.706-.125-1.331-.375-1.874a3.903 3.903 0 0 0-1.024-1.356c-.414-.36-.914-.633-1.5-.832a5.717 5.717 0 0 0-1.832-.293c-.808 0-1.52.14-2.144.418a4.164 4.164 0 0 0-1.563 1.125 4.622 4.622 0 0 0-.937 1.688 6.083 6.083 0 0 0-.23 2.125Zm0 0"/><path style="stroke:none;fill-rule:nonzero;fill:#76b900;fill-opacity:1" d="M125.121 23.676h3.223v12.898h-3.223ZM176.688 23.676h3.222v12.898h-3.222ZM158.965 2.73v3.223h-12.89V2.73ZM158.965 54.297v3.223h-12.89v-3.223Zm0 0"/><path style="stroke:none;fill-rule:nonzero;fill:#8ac640;fill-opacity:1" d="M9.316 9.176h3.227v3.226H9.316ZM14.156 9.176h3.219v3.226h-3.219ZM9.316 14.012h3.227v3.222H9.316ZM14.156 14.012h3.219v3.222h-3.219ZM9.316 18.844h3.227v3.222H9.316ZM14.156 18.844h3.219v3.222h-3.219ZM9.316 23.676h3.227v3.226H9.316ZM9.316 28.516h3.227v3.218H9.316ZM9.316 33.348h3.227v3.226H9.316ZM9.316 38.184h3.227v3.222H9.316ZM14.156 38.184h3.219v3.222h-3.219ZM9.316 43.016h3.227v3.222H9.316ZM14.156 43.016h3.219v3.222h-3.219ZM9.316 47.848h3.227v3.226H9.316ZM14.156 47.848h3.219v3.226h-3.219ZM18.988 9.176h3.227v3.226h-3.227ZM23.824 9.176h3.223v3.226h-3.223ZM18.988 14.012h3.227v3.222h-3.227ZM23.824 14.012h3.223v3.222h-3.223ZM18.988 43.016h3.227v3.222h-3.227ZM23.824 43.016h3.223v3.222h-3.223ZM18.988 47.848h3.227v3.226h-3.227ZM23.824 47.848h3.223v3.226h-3.223ZM28.656 9.176h3.223v3.226h-3.223ZM33.488 9.176h3.227v3.226h-3.227ZM28.656 14.012h3.223v3.222h-3.223ZM33.488 14.012h3.227v3.222h-3.227ZM28.656 43.016h3.223v3.222h-3.223ZM33.488 43.016h3.227v3.222h-3.227ZM28.656 47.848h3.223v3.226h-3.223ZM33.488 47.848h3.227v3.226h-3.227ZM38.328 9.176h3.219v3.226h-3.219ZM43.16 9.176h3.227v3.226H43.16ZM38.328 14.012h3.219v3.222h-3.219ZM43.16 14.012h3.227v3.222H43.16ZM43.16 18.703h3.219v3.223H43.16ZM14.156 23.676h3.219v3.226h-3.219ZM14.156 28.516h3.219v3.218h-3.219ZM14.156 33.348h3.219v3.226h-3.219ZM43.16 23.676h3.227v3.226H43.16ZM43.16 28.516h3.227v3.218H43.16ZM43.16 33.348h3.227v3.226H43.16ZM43.16 38.184h3.227v3.222H43.16ZM38.328 43.016h3.219v3.222h-3.219ZM43.16 43.016h3.227v3.222H43.16ZM38.328 47.848h3.219v3.226h-3.219ZM47.996 9.176h3.223v3.226h-3.223ZM47.996 14.012h3.223v3.222h-3.223ZM47.996 18.844h3.223v3.222h-3.223ZM47.996 23.676h3.223v3.226h-3.223ZM47.996 28.516h3.223v3.218h-3.223ZM47.996 33.348h3.223v3.226h-3.223ZM47.996 38.184h3.223v3.222h-3.223ZM47.996 43.016h3.223v3.222h-3.223ZM47.996 47.848h3.223v3.226h-3.223ZM43.16 47.848h3.227v3.226H43.16Zm0 0"/><path style="stroke:none;fill-rule:nonzero;fill:#76b900;fill-opacity:1" d="M2.875 23.676h3.223v12.898H2.875ZM54.441 23.676h3.22v12.898h-3.22ZM36.715 2.73v3.223h-12.89V2.73ZM36.715 54.297v3.223h-12.89v-3.223Zm0 0"/><path style="stroke:none;fill-rule:nonzero;fill:#8ac640;fill-opacity:1" d="M131.566 130.277h3.227v3.22h-3.227ZM136.402 130.277h3.223v3.22h-3.223ZM131.566 135.11h3.227v3.222h-3.227ZM136.402 135.11h3.223v3.222h-3.223ZM131.566 139.941h3.227v3.227h-3.227ZM136.402 139.941h3.223v3.227h-3.223ZM131.566 144.777h3.227V148h-3.227ZM131.566 149.61h3.227v3.222h-3.227ZM131.566 154.45h3.227v3.218h-3.227ZM131.566 159.281h3.227v3.223h-3.227ZM136.402 159.281h3.223v3.223h-3.223ZM131.566 164.113h3.227v3.227h-3.227ZM136.402 164.113h3.223v3.227h-3.223ZM131.566 168.95h3.227v3.222h-3.227ZM136.402 168.95h3.223v3.222h-3.223ZM141.234 130.277h3.223v3.22h-3.223ZM146.066 130.277h3.227v3.22h-3.227ZM141.234 135.11h3.223v3.222h-3.223ZM146.066 135.11h3.227v3.222h-3.227ZM141.234 164.113h3.223v3.227h-3.223ZM146.066 164.113h3.227v3.227h-3.227ZM141.234 168.95h3.223v3.222h-3.223ZM146.066 168.95h3.227v3.222h-3.227ZM150.906 130.277h3.219v3.22h-3.219ZM155.738 130.277h3.227v3.22h-3.227ZM150.906 135.11h3.219v3.222h-3.219ZM155.738 135.11h3.227v3.222h-3.227ZM150.906 164.113h3.219v3.227h-3.219ZM155.738 164.113h3.227v3.227h-3.227ZM150.906 168.95h3.219v3.222h-3.219ZM155.738 168.95h3.227v3.222h-3.227ZM160.574 130.277h3.223v3.22h-3.223ZM165.406 130.277h3.223v3.22h-3.223ZM160.574 135.11h3.223v3.222h-3.223ZM165.406 135.11h3.223v3.222h-3.223ZM165.406 139.941h3.223v3.227h-3.223ZM136.402 144.777h3.223V148h-3.223ZM136.402 149.61h3.223v3.222h-3.223ZM136.402 154.45h3.223v3.218h-3.223ZM165.406 144.777h3.223V148h-3.223ZM165.406 149.61h3.223v3.222h-3.223ZM165.406 154.45h3.223v3.218h-3.223ZM165.406 159.281h3.223v3.223h-3.223ZM160.574 164.113h3.223v3.227h-3.223ZM165.406 164.113h3.223v3.227h-3.223ZM160.574 168.95h3.223v3.222h-3.223ZM170.238 130.277h3.227v3.22h-3.227ZM170.238 135.11h3.227v3.222h-3.227ZM170.238 139.941h3.227v3.227h-3.227ZM170.238 144.777h3.227V148h-3.227ZM170.238 149.61h3.227v3.222h-3.227ZM170.238 154.45h3.227v3.218h-3.227ZM170.238 159.281h3.227v3.223h-3.227ZM170.238 164.113h3.227v3.227h-3.227ZM170.238 168.95h3.227v3.222h-3.227ZM165.406 168.95h3.223v3.222h-3.223Zm0 0"/><path style="stroke:none;fill-rule:nonzero;fill:#76b900;fill-opacity:1" d="M125.121 144.777h3.223v12.891h-3.223ZM176.688 144.777h3.222v12.891h-3.222ZM158.965 123.828v3.223h-12.899v-3.223ZM158.965 175.395v3.226h-12.899v-3.226Zm0 0"/><path style="stroke:none;fill-rule:nonzero;fill:#8ac640;fill-opacity:1" d="M9.316 130.277h3.227v3.22H9.316ZM14.156 130.277h3.219v3.22h-3.219ZM9.316 135.11h3.227v3.222H9.316ZM14.156 135.11h3.219v3.222h-3.219ZM9.316 139.941h3.227v3.227H9.316ZM14.156 139.941h3.219v3.227h-3.219ZM9.316 144.777h3.227V148H9.316ZM9.316 149.61h3.227v3.222H9.316ZM9.316 154.45h3.227v3.218H9.316ZM9.316 159.281h3.227v3.223H9.316ZM14.156 159.281h3.219v3.223h-3.219ZM9.316 164.113h3.227v3.227H9.316ZM14.156 164.113h3.219v3.227h-3.219ZM9.316 168.95h3.227v3.222H9.316ZM14.156 168.95h3.219v3.222h-3.219ZM18.988 130.277h3.227v3.22h-3.227ZM23.824 130.277h3.223v3.22h-3.223ZM18.988 135.11h3.227v3.222h-3.227ZM23.824 135.11h3.223v3.222h-3.223ZM18.988 164.113h3.227v3.227h-3.227ZM23.824 164.113h3.223v3.227h-3.223ZM18.988 168.95h3.227v3.222h-3.227ZM23.824 168.95h3.223v3.222h-3.223ZM28.656 130.277h3.223v3.22h-3.223ZM33.488 130.277h3.227v3.22h-3.227ZM28.656 135.11h3.223v3.222h-3.223ZM33.488 135.11h3.227v3.222h-3.227ZM28.656 164.113h3.223v3.227h-3.223ZM33.488 164.113h3.227v3.227h-3.227ZM28.656 168.95h3.223v3.222h-3.223ZM33.488 168.95h3.227v3.222h-3.227ZM38.328 130.277h3.219v3.22h-3.219ZM43.16 130.277h3.227v3.22H43.16ZM38.328 135.11h3.219v3.222h-3.219ZM43.16 135.11h3.227v3.222H43.16ZM43.16 139.941h3.227v3.227H43.16ZM14.156 144.777h3.219V148h-3.219ZM14.156 149.61h3.219v3.222h-3.219ZM14.156 154.45h3.219v3.218h-3.219ZM43.16 144.777h3.227V148H43.16ZM43.16 149.61h3.227v3.222H43.16ZM43.16 154.45h3.227v3.218H43.16ZM43.16 159.281h3.227v3.223H43.16ZM38.328 164.113h3.219v3.227h-3.219ZM43.16 164.113h3.227v3.227H43.16ZM38.328 168.95h3.219v3.222h-3.219ZM47.996 130.277h3.223v3.22h-3.223ZM47.996 135.11h3.223v3.222h-3.223ZM47.996 139.941h3.223v3.227h-3.223ZM47.996 144.777h3.223V148h-3.223ZM47.996 149.61h3.223v3.222h-3.223ZM47.996 154.45h3.223v3.218h-3.223ZM47.996 159.281h3.223v3.223h-3.223ZM47.996 164.113h3.223v3.227h-3.223ZM47.996 168.95h3.223v3.222h-3.223ZM43.16 168.95h3.227v3.222H43.16Zm0 0"/><path style="fill:none;stroke-width:3.009;stroke-linecap:butt;stroke-linejoin:round;stroke:#76b900;stroke-opacity:1;stroke-miterlimit:10" d="M-92.844 479.871h41.09v41.095h-41.09Zm0 0" transform="matrix(1.33333 0 0 1.33333 126.667 -516)"/><path style="stroke:none;fill-rule:nonzero;fill:#000;fill-opacity:1" d="M27.652 147.715c0-.375.067-.695.207-.977.137-.293.325-.531.563-.73.234-.207.512-.36.832-.457.336-.094.68-.149 1.043-.149.734 0 1.34.2 1.812.586.485.39.73.969.73 1.727 0 .781-.241 1.387-.71 1.812-.473.418-1.07.625-1.79.625-.374 0-.73-.047-1.062-.144a2.433 2.433 0 0 1-.855-.438 2.195 2.195 0 0 1-.563-.77c-.14-.304-.207-.667-.207-1.085Zm-1.918-.063c0 .684.188 1.313.563 1.899.387.57.902.988 1.543 1.25-.867.289-1.524.77-1.98 1.437-.45.664-.669 1.446-.669 2.332 0 .766.133 1.438.399 2.02a3.985 3.985 0 0 0 1.082 1.437c.457.391 1 .68 1.625.856a7.64 7.64 0 0 0 2.043.27c.691 0 1.344-.098 1.957-.29a4.398 4.398 0 0 0 1.582-.875 4.46 4.46 0 0 0 1.062-1.46c.262-.567.399-1.22.399-1.958 0-.925-.227-1.718-.668-2.375-.434-.652-1.106-1.113-2.02-1.394a3.618 3.618 0 0 0 1.52-1.274 3.255 3.255 0 0 0 .582-1.875c0-.468-.094-.937-.27-1.394a3.39 3.39 0 0 0-.793-1.25c-.363-.36-.832-.653-1.414-.875-.586-.219-1.289-.332-2.105-.332a5.45 5.45 0 0 0-1.688.27c-.53.167-1 .417-1.418.75a3.46 3.46 0 0 0-.976 1.187c-.242.472-.356 1.02-.356 1.644Zm1.375 7a2.716 2.716 0 0 1 .938-2.101c.293-.262.629-.461 1.02-.586a3.83 3.83 0 0 1 1.25-.207c.417 0 .812.078 1.187.23.387.14.719.344 1 .602.293.25.512.555.668.898.168.348.25.727.25 1.145 0 .433-.078.828-.23 1.187-.141.348-.348.657-.626.918a3.097 3.097 0 0 1-.976.625c-.375.14-.793.207-1.25.207-.95 0-1.727-.254-2.336-.77-.598-.51-.895-1.23-.895-2.148Zm0 0"/><path style="stroke:none;fill-rule:nonzero;fill:#76b900;fill-opacity:1" d="M2.875 144.777h3.223v12.891H2.875ZM54.441 144.777h3.22v12.891h-3.22ZM36.715 123.828v3.223h-12.89v-3.223ZM36.715 175.395v3.218h-12.89v-3.218Zm0 0"/><path style="fill:none;stroke-width:4.513;stroke-linecap:butt;stroke-linejoin:round;stroke:#8ac640;stroke-opacity:1;stroke-miterlimit:10" d="M-15.427 401.74h-22.06" transform="matrix(1.33333 0 0 1.33333 126.667 -516)"/><path style="stroke:none;fill-rule:nonzero;fill:#8ac640;fill-opacity:1" d="m103.996 12.45 12.469 7.202-12.469 7.203ZM78.793 12.45l-12.477 7.202 12.477 7.196Zm0 0"/><path style="fill:none;stroke-width:4.513;stroke-linecap:butt;stroke-linejoin:round;stroke:#8ac640;stroke-opacity:1;stroke-miterlimit:10" d="M-15.427 417.448h-22.06" transform="matrix(1.33333 0 0 1.33333 126.667 -516)"/><path style="stroke:none;fill-rule:nonzero;fill:#8ac640;fill-opacity:1" d="m103.996 33.402 12.469 7.196-12.469 7.203ZM78.793 33.395l-12.477 7.203L78.793 47.8Zm0 0"/><path style="fill:none;stroke-width:4.513;stroke-linecap:butt;stroke-linejoin:round;stroke:#8ac640;stroke-opacity:1;stroke-miterlimit:10" d="M-64.44 465.77v-22.063" transform="matrix(1.33333 0 0 1.33333 126.667 -516)"/><path style="stroke:none;fill-rule:nonzero;fill:#8ac640;fill-opacity:1" d="m47.95 102.922-7.204 12.469-7.203-12.47ZM47.95 77.715l-7.204-12.469-7.203 12.469Zm0 0"/><path style="fill:none;stroke-width:4.513;stroke-linecap:butt;stroke-linejoin:round;stroke:#8ac640;stroke-opacity:1;stroke-miterlimit:10" d="M-80.152 465.77v-22.063" transform="matrix(1.33333 0 0 1.33333 126.667 -516)"/><path style="stroke:none;fill-rule:nonzero;fill:#8ac640;fill-opacity:1" d="m26.996 102.922-7.203 12.469-7.2-12.47ZM26.996 77.715l-7.2-12.469-7.202 12.469Zm0 0"/><path style="fill:none;stroke-width:4.513;stroke-linecap:butt;stroke-linejoin:round;stroke:#8ac640;stroke-opacity:1;stroke-miterlimit:10" d="M274.07 465.77v-22.063" transform="matrix(1.33333 0 0 1.33333 126.667 -516)"/><path style="stroke:none;fill-rule:nonzero;fill:#8ac640;fill-opacity:1" d="m499.297 102.922-7.203 12.469-7.2-12.47ZM499.297 77.715l-7.203-12.469-7.2 12.469Zm0 0"/><path style="fill:none;stroke-width:4.513;stroke-linecap:butt;stroke-linejoin:round;stroke:#8ac640;stroke-opacity:1;stroke-miterlimit:10" d="M258.358 465.77v-22.063" transform="matrix(1.33333 0 0 1.33333 126.667 -516)"/><path style="stroke:none;fill-rule:nonzero;fill:#8ac640;fill-opacity:1" d="m478.348 102.922-7.203 12.469-7.204-12.47ZM478.348 77.715l-7.203-12.469-7.196 12.469Zm0 0"/><path style="fill:none;stroke-width:4.513;stroke-linecap:butt;stroke-linejoin:round;stroke:#8ac640;stroke-opacity:1;stroke-miterlimit:10" d="M-15.427 492.563h-22.06" transform="matrix(1.33333 0 0 1.33333 126.667 -516)"/><path style="stroke:none;fill-rule:nonzero;fill:#8ac640;fill-opacity:1" d="m103.996 133.547 12.469 7.203-12.469 7.2ZM78.793 133.547l-12.477 7.2 12.477 7.202Zm0 0"/><path style="fill:none;stroke-width:4.513;stroke-linecap:butt;stroke-linejoin:round;stroke:#8ac640;stroke-opacity:1;stroke-miterlimit:10" d="M-15.427 508.274h-22.06" transform="matrix(1.33333 0 0 1.33333 126.667 -516)"/><path style="stroke:none;fill-rule:nonzero;fill:#8ac640;fill-opacity:1" d="m103.996 154.496 12.469 7.203-12.469 7.203ZM78.793 154.496 66.316 161.7l12.477 7.196Zm0 0"/><path style="fill:none;stroke-width:4.513;stroke-linecap:butt;stroke-linejoin:round;stroke:#8ac640;stroke-opacity:1;stroke-miterlimit:10" d="M231.405 401.74H209.34" transform="matrix(1.33333 0 0 1.33333 126.667 -516)"/><path style="stroke:none;fill-rule:nonzero;fill:#8ac640;fill-opacity:1" d="m433.098 12.45 12.476 7.202-12.476 7.203ZM407.895 12.45l-12.473 7.202 12.473 7.196Zm0 0"/><path style="fill:none;stroke-width:4.513;stroke-linecap:butt;stroke-linejoin:round;stroke:#8ac640;stroke-opacity:1;stroke-miterlimit:10" d="M231.405 417.448H209.34" transform="matrix(1.33333 0 0 1.33333 126.667 -516)"/><path style="stroke:none;fill-rule:nonzero;fill:#8ac640;fill-opacity:1" d="m433.098 33.402 12.476 7.196-12.476 7.203ZM407.895 33.395l-12.473 7.203 12.473 7.203Zm0 0"/><path style="fill:none;stroke-width:4.513;stroke-linecap:butt;stroke-linejoin:round;stroke:#8ac640;stroke-opacity:1;stroke-miterlimit:10" d="M231.405 492.563H209.34" transform="matrix(1.33333 0 0 1.33333 126.667 -516)"/><path style="stroke:none;fill-rule:nonzero;fill:#8ac640;fill-opacity:1" d="m433.098 133.547 12.476 7.203-12.476 7.2ZM407.895 133.547l-12.473 7.2 12.473 7.202Zm0 0"/><path style="fill:none;stroke-width:4.513;stroke-linecap:butt;stroke-linejoin:round;stroke:#8ac640;stroke-opacity:1;stroke-miterlimit:10" d="M231.405 508.274H209.34" transform="matrix(1.33333 0 0 1.33333 126.667 -516)"/><path style="stroke:none;fill-rule:nonzero;fill:#8ac640;fill-opacity:1" d="m433.098 154.496 12.476 7.203-12.476 7.203ZM407.895 154.496l-12.473 7.203 12.473 7.196Zm0 0"/><path style="fill:none;stroke-width:4.513;stroke-linecap:butt;stroke-linejoin:round;stroke:#8ac640;stroke-opacity:1;stroke-miterlimit:10" d="m138.112 402.437-83.912.474" transform="matrix(1.33333 0 0 1.33333 126.667 -516)"/><path style="stroke:none;fill-rule:nonzero;fill:#8ac640;fill-opacity:1" d="m310.816 13.348 12.47 7.199-12.474 7.203ZM201.035 14.012l-12.469 7.203 12.47 7.195Zm0 0"/><path style="fill:none;stroke-width:4.513;stroke-linecap:butt;stroke-linejoin:round;stroke:#8ac640;stroke-opacity:1;stroke-miterlimit:10" d="m138.112 418.148-83.912.472" transform="matrix(1.33333 0 0 1.33333 126.667 -516)"/><path style="stroke:none;fill-rule:nonzero;fill:#8ac640;fill-opacity:1" d="m310.816 34.297 12.47 7.2-12.474 7.202ZM201.035 34.957l-12.469 7.203 12.47 7.203Zm0 0"/><path style="fill:none;stroke-width:4.513;stroke-linecap:butt;stroke-linejoin:round;stroke:#8ac640;stroke-opacity:1;stroke-miterlimit:10" d="m138.112 493.263-83.912.471" transform="matrix(1.33333 0 0 1.33333 126.667 -516)"/><path style="stroke:none;fill-rule:nonzero;fill:#8ac640;fill-opacity:1" d="m310.816 134.441 12.47 7.204-12.474 7.203ZM201.035 135.11l-12.469 7.199 12.47 7.203Zm0 0"/><path style="fill:none;stroke-width:4.513;stroke-linecap:butt;stroke-linejoin:round;stroke:#8ac640;stroke-opacity:1;stroke-miterlimit:10" d="m138.112 508.972-83.912.474" transform="matrix(1.33333 0 0 1.33333 126.667 -516)"/><path style="stroke:none;fill-rule:nonzero;fill:#8ac640;fill-opacity:1" d="m310.816 155.395 12.47 7.199-12.474 7.203ZM201.035 156.059l-12.469 7.203 12.47 7.195Zm0 0"/><path style="fill:none;stroke-width:3.009;stroke-linecap:butt;stroke-linejoin:round;stroke:#76b900;stroke-opacity:1;stroke-miterlimit:10" d="M-92.504 585.047h41.095v41.089h-41.095Zm0 0" transform="matrix(1.33333 0 0 1.33333 126.667 -516)"/><path style="stroke:none;fill-rule:nonzero;fill:#000;fill-opacity:1" d="M32.398 299.156v-15.125h-1.394c-.102.574-.29 1.043-.563 1.418a3.09 3.09 0 0 1-.98.875c-.39.207-.828.356-1.313.438a9.973 9.973 0 0 1-1.5.105v1.457h3.938v10.832Zm0 0"/><path style="stroke:none;fill-rule:nonzero;fill:#8ac640;fill-opacity:1" d="M461.125 270.512h3.223v3.218h-3.223ZM465.957 270.512h3.227v3.218h-3.227ZM461.125 275.344h3.223v3.219h-3.223ZM465.957 275.344h3.227v3.219h-3.227ZM461.125 280.176h3.223v3.226h-3.223ZM465.957 280.176h3.227v3.226h-3.227ZM461.125 285.012h3.223v3.222h-3.223ZM461.125 289.844h3.223v3.222h-3.223ZM461.125 294.684h3.223v3.218h-3.223ZM461.125 299.516h3.223v3.218h-3.223ZM465.957 299.516h3.227v3.218h-3.227ZM461.125 304.348h3.223v3.226h-3.223ZM465.957 304.348h3.227v3.226h-3.227ZM461.125 309.184h3.223v3.222h-3.223ZM465.957 309.184h3.227v3.222h-3.227ZM470.797 270.512h3.219v3.218h-3.22ZM475.629 270.512h3.226v3.218h-3.226ZM470.797 275.344h3.219v3.219h-3.22ZM475.629 275.344h3.226v3.219h-3.226ZM470.797 304.348h3.219v3.226h-3.22ZM475.629 304.348h3.226v3.226h-3.226ZM470.797 309.184h3.219v3.222h-3.22ZM475.629 309.184h3.226v3.222h-3.226ZM480.465 270.512h3.223v3.218h-3.223ZM485.297 270.512h3.223v3.218h-3.223ZM480.465 275.344h3.223v3.219h-3.223ZM485.297 275.344h3.223v3.219h-3.223ZM480.465 304.348h3.223v3.226h-3.223ZM485.297 304.348h3.223v3.226h-3.223ZM480.465 309.184h3.223v3.222h-3.223ZM485.297 309.184h3.223v3.222h-3.223ZM490.129 270.512h3.226v3.218h-3.226ZM494.969 270.512h3.219v3.218h-3.22ZM490.129 275.344h3.226v3.219h-3.226ZM494.969 275.344h3.219v3.219h-3.22ZM494.969 280.176h3.219v3.226h-3.22ZM465.957 285.012h3.227v3.222h-3.227ZM465.957 289.844h3.227v3.222h-3.227ZM465.957 294.684h3.227v3.218h-3.227ZM494.969 285.012h3.219v3.222h-3.22ZM494.969 289.844h3.219v3.222h-3.22ZM494.969 294.684h3.219v3.218h-3.22ZM494.969 299.516h3.219v3.218h-3.22ZM490.129 304.348h3.226v3.226h-3.226ZM494.969 304.348h3.219v3.226h-3.22ZM490.129 309.184h3.226v3.222h-3.226ZM499.8 270.512h3.227v3.218h-3.226ZM499.8 275.344h3.227v3.219h-3.226ZM499.8 280.176h3.227v3.226h-3.226ZM499.8 285.012h3.227v3.222h-3.226ZM499.8 289.844h3.227v3.222h-3.226ZM499.8 294.684h3.227v3.218h-3.226ZM499.8 299.516h3.227v3.218h-3.226ZM499.8 304.348h3.227v3.226h-3.226ZM499.8 309.184h3.227v3.222h-3.226ZM494.969 309.184h3.219v3.222h-3.22Zm0 0"/><path style="fill:none;stroke-width:3.009;stroke-linecap:butt;stroke-linejoin:round;stroke:#76b900;stroke-opacity:1;stroke-miterlimit:10" d="M246.013 585.047h41.089v41.089h-41.09Zm0 0" transform="matrix(1.33333 0 0 1.33333 126.667 -516)"/><path style="stroke:none;fill-rule:nonzero;fill:#000;fill-opacity:1" d="M483.375 294.012h-5.086l5.043-7.395h.043Zm1.707 0v-9.98h-1.457l-6.875 9.835v1.75h6.625v3.54h1.707v-3.54h2.043v-1.605Zm0 0"/><path style="stroke:none;fill-rule:nonzero;fill:#76b900;fill-opacity:1" d="M454.684 285.012h3.218v12.89h-3.218ZM506.246 285.012h3.223v12.89h-3.223ZM488.52 264.063v3.222h-12.891v-3.223ZM488.52 315.629v3.219h-12.891v-3.22Zm0 0"/><path style="stroke:none;fill-rule:nonzero;fill:#8ac640;fill-opacity:1" d="M338.879 270.512h3.226v3.218h-3.226ZM343.715 270.512h3.223v3.218h-3.223ZM338.879 275.344h3.226v3.219h-3.226ZM343.715 275.344h3.223v3.219h-3.223ZM338.879 280.176h3.226v3.226h-3.226ZM343.715 280.176h3.223v3.226h-3.223ZM338.879 285.012h3.226v3.222h-3.226ZM338.879 289.844h3.226v3.222h-3.226ZM338.879 294.684h3.226v3.218h-3.226ZM338.879 299.516h3.226v3.218h-3.226ZM343.715 299.516h3.223v3.218h-3.223ZM338.879 304.348h3.226v3.226h-3.226ZM343.715 304.348h3.223v3.226h-3.223ZM338.879 309.184h3.226v3.222h-3.226ZM343.715 309.184h3.223v3.222h-3.223ZM348.55 270.512h3.22v3.218h-3.22ZM353.387 270.512h3.218v3.218h-3.218ZM348.55 275.344h3.22v3.219h-3.22ZM353.387 275.344h3.218v3.219h-3.218ZM348.55 304.348h3.22v3.226h-3.22ZM353.387 304.348h3.218v3.226h-3.218ZM348.55 309.184h3.22v3.222h-3.22ZM353.387 309.184h3.218v3.222h-3.218ZM358.219 270.512h3.222v3.218h-3.222ZM363.05 270.512h3.227v3.218h-3.226ZM358.219 275.344h3.222v3.219h-3.222ZM363.05 275.344h3.227v3.219h-3.226ZM358.219 304.348h3.222v3.226h-3.222ZM363.05 304.348h3.227v3.226h-3.226ZM358.219 309.184h3.222v3.222h-3.222ZM363.05 309.184h3.227v3.222h-3.226ZM367.887 270.512h3.222v3.218h-3.222ZM372.719 270.512h3.222v3.218h-3.222ZM367.887 275.344h3.222v3.219h-3.222ZM372.719 275.344h3.222v3.219h-3.222ZM372.719 280.176h3.222v3.226h-3.222ZM343.715 285.012h3.223v3.222h-3.223ZM343.715 289.844h3.223v3.222h-3.223ZM343.715 294.684h3.223v3.218h-3.223ZM372.719 285.012h3.222v3.222h-3.222ZM372.719 289.844h3.222v3.222h-3.222ZM372.719 294.684h3.222v3.218h-3.222ZM372.719 299.516h3.222v3.218h-3.222ZM367.887 304.348h3.222v3.226h-3.222ZM372.719 304.348h3.222v3.226h-3.222ZM367.887 309.184h3.222v3.222h-3.222ZM377.559 270.512h3.218v3.218h-3.218ZM377.559 275.344h3.218v3.219h-3.218ZM377.559 280.176h3.218v3.226h-3.218ZM377.559 285.012h3.218v3.222h-3.218ZM377.559 289.844h3.218v3.222h-3.218ZM377.559 294.684h3.218v3.218h-3.218ZM377.559 299.516h3.218v3.218h-3.218ZM377.559 304.348h3.218v3.226h-3.218ZM377.559 309.184h3.218v3.222h-3.218ZM372.719 309.184h3.222v3.222h-3.222Zm0 0"/><path style="fill:none;stroke-width:3.009;stroke-linecap:butt;stroke-linejoin:round;stroke:#76b900;stroke-opacity:1;stroke-miterlimit:10" d="M154.328 585.047h41.089v41.089h-41.089Zm0 0" transform="matrix(1.33333 0 0 1.33333 126.667 -516)"/><path style="stroke:none;fill-rule:nonzero;fill:#000;fill-opacity:1" d="M358.547 290.512v1.543a8.765 8.765 0 0 1 1.082-.063c.457 0 .879.063 1.27.188.402.113.742.289 1.023.539.289.25.52.558.687.918.164.363.25.781.25 1.25 0 .457-.093.87-.273 1.23a2.78 2.78 0 0 1-.727.914c-.293.25-.64.45-1.043.586-.39.125-.808.188-1.25.188-1.03 0-1.812-.305-2.355-.918-.54-.625-.828-1.422-.852-2.395h-1.812c-.016.781.086 1.473.312 2.082a4.16 4.16 0 0 0 1.02 1.563c.441.418.98.73 1.605.937a6.582 6.582 0 0 0 2.082.313c.72 0 1.395-.094 2.02-.27a4.6 4.6 0 0 0 1.648-.875 4.307 4.307 0 0 0 1.125-1.437c.274-.586.414-1.25.414-2 0-.903-.222-1.688-.664-2.356-.449-.676-1.136-1.113-2.062-1.312v-.043a4.041 4.041 0 0 0 1.5-1.188 2.916 2.916 0 0 0 .601-1.812c0-.707-.117-1.313-.351-1.813a3.39 3.39 0 0 0-.98-1.25 4.303 4.303 0 0 0-1.481-.75 6.372 6.372 0 0 0-1.813-.25c-.75 0-1.414.125-2 .375-.57.242-1.05.574-1.437 1-.375.418-.664.93-.875 1.524a6.683 6.683 0 0 0-.352 1.976h1.813c0-.426.05-.844.164-1.25.125-.398.297-.75.523-1.039a2.36 2.36 0 0 1 .895-.71c.375-.177.797-.27 1.27-.27.777 0 1.417.203 1.917.605.512.406.77 1.016.77 1.832 0 .39-.078.746-.227 1.063a2.32 2.32 0 0 1-.625.77c-.265.21-.574.37-.918.48a4.084 4.084 0 0 1-1.105.144h-.602a.806.806 0 0 1-.187-.02Zm0 0"/><path style="stroke:none;fill-rule:nonzero;fill:#76b900;fill-opacity:1" d="M332.438 285.012h3.218v12.89h-3.219ZM384 285.012h3.223v12.89H384ZM366.277 264.063v3.222h-12.89v-3.223ZM366.277 315.629v3.219h-12.89v-3.22Zm0 0"/><path style="stroke:none;fill-rule:nonzero;fill:#8ac640;fill-opacity:1" d="M132.02 270.512h3.226v3.218h-3.226ZM136.855 270.512h3.223v3.218h-3.223ZM132.02 275.344h3.226v3.219h-3.226ZM136.855 275.344h3.223v3.219h-3.223ZM132.02 280.176h3.226v3.226h-3.226ZM136.855 280.176h3.223v3.226h-3.223ZM132.02 285.012h3.226v3.222h-3.226ZM132.02 289.844h3.226v3.222h-3.226ZM132.02 294.684h3.226v3.218h-3.226ZM132.02 299.516h3.226v3.218h-3.226ZM136.855 299.516h3.223v3.218h-3.223ZM132.02 304.348h3.226v3.226h-3.226ZM136.855 304.348h3.223v3.226h-3.223ZM132.02 309.184h3.226v3.222h-3.226ZM136.855 309.184h3.223v3.222h-3.223ZM141.691 270.512h3.22v3.218h-3.22ZM146.527 270.512h3.22v3.218h-3.22ZM141.691 275.344h3.22v3.219h-3.22ZM146.527 275.344h3.22v3.219h-3.22ZM141.691 304.348h3.22v3.226h-3.22ZM146.527 304.348h3.22v3.226h-3.22ZM141.691 309.184h3.22v3.222h-3.22ZM146.527 309.184h3.22v3.222h-3.22ZM151.36 270.512h3.222v3.218h-3.223ZM156.191 270.512h3.227v3.218h-3.227ZM151.36 275.344h3.222v3.219h-3.223ZM156.191 275.344h3.227v3.219h-3.227ZM151.36 304.348h3.222v3.226h-3.223ZM156.191 304.348h3.227v3.226h-3.227ZM151.36 309.184h3.222v3.222h-3.223ZM156.191 309.184h3.227v3.222h-3.227ZM161.031 270.512h3.219v3.218h-3.219ZM165.863 270.512h3.219v3.218h-3.219ZM161.031 275.344h3.219v3.219h-3.219ZM165.863 275.344h3.219v3.219h-3.219ZM165.863 280.176h3.219v3.226h-3.219ZM136.855 285.012h3.223v3.222h-3.223ZM136.855 289.844h3.223v3.222h-3.223ZM136.855 294.684h3.223v3.218h-3.223ZM165.863 285.012h3.219v3.222h-3.219ZM165.863 289.844h3.219v3.222h-3.219ZM165.863 294.684h3.219v3.218h-3.219ZM165.863 299.516h3.219v3.218h-3.219ZM161.031 304.348h3.219v3.226h-3.219ZM165.863 304.348h3.219v3.226h-3.219ZM161.031 309.184h3.219v3.222h-3.219ZM170.7 270.512h3.222v3.218h-3.223ZM170.7 275.344h3.222v3.219h-3.223ZM170.7 280.176h3.222v3.226h-3.223ZM170.7 285.012h3.222v3.222h-3.223ZM170.7 289.844h3.222v3.222h-3.223ZM170.7 294.684h3.222v3.218h-3.223ZM170.7 299.516h3.222v3.218h-3.223ZM170.7 304.348h3.222v3.226h-3.223ZM170.7 309.184h3.222v3.222h-3.223ZM165.863 309.184h3.219v3.222h-3.219Zm0 0"/><path style="fill:none;stroke-width:3.009;stroke-linecap:butt;stroke-linejoin:round;stroke:#76b900;stroke-opacity:1;stroke-miterlimit:10" d="M-.816 585.047h41.088v41.089H-.816Zm0 0" transform="matrix(1.33333 0 0 1.33333 126.667 -516)"/><path style="stroke:none;fill-rule:nonzero;fill:#000;fill-opacity:1" d="M147.977 289.387h1.812a5.462 5.462 0 0 1 .125-1.356c.11-.441.281-.836.524-1.187.25-.36.562-.649.937-.875.383-.219.836-.332 1.352-.332a3.3 3.3 0 0 1 1.125.187c.359.125.671.313.937.563.262.238.469.52.625.855.168.332.25.707.25 1.125 0 .531-.082.992-.25 1.395-.164.39-.41.761-.726 1.105a8.296 8.296 0 0 1-1.211 1c-.489.332-1.051.703-1.688 1.102-.531.324-1.035.664-1.52 1.023a7.23 7.23 0 0 0-1.292 1.227 6.159 6.159 0 0 0-.938 1.648c-.25.625-.41 1.39-.476 2.29h9.875v-1.602h-7.774a2.84 2.84 0 0 1 .543-1.25c.277-.36.61-.696 1-1 .387-.32.816-.618 1.293-.899.469-.273.941-.55 1.414-.832.469-.3.922-.613 1.356-.937.44-.332.832-.7 1.167-1.106a4.88 4.88 0 0 0 .833-1.375c.207-.508.312-1.101.312-1.77 0-.706-.125-1.331-.375-1.874a3.941 3.941 0 0 0-1.02-1.356 4.503 4.503 0 0 0-1.5-.832 5.759 5.759 0 0 0-1.835-.293c-.805 0-1.52.14-2.145.418a4.195 4.195 0 0 0-1.562 1.125 4.622 4.622 0 0 0-.938 1.688c-.2.656-.27 1.363-.23 2.125Zm0 0"/><path style="stroke:none;fill-rule:nonzero;fill:#76b900;fill-opacity:1" d="M125.578 285.012h3.219v12.89h-3.219ZM177.145 285.012h3.218v12.89h-3.218ZM159.418 264.063v3.222h-12.89v-3.223ZM159.418 315.629v3.219h-12.89v-3.22Zm0 0"/><path style="stroke:none;fill-rule:nonzero;fill:#8ac640;fill-opacity:1" d="M9.777 270.512H13v3.218H9.777ZM14.61 270.512h3.222v3.218h-3.223ZM9.777 275.344H13v3.219H9.777ZM14.61 275.344h3.222v3.219h-3.223ZM9.777 280.176H13v3.226H9.777ZM14.61 280.176h3.222v3.226h-3.223ZM9.777 285.012H13v3.222H9.777ZM9.777 289.844H13v3.222H9.777ZM9.777 294.684H13v3.218H9.777ZM9.777 299.516H13v3.218H9.777ZM14.61 299.516h3.222v3.218h-3.223ZM9.777 304.348H13v3.226H9.777ZM14.61 304.348h3.222v3.226h-3.223ZM9.777 309.184H13v3.222H9.777ZM14.61 309.184h3.222v3.222h-3.223ZM19.441 270.512h3.227v3.218h-3.227ZM24.281 270.512H27.5v3.218h-3.219ZM19.441 275.344h3.227v3.219h-3.227ZM24.281 275.344H27.5v3.219h-3.219ZM19.441 304.348h3.227v3.226h-3.227ZM24.281 304.348H27.5v3.226h-3.219ZM19.441 309.184h3.227v3.222h-3.227ZM24.281 309.184H27.5v3.222h-3.219ZM29.113 270.512h3.219v3.218h-3.219ZM33.95 270.512h3.222v3.218h-3.223ZM29.113 275.344h3.219v3.219h-3.219ZM33.95 275.344h3.222v3.219h-3.223ZM29.113 304.348h3.219v3.226h-3.219ZM33.95 304.348h3.222v3.226h-3.223ZM29.113 309.184h3.219v3.222h-3.219ZM33.95 309.184h3.222v3.222h-3.223ZM38.781 270.512h3.223v3.218H38.78ZM43.613 270.512h3.227v3.218h-3.227ZM38.781 275.344h3.223v3.219H38.78ZM43.613 275.344h3.227v3.219h-3.227ZM43.613 280.035h3.227v3.227h-3.227ZM14.61 285.012h3.222v3.222h-3.223ZM14.61 289.844h3.222v3.222h-3.223ZM14.61 294.684h3.222v3.218h-3.223ZM43.613 285.012h3.227v3.222h-3.227ZM43.613 289.844h3.227v3.222h-3.227ZM43.613 294.684h3.227v3.218h-3.227ZM43.613 299.516h3.227v3.218h-3.227ZM38.781 304.348h3.223v3.226H38.78ZM43.613 304.348h3.227v3.226h-3.227ZM38.781 309.184h3.223v3.222H38.78ZM48.45 270.512h3.222v3.218h-3.223ZM48.45 275.344h3.222v3.219h-3.223ZM48.45 280.176h3.222v3.226h-3.223ZM48.45 285.012h3.222v3.222h-3.223ZM48.45 289.844h3.222v3.222h-3.223ZM48.45 294.684h3.222v3.218h-3.223ZM48.45 299.516h3.222v3.218h-3.223ZM48.45 304.348h3.222v3.226h-3.223ZM48.45 309.184h3.222v3.222h-3.223ZM43.613 309.184h3.227v3.222h-3.227Zm0 0"/><path style="stroke:none;fill-rule:nonzero;fill:#76b900;fill-opacity:1" d="M3.328 285.012h3.223v12.89H3.328ZM54.895 285.012h3.226v12.89h-3.226ZM37.172 264.063v3.222h-12.89v-3.223ZM37.172 315.629v3.219h-12.89v-3.22Zm0 0"/><path style="fill:none;stroke-width:4.513;stroke-linecap:butt;stroke-linejoin:round;stroke:#8ac640;stroke-opacity:1;stroke-miterlimit:10" d="M-71.457 571.89v-11.702h338.581v11.702" transform="matrix(1.33333 0 0 1.33333 126.667 -516)"/><path style="stroke:none;fill-rule:nonzero;fill:#8ac640;fill-opacity:1" d="m38.594 244.41-7.203 12.477-7.203-12.477ZM475.629 244.41l7.203 12.477 7.203-12.477Zm0 0"/><path style="fill:none;stroke-width:3.009;stroke-linecap:butt;stroke-linejoin:round;stroke:#76b900;stroke-opacity:1;stroke-miterlimit:10" d="M-.816 676.137h41.088v41.094H-.816Zm0 0" transform="matrix(1.33333 0 0 1.33333 126.667 -516)"/><path style="stroke:none;fill-rule:nonzero;fill:#000;fill-opacity:1" d="M157.895 407.3v-1.562h-9.793v1.707h7.937a24.967 24.967 0 0 0-2.226 2.774 20.57 20.57 0 0 0-1.836 3.164 22.336 22.336 0 0 0-1.27 3.5 19.457 19.457 0 0 0-.644 3.73h2.039c.07-1.175.261-2.394.585-3.644.333-1.25.754-2.465 1.27-3.649a25.585 25.585 0 0 1 1.793-3.332c.664-1.043 1.379-1.937 2.145-2.687Zm0 0"/><path style="stroke:none;fill-rule:nonzero;fill:#8ac640;fill-opacity:1" d="M461.125 391.965h3.223v3.219h-3.223ZM465.957 391.965h3.227v3.219h-3.227ZM461.125 396.797h3.223v3.223h-3.223ZM465.957 396.797h3.227v3.223h-3.227ZM461.125 401.629h3.223v3.226h-3.223ZM465.957 401.629h3.227v3.226h-3.227ZM461.125 406.465h3.223v3.223h-3.223ZM461.125 411.3h3.223v3.22h-3.223ZM461.125 416.137h3.223v3.222h-3.223ZM461.125 420.969h3.223v3.222h-3.223ZM465.957 420.969h3.227v3.222h-3.227ZM461.125 425.8h3.223v3.227h-3.223ZM465.957 425.8h3.227v3.227h-3.227ZM461.125 430.637h3.223v3.222h-3.223ZM465.957 430.637h3.227v3.222h-3.227ZM470.797 391.965h3.219v3.219h-3.22ZM475.629 391.965h3.226v3.219h-3.226ZM470.797 396.797h3.219v3.223h-3.22ZM475.629 396.797h3.226v3.223h-3.226ZM470.797 425.8h3.219v3.227h-3.22ZM475.629 425.8h3.226v3.227h-3.226ZM470.797 430.637h3.219v3.222h-3.22ZM475.629 430.637h3.226v3.222h-3.226ZM480.465 391.965h3.223v3.219h-3.223ZM485.297 391.965h3.223v3.219h-3.223ZM480.465 396.797h3.223v3.223h-3.223ZM485.297 396.797h3.223v3.223h-3.223ZM480.465 425.8h3.223v3.227h-3.223ZM485.297 425.8h3.223v3.227h-3.223ZM480.465 430.637h3.223v3.222h-3.223ZM485.297 430.637h3.223v3.222h-3.223ZM490.129 391.965h3.226v3.219h-3.226ZM494.969 391.965h3.219v3.219h-3.22ZM490.129 396.797h3.226v3.223h-3.226ZM494.969 396.797h3.219v3.223h-3.22ZM494.969 401.629h3.219v3.226h-3.22ZM465.957 406.465h3.227v3.223h-3.227ZM465.957 411.3h3.227v3.22h-3.227ZM465.957 416.137h3.227v3.222h-3.227ZM494.969 406.465h3.219v3.223h-3.22ZM494.969 411.3h3.219v3.22h-3.22ZM494.969 416.137h3.219v3.222h-3.22ZM494.969 420.969h3.219v3.222h-3.22ZM490.129 425.8h3.226v3.227h-3.226ZM494.969 425.8h3.219v3.227h-3.22ZM490.129 430.637h3.226v3.222h-3.226ZM499.8 391.965h3.227v3.219h-3.226ZM499.8 396.797h3.227v3.223h-3.226ZM499.8 401.629h3.227v3.226h-3.226ZM499.8 406.465h3.227v3.223h-3.226ZM499.8 411.3h3.227v3.22h-3.226ZM499.8 416.137h3.227v3.222h-3.226ZM499.8 420.969h3.227v3.222h-3.226ZM499.8 425.8h3.227v3.227h-3.226ZM499.8 430.637h3.227v3.222h-3.226ZM494.969 430.637h3.219v3.222h-3.22Zm0 0"/><path style="fill:none;stroke-width:3.009;stroke-linecap:butt;stroke-linejoin:round;stroke:#76b900;stroke-opacity:1;stroke-miterlimit:10" d="M246.013 676.137h41.089v41.094h-41.09Zm0 0" transform="matrix(1.33333 0 0 1.33333 126.667 -516)"/><path style="stroke:none;fill-rule:nonzero;fill:#000;fill-opacity:1" d="M486.164 407.344v-1.606h-7.457l-1.418 7.856 1.563.082c.359-.426.773-.77 1.23-1.02a3.13 3.13 0 0 1 1.582-.398c.512 0 .98.086 1.399.25.414.168.773.406 1.082.71.3.305.53.677.687 1.102.168.418.25.871.25 1.356 0 .597-.094 1.125-.27 1.582-.167.449-.398.824-.687 1.125a2.978 2.978 0 0 1-1.023.668c-.391.14-.801.207-1.227.207-.45 0-.867-.063-1.25-.188a2.905 2.905 0 0 1-.98-.582c-.282-.25-.5-.543-.668-.875a3.002 3.002 0 0 1-.27-1.082h-1.812c.011.696.144 1.313.394 1.852.262.531.61.98 1.043 1.355.441.364.95.64 1.52.832.586.18 1.199.274 1.855.274.887 0 1.656-.14 2.313-.418.668-.278 1.214-.645 1.644-1.106a4.67 4.67 0 0 0 1-1.601c.219-.61.336-1.235.336-1.875 0-.875-.137-1.633-.398-2.274a4.525 4.525 0 0 0-1.04-1.625 4.116 4.116 0 0 0-1.542-.957 5.476 5.476 0 0 0-1.895-.332c-.516 0-1.04.094-1.563.27-.515.168-.933.437-1.25.812l-.042-.043.793-4.351Zm0 0"/><path style="stroke:none;fill-rule:nonzero;fill:#76b900;fill-opacity:1" d="M454.684 406.465h3.218v12.894h-3.218ZM506.246 406.465h3.223v12.894h-3.223ZM488.52 385.516v3.222h-12.891v-3.222ZM488.52 437.082v3.227h-12.891v-3.227Zm0 0"/><path style="stroke:none;fill-rule:nonzero;fill:#8ac640;fill-opacity:1" d="M338.879 391.965h3.226v3.219h-3.226ZM343.715 391.965h3.223v3.219h-3.223ZM338.879 396.797h3.226v3.223h-3.226ZM343.715 396.797h3.223v3.223h-3.223ZM338.879 401.629h3.226v3.226h-3.226ZM343.715 401.629h3.223v3.226h-3.223ZM338.879 406.465h3.226v3.223h-3.226ZM338.879 411.3h3.226v3.22h-3.226ZM338.879 416.137h3.226v3.222h-3.226ZM338.879 420.969h3.226v3.222h-3.226ZM343.715 420.969h3.223v3.222h-3.223ZM338.879 425.8h3.226v3.227h-3.226ZM343.715 425.8h3.223v3.227h-3.223ZM338.879 430.637h3.226v3.222h-3.226ZM343.715 430.637h3.223v3.222h-3.223ZM348.55 391.965h3.22v3.219h-3.22ZM353.387 391.965h3.218v3.219h-3.218ZM348.55 396.797h3.22v3.223h-3.22ZM353.387 396.797h3.218v3.223h-3.218ZM348.55 425.8h3.22v3.227h-3.22ZM353.387 425.8h3.218v3.227h-3.218ZM348.55 430.637h3.22v3.222h-3.22ZM353.387 430.637h3.218v3.222h-3.218ZM358.219 391.965h3.222v3.219h-3.222ZM363.05 391.965h3.227v3.219h-3.226ZM358.219 396.797h3.222v3.223h-3.222ZM363.05 396.797h3.227v3.223h-3.226ZM358.219 425.8h3.222v3.227h-3.222ZM363.05 425.8h3.227v3.227h-3.226ZM358.219 430.637h3.222v3.222h-3.222ZM363.05 430.637h3.227v3.222h-3.226ZM367.887 391.965h3.222v3.219h-3.222ZM372.719 391.965h3.222v3.219h-3.222ZM367.887 396.797h3.222v3.223h-3.222ZM372.719 396.797h3.222v3.223h-3.222ZM372.719 401.629h3.222v3.226h-3.222ZM343.715 406.465h3.223v3.223h-3.223ZM343.715 411.3h3.223v3.22h-3.223ZM343.715 416.137h3.223v3.222h-3.223ZM372.719 406.465h3.222v3.223h-3.222ZM372.719 411.3h3.222v3.22h-3.222ZM372.719 416.137h3.222v3.222h-3.222ZM372.719 420.969h3.222v3.222h-3.222ZM367.887 425.8h3.222v3.227h-3.222ZM372.719 425.8h3.222v3.227h-3.222ZM367.887 430.637h3.222v3.222h-3.222ZM377.559 391.965h3.218v3.219h-3.218ZM377.559 396.797h3.218v3.223h-3.218ZM377.559 401.629h3.218v3.226h-3.218ZM377.559 406.465h3.218v3.223h-3.218ZM377.559 411.3h3.218v3.22h-3.218ZM377.559 416.137h3.218v3.222h-3.218ZM377.559 420.969h3.218v3.222h-3.218ZM377.559 425.8h3.218v3.227h-3.218ZM377.559 430.637h3.218v3.222h-3.218ZM372.719 430.637h3.222v3.222h-3.222Zm0 0"/><path style="fill:none;stroke-width:3.009;stroke-linecap:butt;stroke-linejoin:round;stroke:#76b900;stroke-opacity:1;stroke-miterlimit:10" d="M154.328 676.137h41.089v41.094h-41.089Zm0 0" transform="matrix(1.33333 0 0 1.33333 126.667 -516)"/><path style="stroke:none;fill-rule:nonzero;fill:#000;fill-opacity:1" d="M362.734 409.344h1.813c-.117-1.25-.543-2.2-1.293-2.856-.738-.668-1.73-1-2.98-1-1.083 0-1.977.23-2.688.688a5.17 5.17 0 0 0-1.707 1.812c-.418.75-.719 1.614-.895 2.582-.183.977-.273 1.98-.273 3.024 0 .789.055 1.617.168 2.476.125.852.375 1.637.75 2.356a4.786 4.786 0 0 0 1.582 1.75c.68.441 1.586.668 2.71.668.942 0 1.74-.164 2.395-.48.653-.317 1.172-.72 1.563-1.208a4.494 4.494 0 0 0 .832-1.625c.168-.594.25-1.172.25-1.73 0-.707-.102-1.36-.313-1.957a4.398 4.398 0 0 0-.914-1.543 4.038 4.038 0 0 0-1.46-1.043c-.57-.25-1.22-.375-1.938-.375-.82 0-1.55.164-2.188.48-.625.309-1.156.809-1.582 1.5l-.043-.043c.012-.582.07-1.207.168-1.875a6.521 6.521 0 0 1 .543-1.851 3.714 3.714 0 0 1 1.102-1.438c.469-.375 1.09-.562 1.855-.562.72 0 1.301.207 1.75.625.442.406.707.945.793 1.625Zm-2.73 3.144c.512 0 .957.094 1.332.27.387.183.71.433.96.75.259.308.446.668.563 1.086.125.414.188.863.188 1.332 0 .433-.074.855-.211 1.27-.125.406-.32.765-.582 1.085a2.66 2.66 0 0 1-.938.727c-.375.168-.812.25-1.312.25s-.95-.082-1.332-.25a2.888 2.888 0 0 1-.98-.707 3.39 3.39 0 0 1-.626-1.082 4.086 4.086 0 0 1-.207-1.313c0-.469.067-.918.207-1.336.137-.425.34-.797.606-1.101.273-.305.601-.543.976-.711.387-.176.84-.27 1.356-.27Zm0 0"/><path style="stroke:none;fill-rule:nonzero;fill:#76b900;fill-opacity:1" d="M332.438 406.465h3.218v12.894h-3.219ZM384 406.465h3.223v12.894H384ZM366.277 385.516v3.222h-12.89v-3.222ZM366.277 437.082v3.227h-12.89v-3.227Zm0 0"/><path style="stroke:none;fill-rule:nonzero;fill:#8ac640;fill-opacity:1" d="M132.02 391.965h3.226v3.219h-3.226ZM136.855 391.965h3.223v3.219h-3.223ZM132.02 396.797h3.226v3.223h-3.226ZM136.855 396.797h3.223v3.223h-3.223ZM132.02 401.629h3.226v3.226h-3.226ZM136.855 401.629h3.223v3.226h-3.223ZM132.02 406.465h3.226v3.223h-3.226ZM132.02 411.3h3.226v3.22h-3.226ZM132.02 416.137h3.226v3.222h-3.226ZM132.02 420.969h3.226v3.222h-3.226ZM136.855 420.969h3.223v3.222h-3.223ZM132.02 425.8h3.226v3.227h-3.226ZM136.855 425.8h3.223v3.227h-3.223ZM132.02 430.637h3.226v3.222h-3.226ZM136.855 430.637h3.223v3.222h-3.223ZM141.691 391.965h3.22v3.219h-3.22ZM146.527 391.965h3.22v3.219h-3.22ZM141.691 396.797h3.22v3.223h-3.22ZM146.527 396.797h3.22v3.223h-3.22ZM141.691 425.8h3.22v3.227h-3.22ZM146.527 425.8h3.22v3.227h-3.22ZM141.691 430.637h3.22v3.222h-3.22ZM146.527 430.637h3.22v3.222h-3.22ZM151.36 391.965h3.222v3.219h-3.223ZM156.191 391.965h3.227v3.219h-3.227ZM151.36 396.797h3.222v3.223h-3.223ZM156.191 396.797h3.227v3.223h-3.227ZM151.36 425.8h3.222v3.227h-3.223ZM156.191 425.8h3.227v3.227h-3.227ZM151.36 430.637h3.222v3.222h-3.223ZM156.191 430.637h3.227v3.222h-3.227ZM161.031 391.965h3.219v3.219h-3.219ZM165.863 391.965h3.219v3.219h-3.219ZM161.031 396.797h3.219v3.223h-3.219ZM165.863 396.797h3.219v3.223h-3.219ZM165.863 401.629h3.219v3.226h-3.219ZM136.855 406.465h3.223v3.223h-3.223ZM136.855 411.3h3.223v3.22h-3.223ZM136.855 416.137h3.223v3.222h-3.223ZM165.863 406.465h3.219v3.223h-3.219ZM165.863 411.3h3.219v3.22h-3.219ZM165.863 416.137h3.219v3.222h-3.219ZM165.863 420.969h3.219v3.222h-3.219ZM161.031 425.8h3.219v3.227h-3.219ZM165.863 425.8h3.219v3.227h-3.219ZM161.031 430.637h3.219v3.222h-3.219ZM170.7 391.965h3.222v3.219h-3.223ZM170.7 396.797h3.222v3.223h-3.223ZM170.7 401.629h3.222v3.226h-3.223ZM170.7 406.465h3.222v3.223h-3.223ZM170.7 411.3h3.222v3.22h-3.223ZM170.7 416.137h3.222v3.222h-3.223ZM170.7 420.969h3.222v3.222h-3.223ZM170.7 425.8h3.222v3.227h-3.223ZM170.7 430.637h3.222v3.222h-3.223ZM165.863 430.637h3.219v3.222h-3.219Zm0 0"/><path style="stroke:none;fill-rule:nonzero;fill:#76b900;fill-opacity:1" d="M125.578 406.465h3.219v12.894h-3.219ZM177.145 406.465h3.218v12.894h-3.218ZM159.418 385.516v3.222h-12.89v-3.222ZM159.418 437.082v3.227h-12.89v-3.227Zm0 0"/><path style="stroke:none;fill-rule:nonzero;fill:#8ac640;fill-opacity:1" d="M9.777 391.965H13v3.219H9.777ZM14.61 391.965h3.222v3.219h-3.223ZM9.777 396.797H13v3.223H9.777ZM14.61 396.797h3.222v3.223h-3.223ZM9.777 401.629H13v3.226H9.777ZM14.61 401.629h3.222v3.226h-3.223ZM9.777 406.465H13v3.223H9.777ZM9.777 411.3H13v3.22H9.777ZM9.777 416.137H13v3.222H9.777ZM9.777 420.969H13v3.222H9.777ZM14.61 420.969h3.222v3.222h-3.223ZM9.777 425.8H13v3.227H9.777ZM14.61 425.8h3.222v3.227h-3.223ZM9.777 430.637H13v3.222H9.777ZM14.61 430.637h3.222v3.222h-3.223ZM19.441 391.965h3.227v3.219h-3.227ZM24.281 391.965H27.5v3.219h-3.219ZM19.441 396.797h3.227v3.223h-3.227ZM24.281 396.797H27.5v3.223h-3.219ZM19.441 425.8h3.227v3.227h-3.227ZM24.281 425.8H27.5v3.227h-3.219ZM19.441 430.637h3.227v3.222h-3.227ZM24.281 430.637H27.5v3.222h-3.219ZM29.113 391.965h3.219v3.219h-3.219ZM33.95 391.965h3.222v3.219h-3.223ZM29.113 396.797h3.219v3.223h-3.219ZM33.95 396.797h3.222v3.223h-3.223ZM29.113 425.8h3.219v3.227h-3.219ZM33.95 425.8h3.222v3.227h-3.223ZM29.113 430.637h3.219v3.222h-3.219ZM33.95 430.637h3.222v3.222h-3.223ZM38.781 391.965h3.223v3.219H38.78ZM43.613 391.965h3.227v3.219h-3.227ZM38.781 396.797h3.223v3.223H38.78ZM43.613 396.797h3.227v3.223h-3.227ZM43.613 401.629h3.227v3.226h-3.227ZM14.61 406.465h3.222v3.223h-3.223ZM14.61 411.3h3.222v3.22h-3.223ZM14.61 416.137h3.222v3.222h-3.223ZM43.613 406.465h3.227v3.223h-3.227ZM43.613 411.3h3.227v3.22h-3.227ZM43.613 416.137h3.227v3.222h-3.227ZM43.613 420.969h3.227v3.222h-3.227ZM38.781 425.8h3.223v3.227H38.78ZM43.613 425.8h3.227v3.227h-3.227ZM38.781 430.637h3.223v3.222H38.78ZM48.45 391.965h3.222v3.219h-3.223ZM48.45 396.797h3.222v3.223h-3.223ZM48.45 401.629h3.222v3.226h-3.223ZM48.45 406.465h3.222v3.223h-3.223ZM48.45 411.3h3.222v3.22h-3.223ZM48.45 416.137h3.222v3.222h-3.223ZM48.45 420.969h3.222v3.222h-3.223ZM48.45 425.8h3.222v3.227h-3.223ZM48.45 430.637h3.222v3.222h-3.223ZM43.613 430.637h3.227v3.222h-3.227Zm0 0"/><path style="fill:none;stroke-width:3.009;stroke-linecap:butt;stroke-linejoin:round;stroke:#76b900;stroke-opacity:1;stroke-miterlimit:10" d="M-92.504 676.137h41.095v41.094h-41.095Zm0 0" transform="matrix(1.33333 0 0 1.33333 126.667 -516)"/><path style="stroke:none;fill-rule:nonzero;fill:#000;fill-opacity:1" d="M28.105 409.406c0-.375.07-.699.211-.98.133-.293.32-.531.563-.73.234-.208.508-.36.832-.458a3.8 3.8 0 0 1 1.043-.144c.734 0 1.336.195 1.812.582.485.39.727.969.727 1.73 0 .781-.238 1.383-.707 1.813-.473.414-1.074.625-1.793.625-.375 0-.727-.047-1.063-.149a2.45 2.45 0 0 1-.851-.437 2.07 2.07 0 0 1-.563-.77c-.14-.3-.21-.668-.21-1.082Zm-1.914-.062c0 .68.188 1.312.563 1.894a3.31 3.31 0 0 0 1.539 1.25c-.863.293-1.52.77-1.977 1.438-.449.668-.668 1.449-.668 2.332 0 .765.13 1.437.395 2.023.262.57.625 1.051 1.086 1.438.457.39 1 .676 1.625.851.633.18 1.316.274 2.039.274a6.56 6.56 0 0 0 1.96-.293 4.372 4.372 0 0 0 1.583-.875 4.542 4.542 0 0 0 1.062-1.457c.262-.57.395-1.219.395-1.961 0-.926-.223-1.719-.664-2.375-.434-.649-1.106-1.113-2.024-1.395a3.625 3.625 0 0 0 1.524-1.27c.383-.57.582-1.195.582-1.874 0-.469-.094-.938-.27-1.399a3.421 3.421 0 0 0-.793-1.25c-.363-.36-.832-.648-1.418-.875-.582-.218-1.285-.332-2.101-.332-.586 0-1.149.094-1.688.27-.53.168-1 .418-1.418.75a3.428 3.428 0 0 0-.98 1.187c-.238.477-.352 1.024-.352 1.649Zm1.375 7c0-.446.082-.84.25-1.188a2.63 2.63 0 0 1 .688-.918c.289-.261.629-.457 1.02-.582.386-.136.8-.21 1.25-.21.417 0 .812.077 1.187.23.387.14.719.344 1 .605.293.25.512.551.668.895.164.347.25.73.25 1.144 0 .434-.078.828-.23 1.188-.141.351-.348.656-.626.918a3.115 3.115 0 0 1-.98.625c-.375.14-.79.207-1.25.207-.945 0-1.723-.254-2.332-.77-.598-.511-.895-1.23-.895-2.144Zm0 0"/><path style="stroke:none;fill-rule:nonzero;fill:#76b900;fill-opacity:1" d="M3.328 406.465h3.223v12.894H3.328ZM54.895 406.465h3.226v12.894h-3.226ZM37.172 385.516v3.222H24.277v-3.222ZM37.172 437.082v3.227H24.277v-3.227Zm0 0"/></svg>