<svg xmlns="http://www.w3.org/2000/svg" stroke-miterlimit="10" stroke-linecap="square" fill="none" viewBox="0 0 411.021 159.58"><clipPath id="a"><path d="M0 0h411.021v159.58H0V0z"/></clipPath><g clip-path="url(#a)"><path fill-rule="evenodd" d="M0 0h411.021v159.58H0z" fill="#fff"/><path fill-rule="evenodd" d="M1.795 36.436c0-10.333 8.377-18.709 18.71-18.709h149.542a18.709 18.709 0 0 1 18.709 18.71v74.833c0 10.333-8.376 18.709-18.71 18.709H20.505c-10.332 0-18.709-8.376-18.709-18.709z" fill="#fff"/><path d="M1.795 36.436c0-10.333 8.377-18.709 18.71-18.709h149.542a18.709 18.709 0 0 1 18.709 18.71v74.833c0 10.333-8.376 18.709-18.71 18.709H20.505c-10.332 0-18.709-8.376-18.709-18.709z" stroke-linecap="butt" stroke-linejoin="round" stroke="#000"/><path d="M17.056 41.373v-6.219h.953v.938q.36-.656.657-.86.312-.218.687-.218.531 0 1.078.328l-.36.984q-.39-.234-.765-.234-.36 0-.64.219-.266.203-.375.578-.188.562-.188 1.218v3.266h-1.047zm8.074-.766q-.593.5-1.14.704-.531.203-1.156.203-1.032 0-1.579-.5-.546-.5-.546-1.282 0-.453.203-.828.203-.39.547-.61.343-.233.765-.343.297-.094.938-.172 1.265-.14 1.875-.36v-.265q0-.656-.297-.922-.406-.343-1.203-.343-.735 0-1.094.265-.36.25-.531.907l-1.032-.141q.141-.656.47-1.063.327-.406.937-.625.61-.218 1.406-.218.797 0 1.297.187.5.188.734.469.235.281.328.719.047.265.047.968v1.407q0 1.468.063 1.859.078.39.28.75h-1.108q-.157-.328-.204-.766zm-.093-2.359q-.578.234-1.72.406-.655.094-.92.219-.267.11-.423.328-.14.219-.14.5 0 .422.312.703.328.282.938.282.609 0 1.078-.266.484-.266.703-.734.172-.36.172-1.047v-.391zm2.658 5.516-.125-.985q.344.094.61.094.343 0 .546-.125.219-.11.36-.312.093-.172.328-.797.015-.078.093-.25l-2.375-6.235h1.141l1.297 3.594q.25.688.453 1.453.188-.734.438-1.422l1.328-3.625h1.047l-2.36 6.328q-.39 1.016-.594 1.407-.28.53-.656.765-.36.25-.86.25-.296 0-.671-.14zm5.453-2.391V40.17h1.203v1.203h-1.203zm7.068 0v-.781q-.593.922-1.734.922-.75 0-1.375-.407-.625-.421-.969-1.156-.344-.734-.344-1.687 0-.922.313-1.688.312-.765.937-1.156.625-.406 1.391-.406.563 0 1 .234.438.234.719.61v-3.079H41.2v8.594h-.985zm-3.328-3.11q0 1.204.5 1.798.5.578 1.188.578.687 0 1.172-.563.484-.562.484-1.719 0-1.28-.5-1.875-.484-.593-1.203-.593-.703 0-1.172.578-.469.562-.469 1.797zm10.033 2.344q-.593.5-1.14.704-.531.203-1.156.203-1.032 0-1.579-.5-.546-.5-.546-1.282 0-.453.203-.828.203-.39.547-.61.343-.233.765-.343.297-.094.938-.172 1.265-.14 1.875-.36v-.265q0-.656-.297-.922-.406-.343-1.203-.343-.735 0-1.094.265-.36.25-.531.907l-1.032-.141q.141-.656.47-1.063.327-.406.937-.625.61-.218 1.406-.218.797 0 1.297.187.5.188.734.469.235.281.328.719.047.265.047.968v1.407q0 1.468.063 1.859.078.39.28.75h-1.108q-.157-.328-.204-.766zm-.093-2.359q-.578.234-1.72.406-.655.094-.92.219-.267.11-.423.328-.14.219-.14.5 0 .422.312.703.328.282.938.282.609 0 1.078-.266.484-.266.703-.734.172-.36.172-1.047v-.391zm5.002 2.188.156.921q-.453.094-.797.094-.578 0-.89-.172-.313-.187-.454-.484-.125-.297-.125-1.25v-3.578h-.765v-.813h.765v-1.547l1.047-.625v2.172h1.063v.813h-1.063v3.64q0 .454.047.579.063.125.188.203.125.078.359.078.187 0 .469-.031zm5.1.171q-.594.5-1.141.704-.532.203-1.157.203-1.03 0-1.578-.5-.547-.5-.547-1.282 0-.453.204-.828.203-.39.546-.61.344-.233.766-.343.297-.094.938-.172 1.265-.14 1.875-.36v-.265q0-.656-.297-.922-.407-.343-1.203-.343-.735 0-1.094.265-.36.25-.531.907l-1.032-.141q.14-.656.469-1.063.328-.406.938-.625.609-.218 1.406-.218.797 0 1.297.187.5.188.734.469.234.281.328.719.047.265.047.968v1.407q0 1.468.063 1.859.078.39.28.75h-1.109q-.156-.328-.203-.766zm-.094-2.359q-.579.234-1.72.406-.655.094-.921.219-.266.11-.422.328-.14.219-.14.5 0 .422.312.703.328.282.937.282.61 0 1.079-.266.484-.266.703-.734.172-.36.172-1.047v-.391zm3.001 3.125V40.17h1.204v1.203h-1.204zm3.163 0v-8.594h2.968q1 0 1.532.125.734.172 1.25.61.687.578 1.015 1.484.344.89.344 2.031 0 .985-.234 1.735-.22.75-.579 1.25t-.796.78q-.422.282-1.016.438-.594.141-1.375.141h-3.11zm1.14-1.016h1.828q.86 0 1.344-.156.484-.156.766-.453.406-.39.625-1.078.234-.688.234-1.656 0-1.344-.453-2.063-.438-.734-1.063-.984-.468-.172-1.468-.172H64.14v6.562zm11.463.25q-.594.5-1.14.704-.532.203-1.157.203-1.031 0-1.578-.5-.547-.5-.547-1.282 0-.453.203-.828.203-.39.547-.61.344-.233.766-.343.297-.094.937-.172 1.266-.14 1.875-.36v-.265q0-.656-.297-.922-.406-.343-1.203-.343-.734 0-1.093.265-.36.25-.532.907l-1.03-.141q.14-.656.468-1.063.328-.406.937-.625.61-.218 1.407-.218.796 0 1.296.187.5.188.735.469.234.281.328.719.047.265.047.968v1.407q0 1.468.062 1.859.078.39.282.75h-1.11q-.156-.328-.203-.766zm-.094-2.359q-.578.234-1.718.406-.657.094-.922.219-.266.11-.422.328-.14.219-.14.5 0 .422.312.703.328.282.937.282.61 0 1.078-.266.485-.266.703-.734.172-.36.172-1.047v-.391zm5.002 2.188.157.921q-.454.094-.797.094-.578 0-.891-.172-.312-.187-.453-.484-.125-.297-.125-1.25v-3.578h-.766v-.813h.766v-1.547l1.047-.625v2.172h1.062v.813H79.45v3.64q0 .454.047.579.062.125.187.203.125.078.36.078.187 0 .468-.031zm5.1.171q-.594.5-1.14.704-.532.203-1.157.203-1.031 0-1.578-.5-.547-.5-.547-1.282 0-.453.203-.828.203-.39.547-.61.344-.233.766-.343.297-.094.937-.172 1.266-.14 1.875-.36v-.265q0-.656-.297-.922-.406-.343-1.203-.343-.734 0-1.094.265-.359.25-.53.907l-1.032-.141q.14-.656.469-1.063.328-.406.937-.625.61-.218 1.406-.218.797 0 1.297.187.5.188.735.469.234.281.328.719.047.265.047.968v1.407q0 1.468.062 1.859.078.39.281.75h-1.109q-.156-.328-.203-.766zm-.094-2.359q-.578.234-1.719.406-.656.094-.921.219-.266.11-.422.328-.141.219-.141.5 0 .422.313.703.328.282.937.282.61 0 1.078-.266.485-.266.703-.734.172-.36.172-1.047v-.391zm2.283 1.266 1.032-.157q.093.625.484.954.406.328 1.14.328.72 0 1.063-.282.36-.296.36-.703 0-.36-.313-.562-.219-.14-1.078-.36-1.156-.296-1.61-.5-.437-.218-.671-.593-.235-.375-.235-.844 0-.406.188-.766.187-.36.515-.593.25-.172.672-.297.422-.125.922-.125.719 0 1.266.218.562.204.828.563.265.36.36.953l-1.032.14q-.063-.468-.406-.734-.328-.281-.953-.281-.72 0-1.032.25-.312.234-.312.563 0 .203.125.359.14.172.406.281.156.063.938.266 1.125.312 1.562.5.438.187.688.547.25.359.25.906 0 .531-.313 1-.297.453-.875.719-.578.25-1.312.25-1.22 0-1.86-.5-.625-.516-.797-1.5zm10.672-.141 1.094.125q-.25.953-.953 1.484-.703.532-1.781.532-1.36 0-2.172-.844-.797-.844-.797-2.36 0-1.562.812-2.421.813-.875 2.094-.875 1.25 0 2.031.843.797.844.797 2.391v.281h-4.64q.062 1.032.578 1.578.515.532 1.297.532.578 0 .984-.297.422-.313.656-.969zM95.02 37.67h3.469q-.063-.797-.39-1.188-.516-.609-1.313-.609-.735 0-1.235.484-.484.485-.53 1.313zm8.174 2.766.156.921q-.453.094-.797.094-.578 0-.89-.172-.313-.187-.453-.484-.125-.297-.125-1.25v-3.578h-.766v-.813h.766v-1.547l1.046-.625v2.172h1.063v.813h-1.063v3.64q0 .454.047.579.063.125.188.203.125.078.36.078.187 0 .468-.031zM62.775 67.142h-.64v-8.015h.64v8.015zm8.156-7.125-.11 1.829h-.64l-.11-1.829h.86zm1.516 0-.11 1.829h-.64l-.11-1.829h.86zm4.68 5.375q-.266.094-.547.141-.282.063-.578.063-.922 0-1.422-.5-.5-.516-.5-1.485 0-.469.14-.844t.407-.64q.265-.281.625-.422.359-.156.796-.156.313 0 .579.047.265.046.5.14v.656q-.25-.14-.516-.203-.266-.062-.547-.062-.266 0-.5.11-.219.093-.406.28-.172.188-.281.47-.094.265-.094.593 0 .719.344 1.078.343.344.968.344.266 0 .532-.063.265-.062.5-.187v.64zm4.773-1.859q0 .469-.14.844-.126.375-.376.656-.234.266-.578.422-.344.156-.797.156-.422 0-.75-.125-.328-.14-.562-.39-.235-.266-.36-.641t-.125-.86q0-.453.125-.828.141-.39.375-.656.25-.265.594-.422.344-.156.781-.156.422 0 .75.14.344.126.579.376.234.25.359.625.125.375.125.859zm-.703.031q0-.36-.078-.625-.078-.281-.235-.453-.14-.187-.359-.281-.203-.094-.469-.094-.312 0-.531.125-.203.125-.344.328-.14.188-.203.453-.062.266-.062.547 0 .375.078.657.078.265.218.453.157.172.36.265.219.094.484.094.297 0 .516-.125.219-.125.36-.312.14-.204.202-.47.063-.265.063-.562zm3.023-3h-1.172v-.547h1.86v4.954h1.156v.562h-3.14v-.562h1.296v-4.407zm6.32 4.969h-3.203v-.64h1.313v-3.72l-1.219.657-.25-.578 1.625-.844h.594v4.484h1.14v.641zm2.383-5.516-.109 1.829h-.64l-.11-1.829h.86zm1.516 0-.11 1.829h-.64l-.11-1.829h.86zm12.32 7.125h-.64v-8.015h.64v8.015zm8.157-7.125-.11 1.829h-.64l-.11-1.829h.86zm1.515 0-.11 1.829h-.64l-.11-1.829h.86zm4.68 5.375q-.266.094-.547.141-.281.063-.578.063-.922 0-1.422-.5-.5-.516-.5-1.485 0-.469.14-.844.141-.375.407-.64.266-.281.625-.422.36-.156.797-.156.312 0 .578.047.266.046.5.14v.656q-.25-.14-.516-.203-.265-.062-.547-.062-.265 0-.5.11-.218.093-.406.28-.172.188-.281.47-.094.265-.094.593 0 .719.344 1.078.344.344.969.344.265 0 .53-.063.267-.062.5-.187v.64zm4.773-1.859q0 .469-.14.844-.125.375-.375.656-.235.266-.578.422-.344.156-.797.156-.422 0-.75-.125-.328-.14-.563-.39-.234-.266-.36-.641-.124-.375-.124-.86 0-.453.125-.828.14-.39.375-.656.25-.265.594-.422.343-.156.78-.156.423 0 .75.14.345.126.579.376.234.25.36.625.124.375.124.859zm-.703.031q0-.36-.078-.625-.078-.281-.234-.453-.14-.187-.36-.281-.203-.094-.468-.094-.313 0-.532.125-.203.125-.343.328-.141.188-.204.453-.062.266-.062.547 0 .375.078.657.078.265.219.453.156.172.36.265.218.094.484.094.296 0 .515-.125.219-.125.36-.312.14-.204.203-.47.062-.265.062-.562zm3.024-3h-1.172v-.547h1.86v4.954h1.155v.562h-3.14v-.562h1.297v-4.407zm6.367 4.969h-3.36v-.61l1.313-1.312q.328-.328.531-.562.203-.235.313-.422.125-.188.156-.36.047-.171.047-.375 0-.187-.063-.359-.047-.172-.156-.297-.094-.125-.266-.203-.171-.078-.406-.078-.328 0-.594.156-.265.14-.484.36l-.375-.438q.297-.312.672-.484.375-.188.875-.188.344 0 .61.11.28.093.484.28.203.188.312.47.125.28.125.625 0 .296-.078.546-.078.25-.25.5-.156.235-.39.5-.235.266-.563.594l-.938.89h2.485v.657zm2.336-5.516-.11 1.829h-.64l-.11-1.829h.86zm1.515 0-.109 1.829h-.64l-.11-1.829h.86zM19.65 73.72h-2.344v-.64h2.344v.64zm4.398 0h-2.343v-.64h2.343v.64zm4.399 0h-2.344v-.64h2.344v.64zm4.398 0h-2.343v-.64h2.343v.64zm4.399 0H34.9v-.64h2.344v.64zm4.398 0h-2.344v-.64h2.344v.64zm4.399 0h-2.344v-.64h2.344v.64zm4.398 0h-2.344v-.64h2.344v.64zm4.398 0h-2.343v-.64h2.343v.64zm4.399 0h-2.344v-.64h2.344v.64zm5.101-.015h-1.546v1.594h-.672v-1.594h-1.532v-.594h1.532v-1.594h.672v1.594h1.546v.594zm3.696.016h-2.344v-.641h2.344v.64zm4.398 0h-2.344v-.641h2.344v.64zm4.399 0h-2.344v-.641h2.344v.64zm4.398 0h-2.344v-.641h2.344v.64zm4.399 0h-2.344v-.641h2.344v.64zm4.398 0h-2.344v-.641h2.344v.64zm4.398 0H92.08v-.641h2.343v.64zm4.399 0h-2.344v-.641h2.344v.64zm4.398 0h-2.343v-.641h2.343v.64zm5.102-.016h-1.547v1.594h-.672v-1.594h-1.531v-.594h1.531v-1.594h.672v1.594h1.547v.594zm3.695.016h-2.344v-.641h2.344v.64zm4.399 0h-2.344v-.641h2.344v.64zm4.398 0h-2.344v-.641h2.344v.64zm4.398 0h-2.343v-.641h2.343v.64zm4.399 0h-2.344v-.641h2.344v.64zm4.398 0h-2.343v-.641h2.343v.64zm4.399 0h-2.344v-.641h2.344v.64zm4.398 0h-2.344v-.641h2.344v.64zm4.399 0h-2.344v-.641h2.344v.64zm4.398 0h-2.344v-.641h2.344v.64zM20.166 85.533h-3.204v-.64h1.313v-3.72l-1.219.657-.25-.578 1.625-.844h.594v4.484h1.14v.641zm3.882-1.812h-2.343v-.641h2.343v.64zm4.914 1.812H25.76v-.64h1.313v-3.72l-1.219.657-.25-.578 1.625-.844h.594v4.484h1.14v.641zm4.57-2.547q0 .578-.124 1.063-.11.484-.36.828-.234.344-.593.547-.344.187-.828.187-.407 0-.75-.156-.329-.156-.563-.469-.234-.328-.375-.828-.125-.5-.125-1.172 0-.594.11-1.078.124-.484.359-.828.25-.344.594-.531.359-.188.828-.188.422 0 .75.156.343.141.578.47.234.327.36.827.14.485.14 1.172zm-.687.016q0-.125-.015-.25-.016-.14-.016-.266l-2.172 1.61q.063.203.156.375.094.171.22.296.124.11.28.188.172.062.375.062.266 0 .485-.125.219-.125.36-.375.155-.265.234-.64.093-.375.093-.875zm-2.343-.047v.25q0 .11.015.234l2.156-1.61q-.046-.187-.14-.343-.094-.172-.219-.297t-.281-.187q-.156-.063-.36-.063-.265 0-.484.125-.219.125-.375.39-.14.25-.234.626-.078.375-.078.875zm7.43.031q0 .578-.126 1.063-.11.484-.36.828-.234.344-.593.547-.344.187-.828.187-.406 0-.75-.156-.328-.156-.563-.469-.234-.328-.375-.828-.125-.5-.125-1.172 0-.594.11-1.078.125-.484.36-.828.25-.344.593-.531.36-.188.828-.188.422 0 .75.156.344.141.578.47.235.327.36.827.14.485.14 1.172zm-.688.016q0-.125-.016-.25-.016-.14-.016-.266l-2.171 1.61q.062.203.156.375.094.171.219.296.125.11.28.188.173.062.376.062.265 0 .484-.125.219-.125.36-.375.156-.265.234-.64.094-.375.094-.875zm-2.344-.047v.25q0 .11.016.234l2.156-1.61q-.047-.187-.14-.343-.095-.172-.22-.297t-.28-.187q-.157-.063-.36-.063-.266 0-.485.125-.218.125-.375.39-.14.25-.234.626-.078.375-.078.875zm7.43.031q0 .578-.125 1.063-.11.484-.36.828-.234.344-.593.547-.344.187-.829.187-.406 0-.75-.156-.328-.156-.562-.469-.234-.328-.375-.828-.125-.5-.125-1.172 0-.594.11-1.078.124-.484.359-.828.25-.344.593-.531.36-.188.829-.188.421 0 .75.156.343.141.578.47.234.327.359.827.14.485.14 1.172zm-.688.016q0-.125-.015-.25-.016-.14-.016-.266l-2.172 1.61q.063.203.156.375.094.171.219.296.125.11.281.188.172.062.375.062.266 0 .485-.125.218-.125.359-.375.156-.265.234-.64.094-.375.094-.875zm-2.344-.047v.25q0 .11.016.234l2.156-1.61q-.047-.187-.14-.343-.094-.172-.22-.297-.124-.125-.28-.187-.157-.063-.36-.063-.265 0-.484.125-.219.125-.375.39-.14.25-.234.626-.079.375-.079.875zm23.477 4.187h-.64v-8.015h.64v8.015zm14.867-4.203q0 .688-.172 1.188-.156.5-.437.828-.266.328-.64.5-.36.156-.782.156-.484 0-.86-.172-.359-.187-.609-.515-.234-.344-.36-.828-.109-.485-.109-1.094 0-.672.157-1.172.172-.5.437-.828.281-.328.64-.485.376-.156.782-.156.5 0 .86.188.374.172.609.5.25.328.36.812.124.485.124 1.078zm-.719.063q0-.453-.078-.828-.062-.375-.218-.641-.157-.266-.391-.406-.234-.156-.578-.156-.328 0-.563.156-.234.156-.39.437-.157.266-.235.625-.062.36-.062.782 0 .453.062.828.078.359.219.64.156.266.39.422.235.14.579.14.328 0 .562-.155.235-.172.39-.438.157-.266.235-.625.078-.375.078-.781zm4.914.5q0 .484-.14.875-.14.375-.39.656-.235.266-.595.406-.359.14-.796.14-.36 0-.72-.062-.359-.078-.718-.218v-5.282h.688v1.516l-.032.719q.282-.39.61-.547.343-.172.734-.172.328 0 .578.14.266.141.438.407.172.25.25.61.093.359.093.812zm-.703.031q0-.312-.047-.562-.046-.266-.14-.438-.094-.187-.25-.297-.156-.11-.36-.11-.125 0-.265.048-.125.047-.281.14-.141.094-.297.25-.157.157-.328.39v1.907q.187.078.39.125.219.047.406.047.235 0 .438-.078.219-.078.375-.25.172-.172.266-.453.093-.297.093-.719zm4.399-1.922v3.844q0 .422-.125.734-.11.328-.328.547-.22.219-.547.328-.313.11-.703.11-.297 0-.578-.063-.266-.047-.485-.14v-.641q.125.062.25.11.14.046.281.077.157.047.297.063.157.016.297.016.453 0 .703-.282.25-.281.25-.828v-3.312h-1.922v-.563h2.61zm-.406-1.64q.109 0 .203.046.109.032.172.11.078.062.109.172.047.093.047.203 0 .11-.047.203-.031.094-.11.172-.062.078-.171.125-.094.031-.203.031-.11 0-.22-.031-.093-.047-.171-.125-.063-.078-.11-.172-.03-.094-.03-.203 0-.11.03-.203.047-.11.11-.172.078-.078.172-.11.11-.046.219-.046zm5.46 3.39v.25q0 .094-.015.172h-2.75q0 .61.328.938.344.312.969.312.172 0 .343-.016l.329-.03q.171-.032.312-.048.156-.031.281-.078v.563q-.28.078-.64.125-.344.062-.719.062-.5 0-.875-.14-.36-.141-.594-.391-.219-.266-.344-.64-.109-.391-.109-.86 0-.422.125-.781.125-.375.344-.657.234-.28.562-.437.328-.172.75-.172t.735.14q.312.126.531.36.219.234.328.578.11.328.11.75zm-.703-.094q.016-.265-.047-.484-.062-.219-.203-.375-.125-.156-.328-.234-.187-.094-.453-.094-.219 0-.406.094-.172.078-.313.234-.125.156-.218.375-.079.219-.094.484h2.062zm4.836 2.125q-.265.094-.547.141-.28.063-.578.063-.922 0-1.422-.5-.5-.516-.5-1.485 0-.469.141-.844.14-.375.406-.64.266-.281.625-.422.36-.156.797-.156.313 0 .578.047.266.046.5.14v.656q-.25-.14-.515-.203-.266-.062-.547-.062-.266 0-.5.11-.219.093-.406.28-.172.188-.282.47-.093.265-.093.593 0 .719.343 1.078.344.344.969.344.266 0 .531-.063.266-.062.5-.187v.64zm4.508.079q-.219.062-.469.093-.25.032-.5.032-.734 0-1.109-.329-.36-.343-.36-1.046v-2.047h-1.093v-.563h1.094v-1.078l.687-.172v1.25h1.75v.563h-1.75v2q0 .422.219.64.219.203.656.203.188 0 .406-.03.235-.032.47-.095v.579zm4.727.062h-.782l-.765-1.64q-.094-.188-.188-.297-.078-.125-.187-.204-.094-.078-.219-.109t-.281-.031h-.328v2.281h-.688v-5.11h1.36q.453 0 .765.11.328.094.531.266.204.172.297.422.094.25.094.546 0 .235-.078.454-.063.218-.203.39-.14.172-.344.297-.203.125-.469.188.219.078.36.265.156.188.312.485l.813 1.687zm-1.11-3.703q0-.406-.265-.61-.25-.203-.72-.203h-.655v1.688h.562q.25 0 .438-.063.203-.062.343-.171.141-.11.22-.266.077-.172.077-.375zm5.336 1.531v.25q0 .094-.015.172h-2.75q0 .61.328.938.343.312.968.312.172 0 .344-.016l.328-.03q.172-.032.313-.048.156-.031.281-.078v.563q-.281.078-.64.125-.344.062-.72.062-.5 0-.874-.14-.36-.141-.594-.391-.219-.266-.344-.64-.11-.391-.11-.86 0-.422.126-.781.125-.375.344-.657.234-.28.562-.437.328-.172.75-.172t.734.14q.313.126.532.36.218.234.328.578.11.328.11.75zm-.703-.094q.016-.265-.047-.484-.062-.219-.203-.375-.125-.156-.328-.234-.188-.094-.453-.094-.219 0-.406.094-.172.078-.313.234-.125.156-.219.375-.078.219-.093.484h2.062zm5.274-2.625q-.532-.109-.922-.109-.922 0-.922.953v.688h1.719v.578h-1.72v2.781h-.687v-2.781h-1.265v-.578h1.265v-.641q0-1.562 1.625-1.562.407 0 .907.093v.578zm-4.11.97zm7.367 5.562q-1.797-1.672-1.797-3.688 0-.469.094-.937.094-.485.313-.953.218-.47.562-.938.344-.484.844-.937l.406.39q-1.515 1.5-1.515 3.328 0 .907.375 1.75.39.828 1.14 1.563l-.422.422zm5.414-3.672q0 .484-.14.875-.14.375-.39.656-.235.266-.595.406-.359.14-.796.14-.36 0-.72-.062-.359-.078-.718-.218v-5.282h.688v1.516l-.032.719q.282-.39.61-.547.343-.172.734-.172.328 0 .578.14.266.141.438.407.172.25.25.61.093.359.093.812zm-.703.031q0-.312-.047-.562-.046-.266-.14-.438-.094-.187-.25-.297-.156-.11-.36-.11-.125 0-.265.048-.125.047-.281.14-.141.094-.297.25-.157.157-.328.39v1.907q.187.078.39.125.219.047.406.047.235 0 .438-.078.219-.078.375-.25.172-.172.266-.453.093-.297.093-.719zm3.086-2.969h-1.172v-.547h1.86v4.954h1.156v.562h-3.14v-.562h1.296v-4.407zm6.477 2.969q0 .469-.14.844-.126.375-.376.656-.234.266-.578.422-.344.156-.797.156-.422 0-.75-.125-.328-.14-.562-.39-.235-.266-.36-.641t-.125-.86q0-.453.125-.828.14-.39.375-.656.25-.265.594-.422.344-.156.781-.156.422 0 .75.14.344.126.578.376.235.25.36.625t.125.859zm-.703.031q0-.36-.078-.625-.079-.281-.235-.453-.14-.187-.36-.281-.202-.094-.468-.094-.312 0-.531.125-.203.125-.344.328-.14.188-.203.453-.063.266-.063.547 0 .375.079.657.078.265.218.453.157.172.36.265.218.094.484.094.297 0 .516-.125.218-.125.359-.312.14-.204.203-.47.063-.265.063-.562zm4.726 1.828q-.265.094-.547.141-.28.063-.578.063-.922 0-1.422-.5-.5-.516-.5-1.485 0-.469.141-.844.14-.375.406-.64.266-.281.625-.422.36-.156.797-.156.313 0 .578.047.266.046.5.14v.656q-.25-.14-.515-.203-.266-.062-.547-.062-.266 0-.5.11-.219.093-.407.28-.171.188-.28.47-.095.265-.095.593 0 .719.344 1.078.344.344.969.344.266 0 .531-.063.266-.062.5-.187v.64zm4.883.141h-.937l-1.829-2.11v2.11h-.671v-5.516h.671v3.391l1.766-1.797h.89l-1.827 1.813 1.937 2.109zm4.133 0h-3.203v-.64h1.312v-3.72l-1.219.657-.25-.578 1.625-.844h.594v4.484h1.14v.641zm1.93-5.812q1.812 1.656 1.812 3.703 0 .422-.094.875-.078.453-.297.937-.203.469-.562.953-.344.5-.875.985l-.39-.407q.765-.75 1.14-1.562.375-.828.375-1.734 0-1.86-1.516-3.344l.407-.406zM20.166 95.533h-3.204v-.64h1.313v-3.72l-1.219.657-.25-.578 1.625-.844h.594v4.484h1.14v.641zm4.57-2.547q0 .578-.125 1.063-.11.484-.36.828-.234.344-.593.547-.344.187-.828.187-.407 0-.75-.156-.328-.156-.563-.469-.234-.328-.375-.828-.125-.5-.125-1.172 0-.594.11-1.078.125-.484.359-.828.25-.344.594-.531.359-.188.828-.188.422 0 .75.156.344.141.578.47.234.327.36.827.14.485.14 1.172zm-.688.016q0-.125-.015-.25-.016-.14-.016-.266l-2.172 1.61q.063.203.157.375.093.171.218.296.125.11.282.188.171.062.375.062.265 0 .484-.125.219-.125.36-.375.156-.265.234-.64.093-.375.093-.875zm-2.343-.047v.25q0 .11.015.234l2.157-1.61q-.047-.187-.141-.343-.094-.172-.219-.297t-.281-.187q-.156-.063-.36-.063-.265 0-.484.125-.219.125-.375.39-.14.25-.234.626-.078.375-.078.875zm7.43.031q0 .578-.126 1.063-.109.484-.359.828-.234.344-.594.547-.344.187-.828.187-.406 0-.75-.156-.328-.156-.562-.469-.235-.328-.375-.828-.125-.5-.125-1.172 0-.594.109-1.078.125-.484.36-.828.25-.344.593-.531.36-.188.828-.188.422 0 .75.156.344.141.578.47.235.327.36.827.14.485.14 1.172zm-.688.016q0-.125-.016-.25-.015-.14-.015-.266l-2.172 1.61q.062.203.156.375.094.171.219.296.125.11.281.188.172.062.375.062.266 0 .484-.125.22-.125.36-.375.156-.265.234-.64.094-.375.094-.875zm-2.344-.047v.25q0 .11.016.234l2.156-1.61q-.047-.187-.14-.343-.094-.172-.22-.297-.124-.125-.28-.187-.157-.063-.36-.063-.266 0-.484.125-.22.125-.375.39-.141.25-.235.626-.078.375-.078.875zm7.258 2.578h-3.203v-.64h1.312v-3.72l-1.218.657-.25-.578 1.625-.844h.593v4.484h1.14v.641zm3.883-1.812H34.9v-.641h2.344v.64zm4.96 1.812h-3.359v-.61l1.313-1.312q.328-.328.531-.562.203-.235.313-.422.125-.188.156-.36.047-.171.047-.375 0-.187-.063-.359-.047-.172-.156-.297-.094-.125-.266-.203-.172-.078-.406-.078-.328 0-.594.156-.265.14-.484.36l-.375-.438q.297-.312.672-.484.375-.188.875-.188.344 0 .61.11.28.093.484.28.203.188.312.47.125.28.125.625 0 .296-.078.546-.078.25-.25.5-.156.235-.39.5-.235.266-.563.594l-.938.89h2.485v.657zm4.524-2.547q0 .578-.125 1.063-.11.484-.36.828-.234.344-.593.547-.344.187-.828.187-.406 0-.75-.156-.328-.156-.563-.469-.234-.328-.375-.828-.125-.5-.125-1.172 0-.594.11-1.078.125-.484.36-.828.25-.344.593-.531.36-.188.828-.188.422 0 .75.156.344.141.578.47.234.327.36.827.14.485.14 1.172zm-.687.016q0-.125-.016-.25-.016-.14-.016-.266l-2.172 1.61q.063.203.157.375.093.171.218.296.125.11.282.188.172.062.375.062.265 0 .484-.125.219-.125.36-.375.156-.265.234-.64.094-.375.094-.875zm-2.344-.047v.25q0 .11.015.234l2.157-1.61q-.047-.187-.14-.343-.095-.172-.22-.297t-.28-.187q-.157-.063-.36-.063-.266 0-.485.125-.218.125-.375.39-.14.25-.234.626-.078.375-.078.875zm7.43.031q0 .578-.125 1.063-.11.484-.36.828-.234.344-.594.547-.343.187-.828.187-.406 0-.75-.156-.328-.156-.562-.469-.235-.328-.375-.828-.125-.5-.125-1.172 0-.594.11-1.078.124-.484.359-.828.25-.344.593-.531.36-.188.828-.188.422 0 .75.156.344.141.579.47.234.327.359.827.14.485.14 1.172zm-.688.016q0-.125-.016-.25-.015-.14-.015-.266l-2.172 1.61q.062.203.156.375.094.171.219.296.125.11.281.188.172.062.375.062.266 0 .485-.125.218-.125.359-.375.156-.265.234-.64.094-.375.094-.875zm-2.344-.047v.25q0 .11.016.234l2.156-1.61q-.047-.187-.14-.343-.094-.172-.22-.297-.124-.125-.28-.187-.157-.063-.36-.063-.265 0-.484.125-.219.125-.375.39-.14.25-.235.626-.078.375-.078.875zm7.43.031q0 .578-.125 1.063-.11.484-.36.828-.234.344-.593.547-.344.187-.828.187-.407 0-.75-.156-.328-.156-.563-.469-.234-.328-.375-.828-.125-.5-.125-1.172 0-.594.11-1.078.125-.484.359-.828.25-.344.594-.531.36-.188.828-.188.422 0 .75.156.344.141.578.47.234.327.36.827.14.485.14 1.172zm-.688.016q0-.125-.015-.25-.016-.14-.016-.266l-2.172 1.61q.063.203.157.375.093.171.218.296.125.11.282.188.171.062.375.062.265 0 .484-.125.219-.125.36-.375.156-.265.234-.64.093-.375.093-.875zm-2.343-.047v.25q0 .11.015.234l2.157-1.61q-.047-.187-.141-.343-.094-.172-.219-.297t-.281-.187q-.156-.063-.36-.063-.265 0-.484.125-.219.125-.375.39-.14.25-.234.626-.078.375-.078.875zm10.281 4.187h-.64v-8.015h.64v8.015zm14.867-4.203q0 .688-.172 1.188-.156.5-.437.828-.266.328-.64.5-.36.156-.782.156-.484 0-.86-.172-.359-.187-.609-.515-.234-.344-.36-.828-.109-.485-.109-1.094 0-.672.157-1.172.172-.5.437-.828.281-.328.64-.485.376-.156.782-.156.5 0 .86.188.374.172.609.5.25.328.36.812.124.485.124 1.078zm-.719.063q0-.453-.078-.828-.062-.375-.218-.641-.157-.266-.391-.406-.234-.156-.578-.156-.328 0-.563.156-.234.156-.39.437-.157.266-.235.625-.062.36-.062.782 0 .453.062.828.078.359.219.64.156.266.39.422.235.14.579.14.328 0 .562-.155.235-.172.39-.438.157-.266.235-.625.078-.375.078-.781zm4.914.5q0 .484-.14.875-.14.375-.39.656-.235.266-.595.406-.359.14-.796.14-.36 0-.72-.062-.359-.078-.718-.218v-5.282h.688v1.516l-.032.719q.282-.39.61-.547.343-.172.734-.172.328 0 .578.14.266.141.438.407.172.25.25.61.093.359.093.812zm-.703.031q0-.312-.047-.562-.046-.266-.14-.438-.094-.187-.25-.297-.156-.11-.36-.11-.125 0-.265.048-.125.047-.281.14-.141.094-.297.25-.157.157-.328.39v1.907q.187.078.39.125.219.047.406.047.235 0 .438-.078.219-.078.375-.25.172-.172.266-.453.093-.297.093-.719zm4.399-1.922v3.844q0 .422-.125.734-.11.328-.328.547-.22.219-.547.328-.313.11-.703.11-.297 0-.578-.063-.266-.047-.485-.14v-.641q.125.062.25.11.14.046.281.077.157.047.297.063.157.016.297.016.453 0 .703-.282.25-.281.25-.828v-3.312h-1.922v-.563h2.61zm-.406-1.64q.109 0 .203.046.109.032.172.11.078.062.109.172.047.093.047.203 0 .11-.047.203-.031.094-.11.172-.062.078-.171.125-.094.031-.203.031-.11 0-.22-.031-.093-.047-.171-.125-.063-.078-.11-.172-.03-.094-.03-.203 0-.11.03-.203.047-.11.11-.172.078-.078.172-.11.11-.046.219-.046zm5.46 3.39v.25q0 .094-.015.172h-2.75q0 .61.328.938.344.312.969.312.172 0 .343-.016l.329-.03q.171-.032.312-.048.156-.031.281-.078v.563q-.28.078-.64.125-.344.062-.719.062-.5 0-.875-.14-.36-.141-.594-.391-.219-.266-.344-.64-.109-.391-.109-.86 0-.422.125-.781.125-.375.344-.657.234-.28.562-.437.328-.172.75-.172t.735.14q.312.126.531.36.219.234.328.578.11.328.11.75zm-.703-.094q.016-.265-.047-.484-.062-.219-.203-.375-.125-.156-.328-.234-.187-.094-.453-.094-.219 0-.406.094-.172.078-.313.234-.125.156-.218.375-.079.219-.094.484h2.062zm4.836 2.125q-.265.094-.547.141-.28.063-.578.063-.922 0-1.422-.5-.5-.516-.5-1.485 0-.469.141-.844.14-.375.406-.64.266-.281.625-.422.36-.156.797-.156.313 0 .578.047.266.046.5.14v.656q-.25-.14-.515-.203-.266-.062-.547-.062-.266 0-.5.11-.219.093-.406.28-.172.188-.282.47-.093.265-.093.593 0 .719.343 1.078.344.344.969.344.266 0 .531-.063.266-.062.5-.187v.64zm4.508.079q-.219.062-.469.093-.25.032-.5.032-.734 0-1.109-.329-.36-.343-.36-1.046v-2.047h-1.093v-.563h1.094v-1.078l.687-.172v1.25h1.75v.563h-1.75v2q0 .422.219.64.219.203.656.203.188 0 .406-.03.235-.032.47-.095v.579zm4.727.062h-.782l-.765-1.64q-.094-.188-.188-.297-.078-.125-.187-.204-.094-.078-.219-.109t-.281-.031h-.328v2.281h-.688v-5.11h1.36q.453 0 .765.11.328.094.531.266.204.172.297.422.094.25.094.546 0 .235-.078.454-.063.218-.203.39-.14.172-.344.297-.203.125-.469.188.219.078.36.265.156.188.312.485l.813 1.687zm-1.11-3.703q0-.406-.265-.61-.25-.203-.72-.203h-.655v1.688h.562q.25 0 .438-.063.203-.062.343-.171.141-.11.22-.266.077-.172.077-.375zm5.336 1.531v.25q0 .094-.015.172h-2.75q0 .61.328.938.343.312.968.312.172 0 .344-.016l.328-.03q.172-.032.313-.048.156-.031.281-.078v.563q-.281.078-.64.125-.344.062-.72.062-.5 0-.874-.14-.36-.141-.594-.391-.219-.266-.344-.64-.11-.391-.11-.86 0-.422.126-.781.125-.375.344-.657.234-.28.562-.437.328-.172.75-.172t.734.14q.313.126.532.36.218.234.328.578.11.328.11.75zm-.703-.094q.016-.265-.047-.484-.062-.219-.203-.375-.125-.156-.328-.234-.188-.094-.453-.094-.219 0-.406.094-.172.078-.313.234-.125.156-.219.375-.078.219-.093.484h2.062zm5.274-2.625q-.532-.109-.922-.109-.922 0-.922.953v.688h1.719v.578h-1.72v2.781h-.687v-2.781h-1.265v-.578h1.265v-.641q0-1.562 1.625-1.562.407 0 .907.093v.578zm-4.11.97zm7.367 5.562q-1.797-1.672-1.797-3.688 0-.469.094-.937.094-.485.313-.953.218-.47.562-.938.344-.484.844-.937l.406.39q-1.515 1.5-1.515 3.328 0 .907.375 1.75.39.828 1.14 1.563l-.422.422zm5.414-3.672q0 .484-.14.875-.14.375-.39.656-.235.266-.595.406-.359.14-.796.14-.36 0-.72-.062-.359-.078-.718-.218v-5.282h.688v1.516l-.032.719q.282-.39.61-.547.343-.172.734-.172.328 0 .578.14.266.141.438.407.172.25.25.61.093.359.093.812zm-.703.031q0-.312-.047-.562-.046-.266-.14-.438-.094-.187-.25-.297-.156-.11-.36-.11-.125 0-.265.048-.125.047-.281.14-.141.094-.297.25-.157.157-.328.39v1.907q.187.078.39.125.219.047.406.047.235 0 .438-.078.219-.078.375-.25.172-.172.266-.453.093-.297.093-.719zm3.086-2.969h-1.172v-.547h1.86v4.954h1.156v.562h-3.14v-.562h1.296v-4.407zm6.477 2.969q0 .469-.14.844-.126.375-.376.656-.234.266-.578.422-.344.156-.797.156-.422 0-.75-.125-.328-.14-.562-.39-.235-.266-.36-.641t-.125-.86q0-.453.125-.828.14-.39.375-.656.25-.265.594-.422.344-.156.781-.156.422 0 .75.14.344.126.578.376.235.25.36.625t.125.859zm-.703.031q0-.36-.078-.625-.079-.281-.235-.453-.14-.187-.36-.281-.202-.094-.468-.094-.312 0-.531.125-.203.125-.344.328-.14.188-.203.453-.063.266-.063.547 0 .375.079.657.078.265.218.453.157.172.36.265.218.094.484.094.297 0 .516-.125.218-.125.359-.312.14-.204.203-.47.063-.265.063-.562zm4.726 1.828q-.265.094-.547.141-.28.063-.578.063-.922 0-1.422-.5-.5-.516-.5-1.485 0-.469.141-.844.14-.375.406-.64.266-.281.625-.422.36-.156.797-.156.313 0 .578.047.266.046.5.14v.656q-.25-.14-.515-.203-.266-.062-.547-.062-.266 0-.5.11-.219.093-.407.28-.171.188-.28.47-.095.265-.095.593 0 .719.344 1.078.344.344.969.344.266 0 .531-.063.266-.062.5-.187v.64zm4.883.141h-.937l-1.829-2.11v2.11h-.671v-5.516h.671v3.391l1.766-1.797h.89l-1.827 1.813 1.937 2.109zm4.18 0h-3.36v-.61l1.313-1.312q.328-.328.531-.562.203-.235.313-.422.125-.188.156-.36.047-.171.047-.375 0-.187-.063-.359-.047-.172-.156-.297-.094-.125-.266-.203-.172-.078-.406-.078-.328 0-.594.156-.265.14-.484.36l-.375-.438q.297-.312.672-.484.375-.188.875-.188.344 0 .61.11.28.093.484.28.203.188.312.47.125.28.125.625 0 .296-.078.546-.078.25-.25.5-.156.235-.39.5-.235.266-.563.594l-.938.89h2.485v.657zm1.883-5.812q1.812 1.656 1.812 3.703 0 .422-.094.875-.078.453-.297.937-.203.469-.562.953-.344.5-.875.985l-.39-.407q.765-.75 1.14-1.562.375-.828.375-1.734 0-1.86-1.516-3.344l.407-.406zM20.212 105.533h-3.359v-.61l1.313-1.312q.328-.328.53-.562.204-.235.313-.422.125-.188.157-.36.046-.171.046-.375 0-.187-.062-.359-.047-.172-.156-.297-.094-.125-.266-.203-.172-.078-.406-.078-.328 0-.594.156-.266.14-.484.36l-.375-.438q.297-.312.672-.484.375-.188.875-.188.343 0 .609.11.281.093.484.28.203.188.313.47.125.28.125.625 0 .296-.078.546-.078.25-.25.5-.157.235-.39.5-.235.266-.563.594l-.938.89h2.484v.657zm4.524-2.547q0 .578-.125 1.063-.11.484-.36.828-.234.344-.593.547-.344.187-.828.187-.407 0-.75-.156-.328-.156-.563-.469-.234-.328-.375-.828-.125-.5-.125-1.172 0-.594.11-1.078.125-.484.359-.828.25-.344.594-.531.359-.188.828-.188.422 0 .75.156.344.141.578.47.234.327.36.827.14.485.14 1.172zm-.688.016q0-.125-.015-.25-.016-.14-.016-.266l-2.172 1.61q.063.203.157.375.093.171.218.296.125.11.282.188.171.062.375.062.265 0 .484-.125.219-.125.36-.375.156-.265.234-.64.093-.375.093-.875zm-2.343-.047v.25q0 .11.015.234l2.157-1.61q-.047-.187-.141-.343-.094-.172-.219-.297t-.281-.187q-.156-.063-.36-.063-.265 0-.484.125-.219.125-.375.39-.14.25-.234.626-.078.375-.078.875zm7.43.031q0 .578-.126 1.063-.109.484-.359.828-.234.344-.594.547-.344.187-.828.187-.406 0-.75-.156-.328-.156-.562-.469-.235-.328-.375-.828-.125-.5-.125-1.172 0-.594.109-1.078.125-.484.36-.828.25-.344.593-.531.36-.188.828-.188.422 0 .75.156.344.141.578.47.235.327.36.827.14.485.14 1.172zm-.688.016q0-.125-.016-.25-.015-.14-.015-.266l-2.172 1.61q.062.203.156.375.094.171.219.296.125.11.281.188.172.062.375.062.266 0 .484-.125.22-.125.36-.375.156-.265.234-.64.094-.375.094-.875zm-2.344-.047v.25q0 .11.016.234l2.156-1.61q-.047-.187-.14-.343-.094-.172-.22-.297-.124-.125-.28-.187-.157-.063-.36-.063-.266 0-.484.125-.22.125-.375.39-.141.25-.235.626-.078.375-.078.875zm7.258 2.578h-3.203v-.64h1.312v-3.72l-1.218.657-.25-.578 1.625-.844h.593v4.484h1.14v.641zm3.883-1.812H34.9v-.641h2.344v.64zm4.867.265q0 .328-.14.625-.141.297-.423.516-.265.219-.687.36-.406.124-.953.124-.297 0-.547-.031-.234-.016-.453-.047v-.61q.25.048.515.079.266.015.547.015.39 0 .657-.062.265-.078.437-.203.172-.14.25-.313.078-.187.078-.422 0-.203-.094-.359-.093-.156-.265-.266-.156-.109-.406-.156-.235-.062-.516-.062h-.578v-.547h.594q.234 0 .421-.063.188-.062.313-.172.14-.125.203-.28.078-.173.078-.376 0-.422-.25-.61-.25-.187-.734-.187-.25 0-.531.063-.266.047-.579.14v-.593q.125-.047.282-.078.156-.032.297-.063.156-.031.296-.031.157-.016.297-.016.407 0 .703.094.313.078.516.25.219.156.313.39.109.235.109.532 0 .437-.234.734-.22.297-.61.469.203.031.39.125.204.094.36.25.156.14.25.344.094.187.094.437zm4.617-1q0 .578-.125 1.063-.11.484-.36.828-.234.344-.593.547-.344.187-.828.187-.406 0-.75-.156-.328-.156-.563-.469-.234-.328-.375-.828-.125-.5-.125-1.172 0-.594.11-1.078.125-.484.36-.828.25-.344.593-.531.36-.188.828-.188.422 0 .75.156.344.141.578.47.234.327.36.827.14.485.14 1.172zm-.687.016q0-.125-.016-.25-.016-.14-.016-.266l-2.172 1.61q.063.203.157.375.093.171.218.296.125.11.282.188.172.062.375.062.265 0 .484-.125.219-.125.36-.375.156-.265.234-.64.094-.375.094-.875zm-2.344-.047v.25q0 .11.015.234l2.157-1.61q-.047-.187-.14-.343-.095-.172-.22-.297t-.28-.187q-.157-.063-.36-.063-.266 0-.485.125-.218.125-.375.39-.14.25-.234.626-.078.375-.078.875zm7.43.031q0 .578-.125 1.063-.11.484-.36.828-.234.344-.594.547-.343.187-.828.187-.406 0-.75-.156-.328-.156-.562-.469-.235-.328-.375-.828-.125-.5-.125-1.172 0-.594.11-1.078.124-.484.359-.828.25-.344.593-.531.36-.188.828-.188.422 0 .75.156.344.141.579.47.234.327.359.827.14.485.14 1.172zm-.688.016q0-.125-.016-.25-.015-.14-.015-.266l-2.172 1.61q.062.203.156.375.094.171.219.296.125.11.281.188.172.062.375.062.266 0 .485-.125.218-.125.359-.375.156-.265.234-.64.094-.375.094-.875zm-2.344-.047v.25q0 .11.016.234l2.156-1.61q-.047-.187-.14-.343-.094-.172-.22-.297-.124-.125-.28-.187-.157-.063-.36-.063-.265 0-.484.125-.219.125-.375.39-.14.25-.235.626-.078.375-.078.875zm7.43.031q0 .578-.125 1.063-.11.484-.36.828-.234.344-.593.547-.344.187-.828.187-.407 0-.75-.156-.328-.156-.563-.469-.234-.328-.375-.828-.125-.5-.125-1.172 0-.594.11-1.078.125-.484.359-.828.25-.344.594-.531.36-.188.828-.188.422 0 .75.156.344.141.578.47.234.327.36.827.14.485.14 1.172zm-.688.016q0-.125-.015-.25-.016-.14-.016-.266l-2.172 1.61q.063.203.157.375.093.171.218.296.125.11.282.188.171.062.375.062.265 0 .484-.125.219-.125.36-.375.156-.265.234-.64.093-.375.093-.875zm-2.343-.047v.25q0 .11.015.234l2.157-1.61q-.047-.187-.141-.343-.094-.172-.219-.297t-.281-.187q-.156-.063-.36-.063-.265 0-.484.125-.219.125-.375.39-.14.25-.234.626-.078.375-.078.875zm10.281 4.187h-.64v-8.015h.64v8.015zm14.867-4.203q0 .688-.172 1.188-.156.5-.437.828-.266.328-.64.5-.36.156-.782.156-.484 0-.86-.172-.359-.187-.609-.515-.234-.344-.36-.828-.109-.485-.109-1.094 0-.672.157-1.172.172-.5.437-.828.281-.328.64-.485.376-.156.782-.156.5 0 .86.188.374.172.609.5.25.328.36.812.124.485.124 1.078zm-.719.063q0-.453-.078-.828-.062-.375-.218-.641-.157-.266-.391-.406-.234-.156-.578-.156-.328 0-.563.156-.234.156-.39.437-.157.266-.235.625-.062.36-.062.782 0 .453.062.828.078.359.219.64.156.266.39.422.235.14.579.14.328 0 .562-.155.235-.172.39-.438.157-.266.235-.625.078-.375.078-.781zm4.914.5q0 .484-.14.875-.14.375-.39.656-.235.266-.595.406-.359.14-.796.14-.36 0-.72-.062-.359-.078-.718-.218v-5.282h.688v1.516l-.032.719q.282-.39.61-.547.343-.172.734-.172.328 0 .578.14.266.141.438.407.172.25.25.61.093.359.093.812zm-.703.031q0-.312-.047-.562-.046-.266-.14-.438-.094-.187-.25-.297-.156-.11-.36-.11-.125 0-.265.048-.125.047-.281.14-.141.094-.297.25-.157.157-.328.39v1.907q.187.078.39.125.219.047.406.047.235 0 .438-.078.219-.078.375-.25.172-.172.266-.453.093-.297.093-.719zm4.399-1.922v3.844q0 .422-.125.734-.11.328-.328.547-.22.219-.547.328-.313.11-.703.11-.297 0-.578-.063-.266-.047-.485-.14v-.641q.125.062.25.11.14.046.281.077.157.047.297.063.157.016.297.016.453 0 .703-.282.25-.281.25-.828v-3.312h-1.922v-.563h2.61zm-.406-1.64q.109 0 .203.046.109.032.172.11.078.062.109.172.047.093.047.203 0 .11-.047.203-.031.094-.11.172-.062.078-.171.125-.094.031-.203.031-.11 0-.22-.031-.093-.047-.171-.125-.063-.078-.11-.172-.03-.094-.03-.203 0-.11.03-.203.047-.11.11-.172.078-.078.172-.11.11-.046.219-.046zm5.46 3.39v.25q0 .094-.015.172h-2.75q0 .61.328.938.344.312.969.312.172 0 .343-.016l.329-.03q.171-.032.312-.048.156-.031.281-.078v.563q-.28.078-.64.125-.344.062-.719.062-.5 0-.875-.14-.36-.141-.594-.391-.219-.266-.344-.64-.109-.391-.109-.86 0-.422.125-.781.125-.375.344-.657.234-.28.562-.437.328-.172.75-.172t.735.14q.312.126.531.36.219.234.328.578.11.328.11.75zm-.703-.094q.016-.265-.047-.484-.062-.219-.203-.375-.125-.156-.328-.234-.187-.094-.453-.094-.219 0-.406.094-.172.078-.313.234-.125.156-.218.375-.079.219-.094.484h2.062zm4.836 2.125q-.265.094-.547.141-.28.063-.578.063-.922 0-1.422-.5-.5-.516-.5-1.485 0-.469.141-.844.14-.375.406-.64.266-.281.625-.422.36-.156.797-.156.313 0 .578.047.266.046.5.14v.656q-.25-.14-.515-.203-.266-.062-.547-.062-.266 0-.5.11-.219.093-.406.28-.172.188-.282.47-.093.265-.093.593 0 .719.343 1.078.344.344.969.344.266 0 .531-.063.266-.062.5-.187v.64zm4.508.079q-.219.062-.469.093-.25.032-.5.032-.734 0-1.109-.329-.36-.343-.36-1.046v-2.047h-1.093v-.563h1.094v-1.078l.687-.172v1.25h1.75v.563h-1.75v2q0 .422.219.64.219.203.656.203.188 0 .406-.03.235-.032.47-.095v.579zm4.727.062h-.782l-.765-1.64q-.094-.188-.188-.297-.078-.125-.187-.204-.094-.078-.219-.109t-.281-.031h-.328v2.281h-.688v-5.11h1.36q.453 0 .765.11.328.094.531.266.204.172.297.422.094.25.094.546 0 .235-.078.454-.063.218-.203.39-.14.172-.344.297-.203.125-.469.188.219.078.36.265.156.188.312.485l.813 1.687zm-1.11-3.703q0-.406-.265-.61-.25-.203-.72-.203h-.655v1.688h.562q.25 0 .438-.063.203-.062.343-.171.141-.11.22-.266.077-.172.077-.375zm5.336 1.531v.25q0 .094-.015.172h-2.75q0 .61.328.938.343.312.968.312.172 0 .344-.016l.328-.03q.172-.032.313-.048.156-.031.281-.078v.563q-.281.078-.64.125-.344.062-.72.062-.5 0-.874-.14-.36-.141-.594-.391-.219-.266-.344-.64-.11-.391-.11-.86 0-.422.126-.781.125-.375.344-.657.234-.28.562-.437.328-.172.75-.172t.734.14q.313.126.532.36.218.234.328.578.11.328.11.75zm-.703-.094q.016-.265-.047-.484-.062-.219-.203-.375-.125-.156-.328-.234-.188-.094-.453-.094-.219 0-.406.094-.172.078-.313.234-.125.156-.219.375-.078.219-.093.484h2.062zm5.274-2.625q-.532-.109-.922-.109-.922 0-.922.953v.688h1.719v.578h-1.72v2.781h-.687v-2.781h-1.265v-.578h1.265v-.641q0-1.562 1.625-1.562.407 0 .907.093v.578zm-4.11.97zm7.367 5.562q-1.797-1.672-1.797-3.688 0-.469.094-.937.094-.485.313-.953.218-.47.562-.938.344-.484.844-.937l.406.39q-1.515 1.5-1.515 3.328 0 .907.375 1.75.39.828 1.14 1.563l-.422.422zm5.414-3.672q0 .484-.14.875-.14.375-.39.656-.235.266-.595.406-.359.14-.796.14-.36 0-.72-.062-.359-.078-.718-.218v-5.282h.688v1.516l-.032.719q.282-.39.61-.547.343-.172.734-.172.328 0 .578.14.266.141.438.407.172.25.25.61.093.359.093.812zm-.703.031q0-.312-.047-.562-.046-.266-.14-.438-.094-.187-.25-.297-.156-.11-.36-.11-.125 0-.265.048-.125.047-.281.14-.141.094-.297.25-.157.157-.328.39v1.907q.187.078.39.125.219.047.406.047.235 0 .438-.078.219-.078.375-.25.172-.172.266-.453.093-.297.093-.719zm3.086-2.969h-1.172v-.547h1.86v4.954h1.156v.562h-3.14v-.562h1.296v-4.407zm6.477 2.969q0 .469-.14.844-.126.375-.376.656-.234.266-.578.422-.344.156-.797.156-.422 0-.75-.125-.328-.14-.562-.39-.235-.266-.36-.641t-.125-.86q0-.453.125-.828.14-.39.375-.656.25-.265.594-.422.344-.156.781-.156.422 0 .75.14.344.126.578.376.235.25.36.625t.125.859zm-.703.031q0-.36-.078-.625-.079-.281-.235-.453-.14-.187-.36-.281-.202-.094-.468-.094-.312 0-.531.125-.203.125-.344.328-.14.188-.203.453-.063.266-.063.547 0 .375.079.657.078.265.218.453.157.172.36.265.218.094.484.094.297 0 .516-.125.218-.125.359-.312.14-.204.203-.47.063-.265.063-.562zm4.726 1.828q-.265.094-.547.141-.28.063-.578.063-.922 0-1.422-.5-.5-.516-.5-1.485 0-.469.141-.844.14-.375.406-.64.266-.281.625-.422.36-.156.797-.156.313 0 .578.047.266.046.5.14v.656q-.25-.14-.515-.203-.266-.062-.547-.062-.266 0-.5.11-.219.093-.407.28-.171.188-.28.47-.095.265-.095.593 0 .719.344 1.078.344.344.969.344.266 0 .531-.063.266-.062.5-.187v.64zm4.883.141h-.937l-1.829-2.11v2.11h-.671v-5.516h.671v3.391l1.766-1.797h.89l-1.827 1.813 1.937 2.109zm4.086-1.547q0 .328-.14.625-.141.297-.423.516-.265.219-.687.36-.406.124-.953.124-.297 0-.547-.031-.234-.016-.453-.047v-.61q.25.048.515.079.266.015.547.015.391 0 .657-.062.265-.078.437-.203.172-.14.25-.313.078-.187.078-.422 0-.203-.094-.359-.093-.156-.265-.266-.156-.109-.406-.156-.235-.062-.516-.062h-.578v-.547h.594q.234 0 .421-.063.188-.062.313-.172.14-.125.203-.28.078-.173.078-.376 0-.422-.25-.61-.25-.187-.734-.187-.25 0-.531.063-.266.047-.579.14v-.593q.125-.047.282-.078.156-.032.297-.063.156-.031.296-.031.157-.016.297-.016.407 0 .703.094.313.078.516.25.219.156.313.39.109.235.109.532 0 .437-.234.734-.22.297-.61.469.203.031.39.125.204.094.36.25.156.14.25.344.094.187.094.437zm1.977-4.265q1.812 1.656 1.812 3.703 0 .422-.094.875-.078.453-.297.937-.203.469-.562.953-.344.5-.875.985l-.39-.407q.765-.75 1.14-1.562.375-.828.375-1.734 0-1.86-1.516-3.344l.407-.406zM18.447 114.299q.125 0 .25.062.125.047.203.14.094.079.14.204.047.11.047.25t-.046.266q-.047.109-.141.203-.078.078-.203.125-.125.062-.25.062-.14 0-.266-.062-.11-.047-.203-.125-.078-.094-.14-.203-.047-.125-.047-.266 0-.14.046-.25.063-.125.141-.203.094-.094.203-.14.125-.063.266-.063zm4.398 0q.125 0 .25.062.125.047.203.14.094.079.141.204.047.11.047.25t-.047.266q-.047.109-.14.203-.079.078-.204.125-.125.062-.25.062-.14 0-.265-.062-.11-.047-.203-.125-.079-.094-.141-.203-.047-.125-.047-.266 0-.14.047-.25.062-.125.14-.203.094-.094.204-.14.125-.063.265-.063zm4.399 0q.125 0 .25.062.125.047.203.14.094.079.14.204.047.11.047.25t-.047.266q-.046.109-.14.203-.078.078-.203.125-.125.062-.25.062-.14 0-.266-.062-.11-.047-.203-.125-.078-.094-.14-.203-.048-.125-.048-.266 0-.14.047-.25.063-.125.141-.203.094-.094.203-.14.125-.063.266-.063zm35.531 2.843h-.64v-8.015h.64v8.015zm12.852-2.843q.125 0 .25.062.125.047.203.14.093.079.14.204.047.11.047.25t-.047.266q-.047.109-.14.203-.078.078-.203.125-.125.062-.25.062-.141 0-.266-.062-.11-.047-.203-.125-.078-.094-.14-.203-.048-.125-.048-.266 0-.14.047-.25.063-.125.14-.203.095-.094.204-.14.125-.063.266-.063zm4.398 0q.125 0 .25.062.125.047.203.14.094.079.14.204.048.11.048.25t-.047.266q-.047.109-.14.203-.079.078-.204.125-.125.062-.25.062-.14 0-.266-.062-.109-.047-.203-.125-.078-.094-.14-.203-.047-.125-.047-.266 0-.14.047-.25.062-.125.14-.203.094-.094.203-.14.125-.063.266-.063zm4.398 0q.125 0 .25.062.125.047.204.14.093.079.14.204.047.11.047.25t-.047.266q-.047.109-.14.203-.079.078-.204.125-.125.062-.25.062-.14 0-.265-.062-.11-.047-.203-.125-.078-.094-.141-.203-.047-.125-.047-.266 0-.14.047-.25.063-.125.14-.203.094-.094.204-.14.125-.063.265-.063z" fill="#000"/><path d="m159.444 83.157 143.338-53.7" fill="none"/><path d="m159.444 83.157 137.72-51.595" stroke-linecap="butt" stroke-linejoin="round" stroke="#000"/><path fill-rule="evenodd" d="m297.743 33.108 3.67-3.139-4.829.046z" stroke-linecap="butt" stroke="#000" fill="#000"/><path d="M302.782 14.412a7.522 7.522 0 0 1 7.523-7.522h85.144a7.522 7.522 0 0 1 7.522 7.522v30.089a7.522 7.522 0 0 1-7.522 7.522h-85.144a7.522 7.522 0 0 1-7.523-7.522z" fill="none"/><path d="M302.782 14.412a7.522 7.522 0 0 1 7.523-7.522h85.144a7.522 7.522 0 0 1 7.522 7.522v30.089a7.522 7.522 0 0 1-7.522 7.522h-85.144a7.522 7.522 0 0 1-7.523-7.522z" stroke-linecap="butt" stroke-linejoin="round" stroke="#000"/><path d="M314.782 27.367v-8.61h.953v.798q.344-.47.766-.703.438-.235 1.047-.235.797 0 1.406.406.61.407.906 1.157.313.75.313 1.64 0 .953-.344 1.719-.328.766-.984 1.172-.656.406-1.375.406-.531 0-.953-.219-.422-.234-.688-.562v3.031h-1.047zm.953-5.469q0 1.204.485 1.782.484.562 1.172.562.703 0 1.203-.594.5-.593.5-1.843 0-1.188-.485-1.766-.484-.594-1.171-.594-.672 0-1.188.625-.516.625-.516 1.828zm5.674 5.47-.125-.985q.344.094.61.094.343 0 .547-.125.218-.11.359-.313.094-.172.328-.797.016-.078.094-.25l-2.375-6.234h1.14l1.297 3.594q.25.687.453 1.453.188-.735.438-1.422l1.328-3.625h1.047l-2.36 6.328q-.39 1.016-.593 1.406-.281.531-.656.766-.36.25-.86.25-.297 0-.672-.14zm10.11-3.157q-.594.5-1.141.703-.531.203-1.156.203-1.031 0-1.578-.5-.547-.5-.547-1.281 0-.453.203-.828.203-.39.547-.61.344-.234.765-.343.297-.094.938-.172 1.266-.14 1.875-.36v-.265q0-.656-.297-.922-.406-.344-1.203-.344-.734 0-1.094.266-.36.25-.531.906l-1.031-.14q.14-.657.468-1.063.329-.406.938-.625.61-.219 1.406-.219.797 0 1.297.188.5.187.734.468.235.282.329.72.046.265.046.968v1.406q0 1.469.063 1.86.078.39.281.75h-1.11q-.155-.329-.202-.766zm-.094-2.36q-.578.235-1.719.407-.656.094-.922.219-.265.109-.422.328-.14.218-.14.5 0 .422.312.703.328.281.938.281.61 0 1.078-.266.484-.265.703-.734.172-.36.172-1.047v-.39zm2.69 3.126v-6.22h.952v.938q.36-.656.657-.86.312-.218.687-.218.531 0 1.078.328l-.359.985q-.39-.235-.766-.235-.359 0-.64.219-.266.203-.375.578-.188.563-.188 1.219v3.266h-1.047zm3.995 0v-6.22h.954v.938q.359-.656.656-.86.312-.218.687-.218.532 0 1.078.328l-.359.985q-.39-.235-.766-.235-.359 0-.64.219-.266.203-.375.578-.188.563-.188 1.219v3.266h-1.047zm3.622-3.11q0-1.734.953-2.562.797-.688 1.953-.688 1.281 0 2.094.844.828.828.828 2.312 0 1.204-.36 1.891-.36.688-1.062 1.078-.688.375-1.5.375-1.297 0-2.11-.828-.796-.844-.796-2.422zm1.078 0q0 1.188.515 1.781.532.594 1.313.594.797 0 1.312-.594.516-.593.516-1.812 0-1.156-.531-1.75-.516-.594-1.297-.594-.781 0-1.313.594-.515.578-.515 1.781zm7.127 3.11-1.907-6.22h1.094l.984 3.595.375 1.328q.032-.094.329-1.282l.984-3.64h1.078l.938 3.61.312 1.187.36-1.203 1.062-3.594h1.031l-1.953 6.219h-1.094l-.984-3.735-.25-1.047-1.25 4.782h-1.11zm7.16 0v-1.204h1.203v1.204h-1.203zm5.35 0v-7.579h-2.829v-1.015h6.813v1.015h-2.844v7.579h-1.14zm7.75-.766q-.594.5-1.141.703-.532.203-1.157.203-1.03 0-1.578-.5-.547-.5-.547-1.281 0-.453.204-.828.203-.39.546-.61.344-.234.766-.343.297-.094.938-.172 1.265-.14 1.875-.36v-.265q0-.656-.297-.922-.407-.344-1.203-.344-.735 0-1.094.266-.36.25-.531.906l-1.032-.14q.141-.657.47-1.063.327-.406.937-.625.609-.219 1.406-.219.797 0 1.297.188.5.187.734.468.234.282.328.72.047.265.047.968v1.406q0 1.469.063 1.86.078.39.28.75H370.4q-.156-.329-.203-.766zm-.094-2.36q-.579.235-1.72.407-.655.094-.921.219-.266.109-.422.328-.14.218-.14.5 0 .422.312.703.328.281.937.281.61 0 1.079-.266.484-.265.703-.734.172-.36.172-1.047v-.39zm3.673 3.126h-.984v-8.594h1.063v3.062q.671-.828 1.703-.828.578 0 1.078.235.515.218.844.64.343.422.53 1.016.188.594.188 1.265 0 1.594-.797 2.47-.796.874-1.89.874-1.11 0-1.735-.922v.782zm-.015-3.157q0 1.11.312 1.61.5.812 1.344.812.688 0 1.188-.594.515-.593.515-1.796 0-1.22-.484-1.797-.485-.578-1.172-.578-.688 0-1.203.609-.5.594-.5 1.734zm5.69 3.157v-8.594h1.062v8.594h-1.063zm6.947-2 1.093.125q-.25.953-.953 1.484t-1.781.531q-1.36 0-2.172-.844-.797-.843-.797-2.359 0-1.562.813-2.422.812-.875 2.093-.875 1.25 0 2.032.844.797.844.797 2.39v.282h-4.641q.062 1.031.578 1.578.516.531 1.297.531.578 0 .984-.297.422-.312.657-.968zm-3.454-1.704h3.47q-.063-.796-.391-1.187-.516-.61-1.313-.61-.734 0-1.234.485-.485.484-.532 1.312zM314.423 35.857v-3.454h.531v.5q.375-.578 1.094-.578.312 0 .578.11.266.109.39.297.126.187.188.437.031.156.031.563v2.125h-.593v-2.094q0-.36-.078-.531-.063-.188-.235-.282-.172-.11-.406-.11-.375 0-.64.235-.266.235-.266.89v1.892h-.594zm5.967 0v-.5q-.406.578-1.093.578-.313 0-.578-.11-.266-.125-.391-.297-.125-.187-.172-.437-.047-.172-.047-.547v-2.14h.594v1.921q0 .453.031.61.063.234.235.375.171.125.437.125t.5-.141q.234-.14.328-.36.094-.234.094-.687v-1.844h.578v3.454h-.516zm1.437 0v-3.454h.53v.485q.157-.25.423-.406.281-.157.625-.157.375 0 .625.157.25.156.344.453.406-.61 1.062-.61.516 0 .781.297.282.281.282.86v2.375h-.579v-2.172q0-.36-.062-.5-.047-.157-.203-.25-.14-.094-.344-.094-.36 0-.61.25-.234.234-.234.766v2h-.593v-2.25q0-.375-.141-.563-.14-.203-.469-.203-.25 0-.453.125t-.297.375q-.094.25-.094.719v1.797h-.593zm5.013 1.328v-.422h3.875v.422h-3.875zm4.233-1.328v-3.454h.516v.532q.203-.375.375-.485.172-.125.375-.125.297 0 .61.188l-.204.547q-.219-.125-.437-.125-.188 0-.344.125-.14.109-.219.312-.094.313-.094.672v1.813h-.578zm1.998-1.72q0-.968.531-1.421.453-.39 1.094-.39.703 0 1.156.468.453.469.453 1.281 0 .672-.203 1.063-.187.375-.578.594-.375.203-.828.203-.734 0-1.187-.453-.438-.47-.438-1.344zm.61 0q0 .657.28.985.298.328.735.328.438 0 .719-.328.297-.328.297-1.015 0-.641-.297-.97-.297-.327-.719-.327-.437 0-.734.328-.282.328-.282 1zm3.951 1.72-1.062-3.454h.61l.546 2 .203.735.188-.719.547-2.016h.593l.516 2 .172.657.203-.657.594-2h.562l-1.078 3.454h-.61l-.546-2.063-.125-.594-.703 2.657h-.61zm3.932-1.032.578-.093q.047.343.266.53.234.188.625.188.406 0 .594-.156.203-.172.203-.39 0-.204-.172-.313-.125-.078-.594-.203-.64-.156-.89-.266-.25-.125-.391-.328-.125-.219-.125-.469 0-.234.11-.422.109-.203.296-.343.125-.094.36-.157.234-.078.515-.078.407 0 .703.125.313.11.454.313.156.203.203.531l-.563.078q-.047-.265-.234-.406-.188-.156-.531-.156-.391 0-.563.14-.172.125-.172.297 0 .125.063.203.078.11.218.157.094.046.532.156.609.172.859.281.25.094.39.297.141.203.141.5t-.172.562q-.171.25-.5.391-.312.14-.718.14-.688 0-1.047-.28-.344-.282-.438-.829zm6.64-1.765h-3.14v-.547h3.14v.547zm0 1.437h-3.14v-.547h3.14v.547zm2.857 1.36h-.594v-3.735q-.203.203-.547.406-.344.204-.625.313v-.578q.5-.219.86-.547.375-.328.53-.64h.376v4.78zm1.499-2.344q0-.844.171-1.36.172-.515.516-.796.344-.282.86-.282.39 0 .671.157.297.156.485.453.187.28.297.703.109.406.109 1.125 0 .828-.188 1.344-.171.515-.515.796-.328.282-.86.282-.687 0-1.078-.485-.468-.593-.468-1.937zm.593 0q0 1.172.266 1.562.281.375.687.375.407 0 .672-.39.282-.391.282-1.547 0-1.188-.282-1.563-.265-.39-.672-.39-.406 0-.64.343-.313.438-.313 1.61zm3.108 0q0-.844.172-1.36.172-.515.516-.796.344-.282.86-.282.39 0 .671.157.297.156.485.453.187.28.296.703.11.406.11 1.125 0 .828-.188 1.344-.172.515-.515.796-.328.282-.86.282-.687 0-1.078-.485-.469-.593-.469-1.937zm.594 0q0 1.172.266 1.562.281.375.687.375.407 0 .672-.39.281-.391.281-1.547 0-1.188-.28-1.563-.266-.39-.673-.39-.406 0-.64.343-.313.438-.313 1.61zm3.108 0q0-.844.172-1.36.172-.515.516-.796.344-.282.86-.282.39 0 .671.157.297.156.484.453.188.28.297.703.11.406.11 1.125 0 .828-.188 1.344-.172.515-.515.796-.329.282-.86.282-.687 0-1.078-.485-.469-.593-.469-1.937zm.594 0q0 1.172.266 1.562.281.375.687.375t.672-.39q.281-.391.281-1.547 0-1.188-.28-1.563-.267-.39-.673-.39t-.64.343q-.313.438-.313 1.61zM314.189 42.825l.578-.093q.047.343.265.53.235.188.625.188.407 0 .594-.156.203-.172.203-.39 0-.204-.172-.313-.125-.078-.593-.203-.641-.156-.891-.266-.25-.125-.39-.328-.126-.219-.126-.469 0-.234.11-.422.109-.203.297-.343.125-.094.359-.157.234-.078.516-.078.406 0 .703.125.312.11.453.313.156.203.203.531l-.563.078q-.046-.265-.234-.406-.187-.156-.531-.156-.39 0-.563.14-.172.125-.172.297 0 .125.063.203.078.11.219.157.093.046.53.156.61.172.86.281.25.094.39.297.142.203.142.5t-.172.562q-.172.25-.5.391-.313.14-.72.14-.687 0-1.046-.28-.344-.282-.437-.829zm5.812-.234.578.078q-.094.594-.484.938-.39.328-.953.328-.703 0-1.141-.453-.422-.47-.422-1.344 0-.547.172-.969.188-.422.563-.625.39-.219.828-.219.562 0 .922.297.359.281.468.797l-.578.094q-.078-.36-.297-.531-.203-.172-.484-.172-.453 0-.734.312-.266.313-.266 1 0 .703.266 1.016.265.312.703.312.343 0 .562-.203.235-.219.297-.656zm1.078 1.266V39.09h.594v1.703q.406-.469 1.031-.469.375 0 .656.157.282.14.407.421.125.266.125.766v2.188h-.578v-2.188q0-.437-.204-.64-.187-.204-.53-.204-.266 0-.5.14-.22.142-.313.376-.094.219-.094.625v1.89h-.594zm6.061-1.11.61.078q-.14.532-.531.828-.391.282-.985.282-.765 0-1.203-.47-.437-.468-.437-1.312 0-.859.437-1.343.453-.485 1.172-.485.687 0 1.125.469.437.469.437 1.328v.156h-2.578q.032.579.313.875.297.297.734.297.328 0 .547-.156.234-.172.36-.547zm-1.921-.953h1.937q-.047-.437-.219-.64-.281-.344-.734-.344-.406 0-.688.265-.265.266-.296.719zm3.264 2.063v-3.454h.531v.485q.156-.25.422-.406.281-.157.625-.157.375 0 .625.157.25.156.344.453.406-.61 1.062-.61.516 0 .782.297.28.281.28.86v2.375h-.577v-2.172q0-.36-.063-.5-.047-.157-.203-.25-.14-.094-.344-.094-.36 0-.61.25-.233.234-.233.766v2h-.594v-2.25q0-.375-.14-.563-.141-.203-.47-.203-.25 0-.453.125t-.297.375q-.093.25-.093.719v1.797h-.594zm7.795-.422q-.328.265-.625.39-.297.11-.641.11-.578 0-.89-.282-.297-.28-.297-.703 0-.25.109-.453.125-.219.312-.344.188-.14.422-.203.172-.047.516-.078.719-.094 1.047-.203v-.156q0-.36-.156-.5-.235-.203-.672-.203-.407 0-.61.156-.203.14-.297.5l-.562-.078q.078-.36.25-.578.187-.235.516-.36.343-.125.78-.125.454 0 .72.11.28.093.406.265.14.157.187.39.032.157.032.548v.765q0 .829.03 1.047.048.203.157.407h-.61q-.093-.188-.124-.422zm-.047-1.313q-.313.125-.953.219-.36.062-.516.125-.14.062-.234.187-.078.125-.078.282 0 .234.171.39.188.157.532.157.328 0 .593-.141.266-.156.391-.422.094-.187.094-.578v-.219zm4.577-1.062h-3.141v-.547h3.14v.547zm0 1.437h-3.141v-.547h3.14v.547zm.824 2.688V39.09h1.282v.484h-.704V44.7h.704v.485h-1.282zm1.865-4.407-.156-.906v-.781h.656v.781l-.14.906h-.36zm1.078 0-.156-.906v-.781h.656v.781l-.156.906h-.344zm3.504 1.813.578.078q-.094.594-.484.938-.391.328-.954.328-.703 0-1.14-.453-.422-.47-.422-1.344 0-.547.172-.969.187-.422.562-.625.391-.219.828-.219.563 0 .922.297.36.281.47.797l-.579.094q-.078-.36-.297-.531-.203-.172-.484-.172-.453 0-.735.312-.265.313-.265 1 0 .703.265 1.016.266.312.703.312.344 0 .563-.203.234-.219.297-.656zm.86-.453q0-.969.53-1.422.454-.39 1.094-.39.703 0 1.156.468.454.469.454 1.281 0 .672-.204 1.063-.187.375-.578.594-.375.203-.828.203-.734 0-1.187-.453-.438-.47-.438-1.344zm.609 0q0 .656.28.984.298.328.735.328.438 0 .719-.328.297-.328.297-1.015 0-.641-.297-.97-.297-.327-.719-.327-.437 0-.734.328-.281.328-.281 1zm3.295 1.719V39.09h.594v4.766h-.594zm3.542 0h-.594v-3.735q-.203.203-.547.406-.344.204-.625.313v-.578q.5-.219.86-.547.374-.328.53-.64h.376v4.78zm1.686-3.079-.156-.906v-.781h.656v.781l-.14.906h-.36zm1.078 0-.156-.906v-.781h.656v.781l-.156.906h-.344zm1.41 3.079v-.672h.656v.672q0 .375-.125.593-.125.219-.406.344l-.172-.25q.187-.078.265-.234.094-.157.11-.453h-.328zm3.573-3.079-.156-.906v-.781h.656v.781l-.14.906h-.36zm1.078 0-.156-.906v-.781h.656v.781l-.156.906h-.344zm3.504 1.813.578.078q-.094.594-.484.938-.391.328-.954.328-.703 0-1.14-.453-.422-.47-.422-1.344 0-.547.172-.969.187-.422.562-.625.391-.219.828-.219.563 0 .922.297.36.281.47.797l-.579.094q-.078-.36-.297-.531-.203-.172-.484-.172-.453 0-.735.312-.265.313-.265 1 0 .703.265 1.016.266.312.703.312.344 0 .563-.203.234-.219.297-.656zm.86-.453q0-.969.53-1.422.454-.39 1.094-.39.703 0 1.156.468.454.469.454 1.281 0 .672-.204 1.063-.187.375-.578.594-.375.203-.828.203-.734 0-1.187-.453-.438-.47-.438-1.344zm.609 0q0 .656.28.984.298.328.735.328.438 0 .719-.328.297-.328.297-1.015 0-.641-.297-.97-.297-.327-.719-.327-.437 0-.734.328-.281.328-.281 1zm3.295 1.719V39.09h.594v4.766h-.594zm4.4-.563v.563h-3.14q-.015-.22.063-.407.125-.328.39-.64.266-.313.766-.72.781-.64 1.047-1 .281-.374.281-.702 0-.36-.25-.594-.25-.234-.656-.234-.422 0-.672.25-.25.25-.266.703l-.593-.063q.062-.672.468-1.015.407-.36 1.079-.36.687 0 1.078.375.406.375.406.938 0 .297-.125.578-.11.266-.39.578-.266.297-.891.828-.532.453-.688.61-.14.156-.234.312h2.328zm.828-2.516-.156-.906v-.781h.656v.781l-.14.906h-.36zm1.078 0-.156-.906v-.781h.656v.781l-.156.906h-.344zm2.238 4.407h-1.297V44.7h.703v-5.125h-.703v-.484h1.297v6.094z" fill="#000"/><path d="M302.782 64.248a7.522 7.522 0 0 1 7.523-7.523h85.144a7.522 7.522 0 0 1 7.522 7.523v30.089a7.522 7.522 0 0 1-7.522 7.522h-85.144a7.522 7.522 0 0 1-7.523-7.522z" fill="none"/><path d="M302.782 64.248a7.522 7.522 0 0 1 7.523-7.523h85.144a7.522 7.522 0 0 1 7.522 7.523v30.089a7.522 7.522 0 0 1-7.522 7.522h-85.144a7.522 7.522 0 0 1-7.523-7.522z" stroke-linecap="butt" stroke-linejoin="round" stroke="#000"/><path d="M314.782 77.203v-8.61h.953v.797q.344-.468.766-.703.438-.234 1.047-.234.797 0 1.406.406.61.406.906 1.156.313.75.313 1.641 0 .953-.344 1.719-.328.765-.984 1.172-.656.406-1.375.406-.531 0-.953-.219-.422-.234-.688-.562v3.031h-1.047zm.953-5.469q0 1.203.485 1.781.484.563 1.172.563.703 0 1.203-.594.5-.594.5-1.844 0-1.187-.485-1.765-.484-.594-1.171-.594-.672 0-1.188.625-.516.625-.516 1.828zm5.674 5.469-.125-.984q.344.093.61.093.343 0 .547-.125.218-.109.359-.312.094-.172.328-.797.016-.078.094-.25l-2.375-6.234h1.14l1.297 3.593q.25.688.453 1.453.188-.734.438-1.421l1.328-3.625h1.047l-2.36 6.328q-.39 1.015-.593 1.406-.281.531-.656.766-.36.25-.86.25-.297 0-.672-.141zm10.11-3.156q-.594.5-1.141.703-.531.203-1.156.203-1.031 0-1.578-.5-.547-.5-.547-1.281 0-.453.203-.828.203-.391.547-.61.344-.234.765-.344.297-.093.938-.171 1.266-.141 1.875-.36v-.265q0-.657-.297-.922-.406-.344-1.203-.344-.734 0-1.094.266-.36.25-.531.906l-1.031-.14q.14-.657.468-1.063.329-.407.938-.625.61-.219 1.406-.219.797 0 1.297.187.5.188.734.47.235.28.329.718.046.266.046.969v1.406q0 1.469.063 1.86.078.39.281.75h-1.11q-.155-.329-.202-.766zm-.094-2.36q-.578.235-1.719.407-.656.093-.922.218-.265.11-.422.328-.14.22-.14.5 0 .422.312.704.328.28.938.28.61 0 1.078-.265.484-.265.703-.734.172-.36.172-1.047v-.39zm2.69 3.125v-6.218h.952v.937q.36-.656.657-.86.312-.218.687-.218.531 0 1.078.328l-.359.984q-.39-.234-.766-.234-.359 0-.64.219-.266.203-.375.578-.188.562-.188 1.219v3.265h-1.047zm3.995 0v-6.218h.954v.937q.359-.656.656-.86.312-.218.687-.218.532 0 1.078.328l-.359.984q-.39-.234-.766-.234-.359 0-.64.219-.266.203-.375.578-.188.562-.188 1.219v3.265h-1.047zm3.622-3.109q0-1.734.953-2.563.797-.687 1.953-.687 1.281 0 2.094.844.828.828.828 2.312 0 1.203-.36 1.89-.36.688-1.062 1.079-.688.375-1.5.375-1.297 0-2.11-.828-.796-.844-.796-2.422zm1.078 0q0 1.187.515 1.781.532.594 1.313.594.797 0 1.312-.594.516-.594.516-1.812 0-1.157-.531-1.75-.516-.594-1.297-.594-.781 0-1.313.594-.515.578-.515 1.781zm7.127 3.11-1.907-6.22h1.094l.984 3.594.375 1.328q.032-.093.329-1.28l.984-3.641h1.078l.938 3.609.312 1.187.36-1.203 1.062-3.593h1.031l-1.953 6.218h-1.094l-.984-3.734-.25-1.047-1.25 4.781h-1.11zm7.16 0v-1.204h1.203v1.203h-1.203zm5.35 0v-7.579h-2.829V66.22h6.813v1.015h-2.844v7.578h-1.14zm7.75-.766q-.594.5-1.141.703-.532.203-1.157.203-1.03 0-1.578-.5-.547-.5-.547-1.281 0-.453.204-.828.203-.391.546-.61.344-.234.766-.344.297-.093.938-.171 1.265-.141 1.875-.36v-.265q0-.657-.297-.922-.407-.344-1.203-.344-.735 0-1.094.266-.36.25-.531.906l-1.032-.14q.141-.657.47-1.063.327-.407.937-.625.609-.219 1.406-.219.797 0 1.297.187.5.188.734.47.234.28.328.718.047.266.047.969v1.406q0 1.469.063 1.86.078.39.28.75H370.4q-.156-.329-.203-.766zm-.094-2.36q-.579.235-1.72.407-.655.093-.921.218-.266.11-.422.328-.14.22-.14.5 0 .422.312.704.328.28.937.28.61 0 1.079-.265.484-.265.703-.734.172-.36.172-1.047v-.39zm3.673 3.125h-.984V66.22h1.063v3.062q.671-.828 1.703-.828.578 0 1.078.234.515.22.844.641.343.422.53 1.016.188.593.188 1.265 0 1.594-.797 2.469-.796.875-1.89.875-1.11 0-1.735-.922v.781zm-.015-3.156q0 1.11.312 1.61.5.812 1.344.812.688 0 1.188-.594.515-.594.515-1.797 0-1.218-.484-1.797-.485-.578-1.172-.578-.688 0-1.203.61-.5.593-.5 1.734zm5.69 3.156V66.22h1.062v8.593h-1.063zm6.947-2 1.093.125q-.25.953-.953 1.485-.703.531-1.781.531-1.36 0-2.172-.844-.797-.844-.797-2.36 0-1.562.813-2.421.812-.875 2.093-.875 1.25 0 2.032.844.797.843.797 2.39v.282h-4.641q.062 1.03.578 1.578.516.531 1.297.531.578 0 .984-.297.422-.312.657-.969zm-3.454-1.703h3.47q-.063-.797-.391-1.187-.516-.61-1.313-.61-.734 0-1.234.485-.485.484-.532 1.312zM314.423 85.692V82.24h.531v.5q.375-.578 1.094-.578.312 0 .578.11.266.109.39.296.126.188.188.438.031.156.031.562v2.125h-.593V83.6q0-.36-.078-.532-.063-.187-.235-.28-.172-.11-.406-.11-.375 0-.64.234-.266.234-.266.89v1.891h-.594zm5.967 0v-.5q-.406.578-1.093.578-.313 0-.578-.109-.266-.125-.391-.297-.125-.187-.172-.437-.047-.172-.047-.547v-2.14h.594v1.921q0 .453.031.61.063.234.235.374.171.125.437.125t.5-.14q.234-.14.328-.36.094-.234.094-.687v-1.844h.578v3.453h-.516zm1.437 0V82.24h.53v.485q.157-.25.423-.407.281-.156.625-.156.375 0 .625.156.25.157.344.453.406-.609 1.062-.609.516 0 .781.297.282.281.282.86v2.374h-.579V83.52q0-.359-.062-.5-.047-.156-.203-.25-.14-.093-.344-.093-.36 0-.61.25-.234.234-.234.765v2h-.593v-2.25q0-.375-.141-.562-.14-.203-.469-.203-.25 0-.453.125t-.297.375q-.094.25-.094.718v1.797h-.593zm5.013 1.328V86.6h3.875v.421h-3.875zm4.233-1.328V82.24h.516v.531q.203-.375.375-.484.172-.125.375-.125.297 0 .61.188l-.204.546q-.219-.125-.437-.125-.188 0-.344.125-.14.11-.219.313-.094.312-.094.672v1.812h-.578zm1.998-1.718q0-.97.531-1.422.453-.39 1.094-.39.703 0 1.156.468.453.469.453 1.281 0 .672-.203 1.063-.187.375-.578.593-.375.203-.828.203-.734 0-1.187-.453-.438-.468-.438-1.343zm.61 0q0 .656.28.984.298.328.735.328.438 0 .719-.328.297-.328.297-1.016 0-.64-.297-.968-.297-.329-.719-.329-.437 0-.734.329-.282.328-.282 1zm3.951 1.718-1.062-3.453h.61l.546 2 .203.735.188-.72.547-2.015h.593l.516 2 .172.656.203-.656.594-2h.562l-1.078 3.453h-.61l-.546-2.062-.125-.594-.703 2.656h-.61zm3.932-1.03.578-.095q.047.344.266.532.234.187.625.187.406 0 .594-.156.203-.172.203-.39 0-.204-.172-.313-.125-.078-.594-.203-.64-.157-.89-.266-.25-.125-.391-.328-.125-.219-.125-.469 0-.234.11-.422.109-.203.296-.344.125-.093.36-.156.234-.078.515-.078.407 0 .703.125.313.11.454.313.156.203.203.53l-.563.079q-.047-.266-.234-.406-.188-.157-.531-.157-.391 0-.563.141-.172.125-.172.297 0 .125.063.203.078.11.218.156.094.047.532.157.609.171.859.28.25.095.39.298.141.203.141.5t-.172.562q-.171.25-.5.39-.312.141-.718.141-.688 0-1.047-.28-.344-.282-.438-.829zm6.64-1.767h-3.14v-.546h3.14v.546zm0 1.438h-3.14v-.547h3.14v.547zm2.857 1.36h-.594v-3.735q-.203.203-.547.406-.344.203-.625.313v-.578q.5-.22.86-.547.375-.328.53-.64h.376v4.78zm1.499-2.344q0-.844.171-1.36.172-.515.516-.797.344-.28.86-.28.39 0 .671.155.297.157.485.453.187.282.297.704.109.406.109 1.125 0 .828-.188 1.343-.171.516-.515.797-.328.281-.86.281-.687 0-1.078-.484-.468-.594-.468-1.937zm.593 0q0 1.171.266 1.562.281.375.687.375.407 0 .672-.39.282-.391.282-1.547 0-1.188-.282-1.563-.265-.39-.672-.39-.406 0-.64.343-.313.438-.313 1.61zm3.108 0q0-.844.172-1.36.172-.515.516-.797.344-.28.86-.28.39 0 .671.155.297.157.485.453.187.282.296.704.11.406.11 1.125 0 .828-.188 1.343-.172.516-.515.797-.328.281-.86.281-.687 0-1.078-.484-.469-.594-.469-1.937zm.594 0q0 1.171.266 1.562.281.375.687.375.407 0 .672-.39.281-.391.281-1.547 0-1.188-.28-1.563-.266-.39-.673-.39-.406 0-.64.343-.313.438-.313 1.61zm3.108 0q0-.844.172-1.36.172-.515.516-.797.344-.28.86-.28.39 0 .671.155.297.157.484.453.188.282.297.704.11.406.11 1.125 0 .828-.188 1.343-.172.516-.515.797-.329.281-.86.281-.687 0-1.078-.484-.469-.594-.469-1.937zm.594 0q0 1.171.266 1.562.281.375.687.375t.672-.39q.281-.391.281-1.547 0-1.188-.28-1.563-.267-.39-.673-.39t-.64.343q-.313.438-.313 1.61zM314.189 92.661l.578-.094q.047.344.265.532.235.187.625.187.407 0 .594-.156.203-.172.203-.39 0-.204-.172-.313-.125-.078-.593-.203-.641-.157-.891-.266-.25-.125-.39-.328-.126-.219-.126-.469 0-.234.11-.422.109-.203.297-.344.125-.093.359-.156.234-.078.516-.078.406 0 .703.125.312.11.453.313.156.203.203.53l-.563.079q-.046-.266-.234-.406-.187-.157-.531-.157-.39 0-.563.141-.172.125-.172.297 0 .125.063.203.078.11.219.156.093.047.53.157.61.171.86.28.25.095.39.298.142.203.142.5t-.172.562q-.172.25-.5.39-.313.141-.72.141-.687 0-1.046-.28-.344-.282-.437-.829zm5.812-.234.578.078q-.094.594-.484.937-.39.328-.953.328-.703 0-1.141-.453-.422-.468-.422-1.343 0-.547.172-.97.188-.421.563-.624.39-.219.828-.219.562 0 .922.297.359.281.468.797l-.578.094q-.078-.36-.297-.532-.203-.172-.484-.172-.453 0-.734.313-.266.312-.266 1 0 .703.266 1.016.265.312.703.312.343 0 .562-.203.235-.219.297-.656zm1.078 1.265v-4.765h.594v1.703q.406-.469 1.031-.469.375 0 .656.156.282.141.407.422.125.266.125.766v2.187h-.578v-2.187q0-.438-.204-.64-.187-.204-.53-.204-.266 0-.5.14-.22.141-.313.376-.094.218-.094.625v1.89h-.594zm6.061-1.109.61.078q-.14.531-.531.828-.391.281-.985.281-.765 0-1.203-.468-.437-.469-.437-1.313 0-.86.437-1.344.453-.484 1.172-.484.687 0 1.125.469.437.469.437 1.328v.156h-2.578q.032.578.313.875.297.297.734.297.328 0 .547-.156.234-.172.36-.547zm-1.921-.953h1.937q-.047-.438-.219-.64-.281-.345-.734-.345-.406 0-.688.266-.265.266-.296.719zm3.264 2.062V90.24h.531v.485q.156-.25.422-.407.281-.156.625-.156.375 0 .625.156.25.157.344.453.406-.609 1.062-.609.516 0 .782.297.28.281.28.86v2.374h-.577V91.52q0-.359-.063-.5-.047-.156-.203-.25-.14-.093-.344-.093-.36 0-.61.25-.233.234-.233.765v2h-.594v-2.25q0-.375-.14-.562-.141-.203-.47-.203-.25 0-.453.125t-.297.375q-.093.25-.093.718v1.797h-.594zm7.795-.422q-.328.266-.625.391-.297.11-.641.11-.578 0-.89-.282-.297-.281-.297-.703 0-.25.109-.453.125-.219.312-.344.188-.14.422-.203.172-.047.516-.078.719-.094 1.047-.203v-.156q0-.36-.156-.5-.235-.204-.672-.204-.407 0-.61.157-.203.14-.297.5l-.562-.078q.078-.36.25-.579.187-.234.516-.359.343-.125.78-.125.454 0 .72.11.28.093.406.265.14.156.187.39.032.157.032.548v.765q0 .828.03 1.047.048.203.157.406h-.61q-.093-.187-.124-.422zm-.047-1.312q-.313.125-.953.219-.36.062-.516.125-.14.062-.234.187-.078.125-.078.281 0 .235.171.391.188.156.532.156.328 0 .593-.14.266-.157.391-.422.094-.188.094-.578v-.219zm4.577-1.063h-3.141v-.546h3.14v.546zm0 1.438h-3.141v-.547h3.14v.547zm.824 2.687v-6.093h1.282v.484h-.704v5.125h.704v.484h-1.282zm1.865-4.406-.156-.906v-.781h.656v.781l-.14.906h-.36zm1.078 0-.156-.906v-.781h.656v.781l-.156.906h-.344zm3.504 1.813.578.078q-.094.594-.484.937-.391.328-.954.328-.703 0-1.14-.453-.422-.468-.422-1.343 0-.547.172-.97.187-.421.562-.624.391-.219.828-.219.563 0 .922.297.36.281.47.797l-.579.094q-.078-.36-.297-.532-.203-.172-.484-.172-.453 0-.735.313-.265.312-.265 1 0 .703.265 1.016.266.312.703.312.344 0 .563-.203.234-.219.297-.656zm.86-.453q0-.97.53-1.422.454-.39 1.094-.39.703 0 1.156.468.454.469.454 1.281 0 .672-.204 1.063-.187.375-.578.593-.375.203-.828.203-.734 0-1.187-.453-.438-.468-.438-1.343zm.609 0q0 .656.28.984.298.328.735.328.438 0 .719-.328.297-.328.297-1.016 0-.64-.297-.968-.297-.329-.719-.329-.437 0-.734.329-.281.328-.281 1zm3.295 1.718v-4.765h.594v4.765h-.594zm3.542 0h-.594v-3.734q-.203.203-.547.406-.344.203-.625.313v-.578q.5-.22.86-.547.374-.328.53-.64h.376v4.78zm1.686-3.078-.156-.906v-.781h.656v.781l-.14.906h-.36zm1.078 0-.156-.906v-.781h.656v.781l-.156.906h-.344zm1.41 3.078v-.672h.656v.672q0 .375-.125.594-.125.219-.406.344l-.172-.25q.187-.078.265-.235.094-.156.11-.453h-.328zm3.573-3.078-.156-.906v-.781h.656v.781l-.14.906h-.36zm1.078 0-.156-.906v-.781h.656v.781l-.156.906h-.344zm3.504 1.813.578.078q-.094.594-.484.937-.391.328-.954.328-.703 0-1.14-.453-.422-.468-.422-1.343 0-.547.172-.97.187-.421.562-.624.391-.219.828-.219.563 0 .922.297.36.281.47.797l-.579.094q-.078-.36-.297-.532-.203-.172-.484-.172-.453 0-.735.313-.265.312-.265 1 0 .703.265 1.016.266.312.703.312.344 0 .563-.203.234-.219.297-.656zm.86-.453q0-.97.53-1.422.454-.39 1.094-.39.703 0 1.156.468.454.469.454 1.281 0 .672-.204 1.063-.187.375-.578.593-.375.203-.828.203-.734 0-1.187-.453-.438-.468-.438-1.343zm.609 0q0 .656.28.984.298.328.735.328.438 0 .719-.328.297-.328.297-1.016 0-.64-.297-.968-.297-.329-.719-.329-.437 0-.734.329-.281.328-.281 1zm3.295 1.718v-4.765h.594v4.765h-.594zm4.4-.562v.562h-3.14q-.015-.218.063-.406.125-.328.39-.64.266-.313.766-.72.781-.64 1.047-1 .281-.374.281-.702 0-.36-.25-.594-.25-.235-.656-.235-.422 0-.672.25-.25.25-.266.704l-.593-.063q.062-.672.468-1.016.407-.359 1.079-.359.687 0 1.078.375.406.375.406.938 0 .296-.125.578-.11.265-.39.578-.266.297-.891.828-.532.453-.688.61-.14.156-.234.312h2.328zm.828-2.516-.156-.906v-.781h.656v.781l-.14.906h-.36zm1.078 0-.156-.906v-.781h.656v.781l-.156.906h-.344zm2.238 4.406h-1.297v-.484h.703v-5.125h-.703v-.484h1.297v6.093z" fill="#000"/><path d="M302.782 114.083a7.522 7.522 0 0 1 7.523-7.522h85.144a7.522 7.522 0 0 1 7.522 7.522v30.09a7.522 7.522 0 0 1-7.522 7.522h-85.144a7.522 7.522 0 0 1-7.523-7.523z" fill="none"/><path d="M302.782 114.083a7.522 7.522 0 0 1 7.523-7.522h85.144a7.522 7.522 0 0 1 7.522 7.522v30.09a7.522 7.522 0 0 1-7.522 7.522h-85.144a7.522 7.522 0 0 1-7.523-7.523z" stroke-linecap="butt" stroke-linejoin="round" stroke="#000"/><path d="M314.782 127.039v-8.61h.953v.797q.344-.469.766-.703.438-.234 1.047-.234.797 0 1.406.406.61.406.906 1.156.313.75.313 1.64 0 .954-.344 1.72-.328.765-.984 1.171-.656.407-1.375.407-.531 0-.953-.22-.422-.234-.688-.562v3.032h-1.047zm.953-5.47q0 1.204.485 1.782.484.563 1.172.563.703 0 1.203-.594.5-.594.5-1.844 0-1.187-.485-1.766-.484-.593-1.171-.593-.672 0-1.188.625-.516.625-.516 1.828zm5.674 5.47-.125-.985q.344.094.61.094.343 0 .547-.125.218-.11.359-.313.094-.171.328-.796.016-.079.094-.25l-2.375-6.235h1.14l1.297 3.594q.25.687.453 1.453.188-.734.438-1.422l1.328-3.625h1.047l-2.36 6.328q-.39 1.016-.593 1.407-.281.53-.656.765-.36.25-.86.25-.297 0-.672-.14zm10.11-3.157q-.594.5-1.141.703-.531.204-1.156.204-1.031 0-1.578-.5-.547-.5-.547-1.282 0-.453.203-.828.203-.39.547-.61.344-.234.765-.343.297-.094.938-.172 1.266-.14 1.875-.36v-.265q0-.656-.297-.922-.406-.343-1.203-.343-.734 0-1.094.265-.36.25-.531.906l-1.031-.14q.14-.656.468-1.063.329-.406.938-.625.61-.218 1.406-.218.797 0 1.297.187.5.188.734.469.235.281.329.719.046.265.046.968v1.407q0 1.468.063 1.859.078.39.281.75h-1.11q-.155-.328-.202-.766zm-.094-2.36q-.578.235-1.719.407-.656.094-.922.219-.265.11-.422.328-.14.219-.14.5 0 .422.312.703.328.281.938.281.61 0 1.078-.265.484-.266.703-.735.172-.359.172-1.046v-.391zm2.69 3.126v-6.219h.952v.938q.36-.657.657-.86.312-.218.687-.218.531 0 1.078.328l-.359.984q-.39-.234-.766-.234-.359 0-.64.218-.266.204-.375.579-.188.562-.188 1.218v3.266h-1.047zm3.995 0v-6.219h.954v.938q.359-.657.656-.86.312-.218.687-.218.532 0 1.078.328l-.359.984q-.39-.234-.766-.234-.359 0-.64.218-.266.204-.375.579-.188.562-.188 1.218v3.266h-1.047zm3.622-3.11q0-1.734.953-2.562.797-.687 1.953-.687 1.281 0 2.094.843.828.828.828 2.313 0 1.203-.36 1.89-.36.688-1.062 1.079-.688.375-1.5.375-1.297 0-2.11-.829-.796-.843-.796-2.421zm1.078 0q0 1.188.515 1.782.532.594 1.313.594.797 0 1.312-.594.516-.594.516-1.813 0-1.156-.531-1.75-.516-.593-1.297-.593-.781 0-1.313.593-.515.578-.515 1.782zm7.127 3.11-1.907-6.219h1.094l.984 3.594.375 1.328q.032-.094.329-1.281l.984-3.64h1.078l.938 3.609.312 1.187.36-1.203 1.062-3.594h1.031l-1.953 6.219h-1.094l-.984-3.734-.25-1.047-1.25 4.78h-1.11zm7.16 0v-1.203h1.203v1.203h-1.203zm5.35 0v-7.578h-2.829v-1.016h6.813v1.016h-2.844v7.578h-1.14zm7.75-.766q-.594.5-1.141.703-.532.204-1.157.204-1.03 0-1.578-.5-.547-.5-.547-1.282 0-.453.204-.828.203-.39.546-.61.344-.234.766-.343.297-.094.938-.172 1.265-.14 1.875-.36v-.265q0-.656-.297-.922-.407-.343-1.203-.343-.735 0-1.094.265-.36.25-.531.906l-1.032-.14q.141-.656.47-1.063.327-.406.937-.625.609-.218 1.406-.218.797 0 1.297.187.5.188.734.469.234.281.328.719.047.265.047.968v1.407q0 1.468.063 1.859.078.39.28.75H370.4q-.156-.328-.203-.766zm-.094-2.36q-.579.235-1.72.407-.655.094-.921.219-.266.11-.422.328-.14.219-.14.5 0 .422.312.703.328.281.937.281.61 0 1.079-.265.484-.266.703-.735.172-.359.172-1.046v-.391zm3.673 3.126h-.984v-8.594h1.063v3.063q.671-.828 1.703-.828.578 0 1.078.234.515.219.844.64.343.422.53 1.016.188.594.188 1.266 0 1.594-.797 2.469-.796.875-1.89.875-1.11 0-1.735-.922v.78zm-.015-3.156q0 1.109.312 1.609.5.813 1.344.813.688 0 1.188-.594.515-.594.515-1.797 0-1.219-.484-1.797-.485-.578-1.172-.578-.688 0-1.203.61-.5.593-.5 1.734zm5.69 3.156v-8.594h1.062v8.594h-1.063zm6.947-2 1.093.125q-.25.953-.953 1.484-.703.532-1.781.532-1.36 0-2.172-.844-.797-.844-.797-2.36 0-1.562.813-2.421.812-.875 2.093-.875 1.25 0 2.032.843.797.844.797 2.39v.282h-4.641q.062 1.031.578 1.578.516.532 1.297.532.578 0 .984-.297.422-.313.657-.97zm-3.454-1.703h3.47q-.063-.797-.391-1.188-.516-.61-1.313-.61-.734 0-1.234.485-.485.485-.532 1.313zM314.423 135.528v-3.453h.531v.5q.375-.578 1.094-.578.312 0 .578.109.266.11.39.297.126.187.188.437.031.157.031.563v2.125h-.593v-2.094q0-.36-.078-.531-.063-.188-.235-.281-.172-.11-.406-.11-.375 0-.64.235-.266.234-.266.89v1.89h-.594zm5.967 0v-.5q-.406.578-1.093.578-.313 0-.578-.11-.266-.124-.391-.296-.125-.188-.172-.438-.047-.172-.047-.547v-2.14h.594v1.922q0 .453.031.609.063.234.235.375.171.125.437.125t.5-.14q.234-.141.328-.36.094-.234.094-.687v-1.844h.578v3.453h-.516zm1.437 0v-3.453h.53v.484q.157-.25.423-.406.281-.156.625-.156.375 0 .625.156t.344.453q.406-.61 1.062-.61.516 0 .781.298.282.28.282.859v2.375h-.579v-2.172q0-.36-.062-.5-.047-.156-.203-.25-.14-.094-.344-.094-.36 0-.61.25-.234.235-.234.766v2h-.593v-2.25q0-.375-.141-.563-.14-.203-.469-.203-.25 0-.453.125t-.297.375q-.094.25-.094.719v1.797h-.593zm5.013 1.328v-.422h3.875v.422h-3.875zm4.233-1.328v-3.453h.516v.531q.203-.375.375-.484.172-.125.375-.125.297 0 .61.187l-.204.547q-.219-.125-.437-.125-.188 0-.344.125-.14.11-.219.313-.094.312-.094.671v1.813h-.578zm1.998-1.719q0-.969.531-1.422.453-.39 1.094-.39.703 0 1.156.468.453.47.453 1.282 0 .672-.203 1.062-.187.375-.578.594-.375.203-.828.203-.734 0-1.187-.453-.438-.469-.438-1.344zm.61 0q0 .656.28.985.298.328.735.328.438 0 .719-.328.297-.329.297-1.016 0-.64-.297-.969-.297-.328-.719-.328-.437 0-.734.328-.282.328-.282 1zm3.951 1.719-1.062-3.453h.61l.546 2 .203.734.188-.719.547-2.015h.593l.516 2 .172.656.203-.656.594-2h.562l-1.078 3.453h-.61l-.546-2.063-.125-.593-.703 2.656h-.61zm3.932-1.031.578-.094q.047.344.266.531.234.188.625.188.406 0 .594-.157.203-.171.203-.39 0-.203-.172-.313-.125-.078-.594-.203-.64-.156-.89-.265-.25-.125-.391-.329-.125-.218-.125-.468 0-.235.11-.422.109-.203.296-.344.125-.094.36-.156.234-.078.515-.078.407 0 .703.125.313.109.454.312.156.203.203.531l-.563.079q-.047-.266-.234-.407-.188-.156-.531-.156-.391 0-.563.14-.172.126-.172.298 0 .125.063.203.078.109.218.156.094.047.532.156.609.172.859.281.25.094.39.297.141.203.141.5t-.172.563q-.171.25-.5.39-.312.141-.718.141-.688 0-1.047-.281-.344-.281-.438-.828zm6.64-1.766h-3.14v-.547h3.14v.547zm0 1.438h-3.14v-.547h3.14v.547zm2.857 1.359h-.594v-3.734q-.203.203-.547.406-.344.203-.625.312v-.578q.5-.219.86-.547.375-.328.53-.64h.376v4.78zm1.499-2.344q0-.844.171-1.36.172-.515.516-.796.344-.281.86-.281.39 0 .671.156.297.156.485.453.187.281.297.703.109.406.109 1.125 0 .828-.188 1.344-.171.516-.515.797-.328.281-.86.281-.687 0-1.078-.484-.468-.594-.468-1.938zm.593 0q0 1.172.266 1.563.281.375.687.375.407 0 .672-.391.282-.39.282-1.547 0-1.187-.282-1.562-.265-.391-.672-.391-.406 0-.64.344-.313.437-.313 1.61zm3.108 0q0-.844.172-1.36.172-.515.516-.796.344-.281.86-.281.39 0 .671.156.297.156.485.453.187.281.296.703.11.406.11 1.125 0 .828-.188 1.344-.172.516-.515.797-.328.281-.86.281-.687 0-1.078-.484-.469-.594-.469-1.938zm.594 0q0 1.172.266 1.563.281.375.687.375.407 0 .672-.391.281-.39.281-1.547 0-1.187-.28-1.562-.266-.391-.673-.391-.406 0-.64.344-.313.437-.313 1.61zm3.108 0q0-.844.172-1.36.172-.515.516-.796.344-.281.86-.281.39 0 .671.156.297.156.484.453.188.281.297.703.11.406.11 1.125 0 .828-.188 1.344-.172.516-.515.797-.329.281-.86.281-.687 0-1.078-.484-.469-.594-.469-1.938zm.594 0q0 1.172.266 1.563.281.375.687.375t.672-.391q.281-.39.281-1.547 0-1.187-.28-1.562-.267-.391-.673-.391t-.64.344q-.313.437-.313 1.61zM314.189 142.497l.578-.094q.047.344.265.531.235.188.625.188.407 0 .594-.157.203-.171.203-.39 0-.203-.172-.313-.125-.078-.593-.203-.641-.156-.891-.265-.25-.125-.39-.329-.126-.218-.126-.468 0-.235.11-.422.109-.203.297-.344.125-.094.359-.156.234-.078.516-.078.406 0 .703.125.312.109.453.312.156.203.203.531l-.563.079q-.046-.266-.234-.407-.187-.156-.531-.156-.39 0-.563.14-.172.126-.172.298 0 .125.063.203.078.109.219.156.093.047.53.156.61.172.86.281.25.094.39.297.142.203.142.5t-.172.563q-.172.25-.5.39-.313.141-.72.141-.687 0-1.046-.281-.344-.281-.437-.828zm5.812-.235.578.078q-.094.594-.484.938-.39.328-.953.328-.703 0-1.141-.453-.422-.469-.422-1.344 0-.547.172-.969.188-.421.563-.625.39-.218.828-.218.562 0 .922.297.359.28.468.796l-.578.094q-.078-.36-.297-.531-.203-.172-.484-.172-.453 0-.734.313-.266.312-.266 1 0 .703.266 1.015.265.313.703.313.343 0 .562-.203.235-.22.297-.657zm1.078 1.266v-4.766h.594v1.703q.406-.468 1.031-.468.375 0 .656.156.282.14.407.422.125.265.125.765v2.188h-.578v-2.188q0-.437-.204-.64-.187-.203-.53-.203-.266 0-.5.14-.22.14-.313.375-.094.219-.094.625v1.89h-.594zm6.061-1.11.61.079q-.14.53-.531.828-.391.281-.985.281-.765 0-1.203-.469-.437-.468-.437-1.312 0-.86.437-1.344.453-.484 1.172-.484.687 0 1.125.468.437.47.437 1.329v.156h-2.578q.032.578.313.875.297.297.734.297.328 0 .547-.157.234-.171.36-.546zm-1.921-.953h1.937q-.047-.437-.219-.64-.281-.344-.734-.344-.406 0-.688.266-.265.265-.296.718zm3.264 2.063v-3.453h.531v.484q.156-.25.422-.406.281-.156.625-.156.375 0 .625.156t.344.453q.406-.61 1.062-.61.516 0 .782.298.28.28.28.859v2.375h-.577v-2.172q0-.36-.063-.5-.047-.156-.203-.25-.14-.094-.344-.094-.36 0-.61.25-.233.235-.233.766v2h-.594v-2.25q0-.375-.14-.563-.141-.203-.47-.203-.25 0-.453.125t-.297.375q-.093.25-.093.719v1.797h-.594zm7.795-.422q-.328.266-.625.39-.297.11-.641.11-.578 0-.89-.281-.297-.281-.297-.703 0-.25.109-.453.125-.22.312-.344.188-.14.422-.203.172-.047.516-.078.719-.094 1.047-.204v-.156q0-.36-.156-.5-.235-.203-.672-.203-.407 0-.61.156-.203.14-.297.5l-.562-.078q.078-.36.25-.578.187-.234.516-.36.343-.124.78-.124.454 0 .72.109.28.094.406.266.14.156.187.39.032.157.032.547v.766q0 .828.03 1.047.048.203.157.406h-.61q-.093-.188-.124-.422zm-.047-1.312q-.313.125-.953.218-.36.063-.516.125-.14.063-.234.188-.078.125-.078.281 0 .234.171.39.188.157.532.157.328 0 .593-.14.266-.157.391-.423.094-.187.094-.578v-.218zm4.577-1.063h-3.141v-.547h3.14v.547zm0 1.438h-3.141v-.547h3.14v.547zm.824 2.687v-6.094h1.282v.485h-.704v5.125h.704v.484h-1.282zm1.865-4.406-.156-.906v-.782h.656v.782l-.14.906h-.36zm1.078 0-.156-.906v-.782h.656v.782l-.156.906h-.344zm3.504 1.812.578.078q-.094.594-.484.938-.391.328-.954.328-.703 0-1.14-.453-.422-.469-.422-1.344 0-.547.172-.969.187-.421.562-.625.391-.218.828-.218.563 0 .922.297.36.28.47.796l-.579.094q-.078-.36-.297-.531-.203-.172-.484-.172-.453 0-.735.313-.265.312-.265 1 0 .703.265 1.015.266.313.703.313.344 0 .563-.203.234-.22.297-.657zm.86-.453q0-.969.53-1.422.454-.39 1.094-.39.703 0 1.156.468.454.47.454 1.282 0 .672-.204 1.062-.187.375-.578.594-.375.203-.828.203-.734 0-1.187-.453-.438-.469-.438-1.344zm.609 0q0 .656.28.985.298.328.735.328.438 0 .719-.328.297-.329.297-1.016 0-.64-.297-.969-.297-.328-.719-.328-.437 0-.734.328-.281.328-.281 1zm3.295 1.719v-4.766h.594v4.766h-.594zm3.542 0h-.594v-3.734q-.203.203-.547.406-.344.203-.625.312v-.578q.5-.219.86-.547.374-.328.53-.64h.376v4.78zm1.686-3.078-.156-.906v-.782h.656v.782l-.14.906h-.36zm1.078 0-.156-.906v-.782h.656v.782l-.156.906h-.344zm1.41 3.078v-.672h.656v.672q0 .375-.125.594-.125.218-.406.343l-.172-.25q.187-.078.265-.234.094-.156.11-.453h-.328zm3.573-3.078-.156-.906v-.782h.656v.782l-.14.906h-.36zm1.078 0-.156-.906v-.782h.656v.782l-.156.906h-.344zm3.504 1.812.578.078q-.094.594-.484.938-.391.328-.954.328-.703 0-1.14-.453-.422-.469-.422-1.344 0-.547.172-.969.187-.421.562-.625.391-.218.828-.218.563 0 .922.297.36.28.47.796l-.579.094q-.078-.36-.297-.531-.203-.172-.484-.172-.453 0-.735.313-.265.312-.265 1 0 .703.265 1.015.266.313.703.313.344 0 .563-.203.234-.22.297-.657zm.86-.453q0-.969.53-1.422.454-.39 1.094-.39.703 0 1.156.468.454.47.454 1.282 0 .672-.204 1.062-.187.375-.578.594-.375.203-.828.203-.734 0-1.187-.453-.438-.469-.438-1.344zm.609 0q0 .656.28.985.298.328.735.328.438 0 .719-.328.297-.329.297-1.016 0-.64-.297-.969-.297-.328-.719-.328-.437 0-.734.328-.281.328-.281 1zm3.295 1.719v-4.766h.594v4.766h-.594zm4.4-.563v.563h-3.14q-.015-.219.063-.406.125-.328.39-.641.266-.312.766-.719.781-.64 1.047-1 .281-.375.281-.703 0-.36-.25-.594-.25-.234-.656-.234-.422 0-.672.25-.25.25-.266.703l-.593-.062q.062-.672.468-1.016.407-.36 1.079-.36.687 0 1.078.376.406.375.406.937 0 .297-.125.578-.11.266-.39.578-.266.297-.891.829-.532.453-.688.609-.14.156-.234.312h2.328zm.828-2.515-.156-.906v-.782h.656v.782l-.14.906h-.36zm1.078 0-.156-.906v-.782h.656v.782l-.156.906h-.344zm2.238 4.406h-1.297v-.484h.703v-5.125h-.703v-.485h1.297v6.094z" fill="#000"/><path d="m160.042 93.623 142.74-14.33" fill="none"/><path d="m160.042 93.623 136.77-13.731" stroke-linecap="butt" stroke-linejoin="round" stroke="#000"/><path fill-rule="evenodd" d="m296.977 81.535 4.35-2.097-4.68-1.19z" stroke-linecap="butt" stroke="#000" fill="#000"/><path d="m160.357 103.207 142.425 25.92" fill="none"/><path d="m160.357 103.207 136.522 24.847" stroke-linecap="butt" stroke-linejoin="round" stroke="#000"/><path fill-rule="evenodd" d="m296.583 129.679 4.76-.813-4.168-2.437z" stroke-linecap="butt" stroke="#000" fill="#000"/></g></svg>